<svg preserveAspectRatio="none" width="100%" height="100%" overflow="visible" style="display: block;" viewBox="0 0 24.2134 25.6663" fill="none" xmlns="http://www.w3.org/2000/svg">
<g id="&#232;&#180;&#166;&#230;&#156;&#172;">
<g id="Vector" filter="url(#filter0_d_19922_105075)">
<path d="M4.33902 2.33333H15.2078C16.5451 2.33333 17.2134 3.00201 17.2134 4.33902V16.6606C17.2134 17.998 16.5448 18.6663 15.2078 18.6663H4.33902C3.00166 18.6663 2.33333 17.9976 2.33333 16.6606V4.33902C2.33333 3.00201 3.00201 2.33333 4.33902 2.33333Z" fill="url(#paint0_linear_19922_105075)"/>
</g>
<path id="Vector_2" d="M3.81574 7.11098H1.37199C1.10481 7.11098 0.848571 7.00485 0.659646 6.81592C0.470721 6.627 0.364584 6.37076 0.364584 6.10358C0.364584 5.8364 0.470721 5.58016 0.659646 5.39124C0.848571 5.20231 1.10481 5.09617 1.37199 5.09617H3.81609C4.08327 5.09617 4.33951 5.20231 4.52843 5.39124C4.71736 5.58016 4.82349 5.8364 4.82349 6.10358C4.82349 6.37076 4.71736 6.627 4.52843 6.81592C4.33951 7.00485 4.08327 7.11098 3.81609 7.11098H3.81574ZM3.81574 11.4962H1.37199C1.10481 11.4962 0.848571 11.39 0.659646 11.2011C0.470721 11.0122 0.364584 10.756 0.364584 10.4888C0.364584 10.2216 0.470721 9.96536 0.659646 9.77643C0.848571 9.58751 1.10481 9.48137 1.37199 9.48137H3.81609C4.08327 9.48137 4.33951 9.58751 4.52843 9.77643C4.71736 9.96536 4.82349 10.2216 4.82349 10.4888C4.82349 10.756 4.71736 11.0122 4.52843 11.2011C4.33951 11.39 4.08327 11.4962 3.81609 11.4962H3.81574ZM3.81574 15.8814H1.37199C1.10481 15.8814 0.848571 15.7752 0.659646 15.5863C0.470721 15.3974 0.364584 15.1412 0.364584 14.874C0.364584 14.6068 0.470721 14.3506 0.659646 14.1616C0.848571 13.9727 1.10481 13.8666 1.37199 13.8666H3.81609C3.98179 13.8664 4.14496 13.9072 4.29113 13.9853C4.43729 14.0633 4.56193 14.1762 4.65398 14.314C4.74603 14.4518 4.80265 14.6102 4.81881 14.7751C4.83497 14.94 4.81018 15.1064 4.74662 15.2594C4.67034 15.4435 4.54119 15.6008 4.3755 15.7115C4.20981 15.8223 4.01501 15.8814 3.81574 15.8814Z" fill="var(--fill-0, #A8C5FF)"/>
<path id="Vector_3" d="M12.1223 10.952V9.71859H10.9007L12.945 7.67429L12.0728 6.80203L10.1341 8.74067L8.19583 6.80203L7.32357 7.67429L9.36786 9.71859H8.14634V10.952H9.5174V11.9461H8.07052V13.1796H9.5174V14.2407H10.7512V13.1796H12.0464V11.9461H10.7512V10.952H12.1223Z" fill="var(--fill-0, white)"/>
</g>
<defs>
<filter id="filter0_d_19922_105075" x="0" y="7.9473e-08" width="24.2134" height="25.6663" filterUnits="userSpaceOnUse" color-interpolation-filters="sRGB">
<feFlood flood-opacity="0" result="BackgroundImageFix"/>
<feColorMatrix in="SourceAlpha" type="matrix" values="0 0 0 0 0 0 0 0 0 0 0 0 0 0 0 0 0 0 127 0" result="hardAlpha"/>
<feOffset dx="2.33333" dy="2.33333"/>
<feGaussianBlur stdDeviation="2.33333"/>
<feColorMatrix type="matrix" values="0 0 0 0 0.172549 0 0 0 0 0.360784 0 0 0 0 0.968627 0 0 0 0.3 0"/>
<feBlend mode="normal" in2="BackgroundImageFix" result="effect1_dropShadow_19922_105075"/>
<feBlend mode="normal" in="SourceGraphic" in2="effect1_dropShadow_19922_105075" result="shape"/>
</filter>
<linearGradient id="paint0_linear_19922_105075" x1="24.6535" y1="10.4998" x2="8.39117" y2="-4.31597" gradientUnits="userSpaceOnUse">
<stop stop-color="#2C5CF7"/>
<stop offset="1" stop-color="#80A6FF"/>
</linearGradient>
</defs>
</svg>
