<svg preserveAspectRatio="none" width="100%" height="100%" overflow="visible" style="display: block;" viewBox="0 0 18.7867 16.6015" fill="none" xmlns="http://www.w3.org/2000/svg">
<path id="Vector" d="M8.18583 16.2922C6.45055 16.0292 4.81091 15.6286 3.68729 15.194C1.61737 14.3906 0.181175 12.4403 0.0260896 10.2246C-0.111102 8.27021 0.303697 5.52397 1.01323 3.69507C1.81644 1.62284 3.76515 0.184656 5.97866 0.0287813C7.18005 -0.0551525 8.86555 0.0463168 10.6008 0.309319C12.3361 0.572322 13.9758 0.970953 15.0994 1.40755C17.1693 2.21097 18.6055 4.16121 18.7606 6.37689C18.8978 8.3333 18.483 11.0776 17.7734 12.9065C16.9702 14.9787 15.0215 16.4169 12.808 16.5727C11.6066 16.6567 9.92112 16.5552 8.18583 16.2922Z" fill="var(--fill-0, white)"/>
</svg>
