<svg preserveAspectRatio="none" width="100%" height="100%" overflow="visible" style="display: block;" viewBox="0 0 24.5189 24.5" fill="none" xmlns="http://www.w3.org/2000/svg">
<g id="&#232;&#181;&#176;&#229;&#138;&#191;">
<g id="Vector" filter="url(#filter0_d_19922_104850)">
<path d="M16.2882 17.5H3.59373C2.9175 17.5 2.3335 16.916 2.3335 16.2398C2.3335 15.5636 2.9175 14.9796 3.59373 14.9796H16.2575C16.9337 14.9796 17.5177 15.5636 17.5177 16.2398C17.5485 16.916 16.9644 17.5 16.2882 17.5Z" fill="url(#paint0_linear_19922_104850)"/>
</g>
<g id="Vector_2" filter="url(#filter1_d_19922_104850)">
<path d="M16.2881 2.33333H3.59356C2.91734 2.33333 2.33333 2.91734 2.33333 3.59356V12.4766C2.33333 13.1529 2.91734 13.7369 3.59356 13.7369H16.2573C16.9335 13.7369 17.5176 13.1529 17.5176 12.4766V3.59356C17.5483 2.91734 16.9643 2.33333 16.2881 2.33333Z" fill="url(#paint1_linear_19922_104850)"/>
</g>
<path id="Vector 55 (Stroke)" fill-rule="evenodd" clip-rule="evenodd" d="M14.7002 4.91706C15.0193 5.21491 15.0366 5.71506 14.7387 6.03418L11.3664 9.64738C11.2169 9.80754 11.0077 9.89847 10.7886 9.89847C10.5695 9.89847 10.3602 9.80754 10.2108 9.64738L8.54036 7.85767L6.30791 10.2496C6.01006 10.5687 5.50991 10.5859 5.19079 10.2881C4.87167 9.99026 4.85443 9.49011 5.15227 9.17099L7.96254 6.15999C8.11202 5.99983 8.32128 5.90889 8.54036 5.90889C8.75944 5.90889 8.96869 5.99983 9.11818 6.15999L10.7886 7.9497L13.5831 4.95559C13.8809 4.63647 14.3811 4.61922 14.7002 4.91706Z" fill="var(--fill-0, white)"/>
</g>
<defs>
<filter id="filter0_d_19922_104850" x="0.00016276" y="12.6462" width="24.5187" height="11.8538" filterUnits="userSpaceOnUse" color-interpolation-filters="sRGB">
<feFlood flood-opacity="0" result="BackgroundImageFix"/>
<feColorMatrix in="SourceAlpha" type="matrix" values="0 0 0 0 0 0 0 0 0 0 0 0 0 0 0 0 0 0 127 0" result="hardAlpha"/>
<feOffset dx="2.33333" dy="2.33333"/>
<feGaussianBlur stdDeviation="2.33333"/>
<feColorMatrix type="matrix" values="0 0 0 0 0.184314 0 0 0 0 0.717647 0 0 0 0 0.988235 0 0 0 0.3 0"/>
<feBlend mode="normal" in2="BackgroundImageFix" result="effect1_dropShadow_19922_104850"/>
<feBlend mode="normal" in="SourceGraphic" in2="effect1_dropShadow_19922_104850" result="shape"/>
</filter>
<filter id="filter1_d_19922_104850" x="0" y="0" width="24.5187" height="20.7369" filterUnits="userSpaceOnUse" color-interpolation-filters="sRGB">
<feFlood flood-opacity="0" result="BackgroundImageFix"/>
<feColorMatrix in="SourceAlpha" type="matrix" values="0 0 0 0 0 0 0 0 0 0 0 0 0 0 0 0 0 0 127 0" result="hardAlpha"/>
<feOffset dx="2.33333" dy="2.33333"/>
<feGaussianBlur stdDeviation="2.33333"/>
<feColorMatrix type="matrix" values="0 0 0 0 0.184314 0 0 0 0 0.717647 0 0 0 0 0.988235 0 0 0 0.3 0"/>
<feBlend mode="normal" in2="BackgroundImageFix" result="effect1_dropShadow_19922_104850"/>
<feBlend mode="normal" in="SourceGraphic" in2="effect1_dropShadow_19922_104850" result="shape"/>
</filter>
<linearGradient id="paint0_linear_19922_104850" x1="27.4607" y1="16.2398" x2="26.7058" y2="11.1499" gradientUnits="userSpaceOnUse">
<stop stop-color="#2FB7FC"/>
<stop offset="1" stop-color="#82DEFF"/>
</linearGradient>
<linearGradient id="paint1_linear_19922_104850" x1="27.4606" y1="8.0351" x2="16.5706" y2="-8.19176" gradientUnits="userSpaceOnUse">
<stop stop-color="#2FB7FC"/>
<stop offset="1" stop-color="#82DEFF"/>
</linearGradient>
</defs>
</svg>
