<svg width="18" height="18" viewBox="0 0 18 18" fill="none" xmlns="http://www.w3.org/2000/svg">
<path fill-rule="evenodd" clip-rule="evenodd" d="M15 1C15.5523 1 16 1.44772 16 2V3.999H15V2H2V16H15V14.999H16V15.9968C16 16.5491 15.5523 16.9968 15 16.9968H2C1.44772 16.9968 1 16.5491 1 15.9968V2C1 1.44772 1.44772 1 2 1H15ZM14.7036 6.02446L14.7134 6.03435L17.5609 8.98699C17.6895 9.12033 17.7213 9.31214 17.6566 9.47444C17.7105 9.61041 17.6974 9.76628 17.6171 9.89162L17.5609 9.96275L14.7134 12.9154L14.7036 12.9253C14.5337 13.0903 14.2622 13.0864 14.0972 12.9165C13.9466 12.7615 13.9273 12.5265 14.0397 12.351L14.096 12.2799L16.295 9.99919L7.5 10C7.22386 10 7 9.77614 7 9.5C7 9.22386 7.22386 9 7.5 9L16.342 8.99919L14.096 6.66986C13.9245 6.49208 13.925 6.21034 14.0972 6.0332C14.2622 5.86333 14.5337 5.85942 14.7036 6.02446Z" fill="#666666"/>
</svg>
