<svg width="16" height="16" viewBox="0 0 16 16" fill="none" xmlns="http://www.w3.org/2000/svg">
<path d="M14.5603 12.4982L7.96436 6.65531C7.63037 6.68734 7.31431 6.82078 7.05897 7.03757C6.80363 7.25436 6.62131 7.54403 6.5367 7.86739L12.482 14.5575L12.6046 14.6796C12.7848 14.8394 13.0019 14.9526 13.2364 15.009C13.471 15.0655 13.716 15.0635 13.9497 15.0034C14.1833 14.9432 14.3985 14.8266 14.5762 14.6639C14.7538 14.5012 14.8885 14.2975 14.9684 14.0706C15.0638 13.7976 15.0759 13.5026 15.0032 13.2228C14.9304 12.9429 14.7768 12.6908 14.5603 12.4982ZM4.6449 7.31231C5.06015 7.97905 5.45129 7.86739 5.5054 7.10326C5.54445 6.71751 5.72059 6.35833 6.00209 6.0905C6.28358 5.82267 6.65189 5.6638 7.04062 5.64254C7.82746 5.61787 7.94024 5.23353 7.28965 4.79466C6.97484 4.56596 6.75253 4.23269 6.66287 3.85504C6.57321 3.47739 6.6221 3.08025 6.80072 2.73536C7.1723 2.04395 6.89851 1.76154 6.18468 2.09718C5.82567 2.26244 5.41863 2.29232 5.03917 2.18128C4.6597 2.07023 4.3336 1.82582 4.12142 1.49342C3.70616 0.826674 3.31959 0.924056 3.26092 1.70311C3.22187 2.08887 3.04572 2.44804 2.76423 2.71588C2.48274 2.98371 2.11443 3.14258 1.72569 3.16384C0.933639 3.1976 0.821512 3.58258 1.47667 4.0208C1.79147 4.24951 2.01378 4.58278 2.10344 4.96043C2.19311 5.33808 2.14421 5.73521 1.96559 6.0801C1.59401 6.77217 1.86781 7.05392 2.58164 6.71828C2.93954 6.55213 3.34578 6.52076 3.72512 6.62997C4.10447 6.73919 4.43123 6.9816 4.6449 7.31231ZM9.00088 3.90394L9.65604 4.13247C9.86005 4.20367 10.0446 4.32134 10.1949 4.47609C10.3452 4.63084 10.4571 4.8184 10.5218 5.02384L10.7317 5.68603C10.7515 5.73441 10.7853 5.77581 10.8289 5.80495C10.8724 5.83409 10.9237 5.84965 10.9761 5.84965C11.0286 5.84965 11.0799 5.83409 11.1234 5.80495C11.1669 5.77581 11.2008 5.73441 11.2206 5.68603L11.4501 5.03357C11.5216 4.8304 11.6397 4.64665 11.7951 4.49697C11.9505 4.3473 12.1388 4.23582 12.3451 4.17142L13.0198 3.97211C13.0684 3.95238 13.11 3.91868 13.1392 3.87532C13.1685 3.83196 13.1841 3.7809 13.1841 3.72866C13.1841 3.67641 13.1685 3.62535 13.1392 3.58199C13.11 3.53863 13.0684 3.50493 13.0198 3.4852L12.3647 3.25603C12.1607 3.18489 11.9763 3.06732 11.826 2.91269C11.6757 2.75806 11.5637 2.57063 11.499 2.36531L11.3184 1.70766C11.2986 1.65928 11.2647 1.61788 11.2212 1.58874C11.1776 1.5596 11.1264 1.54404 11.0739 1.54404C11.0215 1.54404 10.9702 1.5596 10.9266 1.58874C10.8831 1.61788 10.8493 1.65928 10.8295 1.70766L10.6 2.36012C10.5285 2.56329 10.4103 2.74704 10.2549 2.89672C10.0996 3.04639 9.91122 3.15787 9.70493 3.22227L9.03999 3.43132C8.99142 3.45105 8.94985 3.48475 8.92059 3.52811C8.89132 3.57147 8.8757 3.62253 8.8757 3.67477C8.8757 3.72702 8.89132 3.77807 8.92059 3.82144C8.94985 3.8648 8.99142 3.89849 9.03999 3.91823L9.00088 3.90394ZM6.22379 10.5993L5.6423 10.3948C5.46148 10.3317 5.29791 10.2275 5.16461 10.0905C5.0313 9.95343 4.93192 9.78732 4.87436 9.60533L4.68857 9.02104C4.67284 8.97475 4.64294 8.93453 4.60306 8.90605C4.56318 8.87757 4.51535 8.86225 4.46628 8.86225C4.4172 8.86225 4.36937 8.87757 4.32949 8.90605C4.28962 8.93453 4.25971 8.97475 4.24398 9.02104L4.03863 9.60079C3.97388 9.77753 3.86918 9.93708 3.73263 10.0671C3.59608 10.1971 3.43134 10.2941 3.25114 10.3506L2.66443 10.5357C2.61771 10.5512 2.57708 10.5809 2.54829 10.6207C2.5195 10.6605 2.50401 10.7083 2.50401 10.7574C2.50401 10.8064 2.5195 10.8542 2.54829 10.894C2.57708 10.9338 2.61771 10.9635 2.66443 10.9791L3.24657 11.1836C3.42176 11.2504 3.57931 11.3562 3.7072 11.4929C3.83509 11.6296 3.92994 11.7936 3.98452 11.9724L4.17031 12.5567C4.1859 12.6032 4.21578 12.6436 4.25574 12.6723C4.29569 12.701 4.34369 12.7164 4.39294 12.7164C4.44218 12.7164 4.49018 12.701 4.53014 12.6723C4.57009 12.6436 4.59998 12.6032 4.61556 12.5567L4.82091 11.9769C4.88425 11.797 4.98882 11.6343 5.1263 11.5017C5.26379 11.369 5.43041 11.2701 5.61296 11.2128L6.19967 11.0278C6.24639 11.0122 6.28702 10.9825 6.31581 10.9427C6.3446 10.9029 6.36009 10.8551 6.36009 10.8061C6.36009 10.757 6.3446 10.7092 6.31581 10.6694C6.28702 10.6296 6.24639 10.5999 6.19967 10.5843L6.22379 10.5993Z" fill="white"/>
</svg>
