<svg width="16" height="16" viewBox="0 0 16 16" fill="none" xmlns="http://www.w3.org/2000/svg">
<path d="M7.50049 0.899968C7.8315 0.900227 8.09988 1.16855 8.1001 1.49958C8.1001 1.83079 7.83164 2.09893 7.50049 2.09919H4.00049C3.22742 2.09919 2.60032 2.72656 2.6001 3.49958V12.4996C2.6001 13.2728 3.22729 13.9 4.00049 13.9H12.0005C12.7735 13.8997 13.4009 13.2726 13.4009 12.4996V7.49958C13.4011 7.16839 13.6693 6.89997 14.0005 6.89997C14.3315 6.90023 14.5999 7.16855 14.6001 7.49958V12.4996C14.6001 13.9354 13.4362 15.0989 12.0005 15.0992H4.00049C2.56455 15.0992 1.40088 13.9355 1.40088 12.4996V3.49958C1.4011 2.06382 2.56468 0.899968 4.00049 0.899968H7.50049ZM7.50049 10.4C7.8315 10.4002 8.09988 10.6686 8.1001 10.9996C8.1001 11.3308 7.83164 11.5989 7.50049 11.5992H4.50049C4.16912 11.5992 3.90088 11.3309 3.90088 10.9996C3.9011 10.6684 4.16925 10.4 4.50049 10.4H7.50049ZM9.90088 7.39997C10.2317 7.40049 10.5003 7.66872 10.5005 7.99958C10.5005 8.33062 10.2318 8.59866 9.90088 8.59919H4.50049C4.16912 8.59919 3.90088 8.33095 3.90088 7.99958C3.9011 7.66839 4.16925 7.39997 4.50049 7.39997H9.90088ZM12.0278 0.16657C12.0704 -0.0555485 12.3915 -0.0554982 12.4341 0.16657L12.6274 1.17536C12.7857 2.00255 13.4392 2.64965 14.2749 2.80622L15.2935 2.99665C15.518 3.03869 15.518 3.35694 15.2935 3.39899L14.2749 3.5904C13.4391 3.74701 12.7856 4.39395 12.6274 5.22126L12.4341 6.23005C12.3913 6.45172 12.0706 6.45177 12.0278 6.23005L11.8354 5.22126C11.6773 4.39388 11.0229 3.74694 10.187 3.5904L9.16846 3.39899C8.94394 3.35694 8.94393 3.03869 9.16846 2.99665L10.187 2.80622C11.0229 2.64969 11.6772 2.00265 11.8354 1.17536L12.0278 0.16657Z" fill="url(#paint0_linear_10779_3190)"/>
<defs>
<linearGradient id="paint0_linear_10779_3190" x1="1.40088" y1="7.54959" x2="15.4619" y2="7.54959" gradientUnits="userSpaceOnUse">
<stop stop-color="#5C8AFF"/>
<stop offset="1" stop-color="#786CFF"/>
</linearGradient>
</defs>
</svg>
