<svg preserveAspectRatio="none" width="100%" height="100%" overflow="visible" style="display: block;" viewBox="0 0 23.8108 25.2238" fill="none" xmlns="http://www.w3.org/2000/svg">
<g id="&#229;&#174;&#161;&#230;&#137;&#185;">
<g id="Vector" filter="url(#filter0_d_19922_105080)">
<path d="M4.28471 2.33333H14.8594C16.1604 2.33333 16.8108 2.98368 16.8108 4.28471V16.2721C16.8108 17.5731 16.1604 18.2238 14.8594 18.2238H4.28471C2.98402 18.2238 2.33333 17.5731 2.33333 16.2724V4.28437C2.33333 2.98368 2.98402 2.33333 4.28471 2.33333Z" fill="url(#paint0_linear_19922_105080)"/>
</g>
<path id="Vector_2" d="M10.2119 10.9331H5.70337C5.49537 10.9331 5.29589 10.8505 5.14881 10.7034C5.00174 10.5563 4.91911 10.3568 4.91911 10.1489C4.91911 9.94085 5.00174 9.74137 5.14881 9.59429C5.29589 9.44722 5.49537 9.36459 5.70337 9.36459H10.2119C10.4198 9.36459 10.6193 9.4472 10.7663 9.59424C10.9134 9.74129 10.996 9.94073 10.996 10.1487C10.996 10.3566 10.9134 10.5561 10.7663 10.7031C10.6193 10.8502 10.4198 10.9328 10.2119 10.9328V10.9331ZM13.0787 7.45337H5.70405C5.4961 7.45337 5.29666 7.37076 5.14961 7.22371C5.00257 7.07667 4.91996 6.87723 4.91996 6.66928C4.91996 6.46132 5.00257 6.26189 5.14961 6.11484C5.29666 5.96779 5.4961 5.88519 5.70405 5.88519H13.0787C13.2867 5.88519 13.4861 5.96779 13.6332 6.11484C13.7802 6.26189 13.8628 6.46132 13.8628 6.66928C13.8628 6.87723 13.7802 7.07667 13.6332 7.22371C13.4861 7.37076 13.2867 7.45337 13.0787 7.45337Z" fill="var(--fill-0, white)"/>
<path id="Vector_3" d="M11.3153 15.9671C11.3153 16.9928 11.7227 17.9765 12.448 18.7018C13.1733 19.427 14.1569 19.8345 15.1826 19.8345C16.2083 19.8345 17.192 19.427 17.9173 18.7018C18.6425 17.9765 19.05 16.9928 19.05 15.9671C19.05 14.9414 18.6425 13.9577 17.9173 13.2325C17.192 12.5072 16.2083 12.0997 15.1826 12.0997C14.1569 12.0997 13.1733 12.5072 12.448 13.2325C11.7227 13.9577 11.3153 14.9414 11.3153 15.9671Z" fill="var(--fill-0, #FFAE78)"/>
<path id="Vector_4" d="M14.7601 16.2054V15.6428C14.5528 15.5521 14.3765 15.4029 14.2526 15.2136C14.1287 15.0242 14.0626 14.8029 14.0625 14.5766C14.0625 14.2681 14.185 13.9721 14.4031 13.7539C14.6212 13.5356 14.9171 13.4129 15.2257 13.4127C15.3785 13.4127 15.5299 13.4429 15.6711 13.5013C15.8123 13.5598 15.9406 13.6456 16.0487 13.7536C16.1567 13.8617 16.2425 13.99 16.301 14.1312C16.3594 14.2724 16.3895 14.4238 16.3895 14.5766C16.3894 14.803 16.3233 15.0244 16.1993 15.2138C16.0753 15.4032 15.8987 15.5523 15.6912 15.6428V16.2054H16.7374C17.0593 16.2054 17.32 16.464 17.32 16.7873V17.3693H13.1317V16.7873C13.1317 16.4661 13.3934 16.2054 13.7143 16.2054H14.7604H14.7601ZM13.1317 17.6017H17.3207V18.0669H13.1313V17.6017H13.1317Z" fill="var(--fill-0, white)"/>
</g>
<defs>
<filter id="filter0_d_19922_105080" x="0" y="0" width="23.8108" height="25.2238" filterUnits="userSpaceOnUse" color-interpolation-filters="sRGB">
<feFlood flood-opacity="0" result="BackgroundImageFix"/>
<feColorMatrix in="SourceAlpha" type="matrix" values="0 0 0 0 0 0 0 0 0 0 0 0 0 0 0 0 0 0 127 0" result="hardAlpha"/>
<feOffset dx="2.33333" dy="2.33333"/>
<feGaussianBlur stdDeviation="2.33333"/>
<feColorMatrix type="matrix" values="0 0 0 0 1 0 0 0 0 0.466667 0 0 0 0 0.2 0 0 0 0.3 0"/>
<feBlend mode="normal" in2="BackgroundImageFix" result="effect1_dropShadow_19922_105080"/>
<feBlend mode="normal" in="SourceGraphic" in2="effect1_dropShadow_19922_105080" result="shape"/>
</filter>
<linearGradient id="paint0_linear_19922_105080" x1="24.0495" y1="10.2786" x2="8.22771" y2="-4.13634" gradientUnits="userSpaceOnUse">
<stop stop-color="#FF7733"/>
<stop offset="1" stop-color="#FFB685"/>
</linearGradient>
</defs>
</svg>
