<svg preserveAspectRatio="none" width="100%" height="100%" overflow="visible" style="display: block;" viewBox="0 0 24.5561 24.5" fill="none" xmlns="http://www.w3.org/2000/svg">
<g id="&#229;&#183;&#165;&#229;&#133;&#183;">
<g id="Vector" filter="url(#filter0_d_19922_104946)">
<path d="M8.02199 2.3334C8.26213 2.33877 8.49721 2.3988 8.71018 2.5116C8.91055 2.61271 9.09391 2.74448 9.25365 2.90214L10.4878 4.4188C10.6183 4.59575 10.8108 4.71771 11.0272 4.76132H16.4818C16.6225 4.76082 16.7618 4.78805 16.892 4.84144C17.0221 4.89484 17.1404 4.97336 17.2402 5.07251C17.34 5.17167 17.4192 5.28951 17.4734 5.41931C17.5276 5.54911 17.5557 5.68832 17.5561 5.82898V15.3268C17.556 15.8751 17.3486 16.4032 16.9756 16.8051C16.6026 17.2071 16.0915 17.4533 15.5446 17.4943L15.3813 17.5H9.91181L4.04076 17.4978C3.81268 17.4955 3.58755 17.4459 3.37962 17.3522C3.1717 17.2584 2.98549 17.1225 2.8328 16.9531C2.51533 16.6108 2.33726 16.1623 2.33357 15.6955V4.13253C2.32592 3.65348 2.50496 3.19023 2.8328 2.84085C2.98928 2.67859 3.17717 2.54992 3.38502 2.46267C3.59286 2.37543 3.8163 2.33144 4.04171 2.3334H8.02199ZM7.65894 4.68106H4.05182C3.90768 4.68106 3.76945 4.73832 3.66753 4.84024C3.56561 4.94216 3.50835 5.08039 3.50835 5.22453V5.31174C3.50835 5.45587 3.56561 5.59411 3.66753 5.69603C3.76945 5.79795 3.90768 5.85521 4.05182 5.85521H7.65926C7.80337 5.85512 7.94155 5.79784 8.04346 5.69594C8.14536 5.59403 8.20264 5.45585 8.20273 5.31174V5.22453C8.20273 5.08039 8.14547 4.94216 8.04355 4.84024C7.94163 4.73832 7.80308 4.68106 7.65894 4.68106Z" fill="url(#paint0_linear_19922_104946)"/>
</g>
<path id="Vector_2" d="M7.6593 4.68082H4.05218C3.90804 4.68082 3.76981 4.73808 3.66789 4.84C3.56597 4.94192 3.50871 5.08016 3.50871 5.22429V5.3115C3.50871 5.45564 3.56597 5.59387 3.66789 5.69579C3.76981 5.79771 3.90804 5.85497 4.05218 5.85497H7.65962C7.80373 5.85489 7.94191 5.7976 8.04382 5.6957C8.14572 5.5938 8.203 5.45561 8.20309 5.3115V5.22429C8.20309 5.08016 8.14583 4.94192 8.04391 4.84C7.94199 4.73808 7.80376 4.68082 7.65962 4.68082H7.6593Z" fill="var(--fill-0, #FFD0D0)"/>
<path id="&#232;&#183;&#175;&#229;&#190;&#132;" fill-rule="evenodd" clip-rule="evenodd" d="M12.379 7.9712L11.0684 9.27655C10.8191 9.5247 10.806 9.91901 11.0289 10.1826L11.0683 10.2253L11.5445 10.6997C11.8075 10.9617 12.234 10.9617 12.497 10.6997L13.7957 9.40596C14.1999 10.3788 14.0052 11.5405 13.2113 12.3313C12.4174 13.1222 11.2514 13.3162 10.2749 12.9136L8.04271 15.1371C7.77971 15.3991 7.35329 15.3991 7.09029 15.1371L6.61408 14.6627C6.35108 14.4006 6.35108 13.9759 6.61408 13.7138L8.83438 11.5019C8.40764 10.521 8.59671 9.33795 9.4016 8.53612C10.2066 7.7342 11.3943 7.54589 12.379 7.9712Z" fill="var(--fill-0, white)"/>
</g>
<defs>
<filter id="filter0_d_19922_104946" x="0" y="0" width="24.5561" height="24.5" filterUnits="userSpaceOnUse" color-interpolation-filters="sRGB">
<feFlood flood-opacity="0" result="BackgroundImageFix"/>
<feColorMatrix in="SourceAlpha" type="matrix" values="0 0 0 0 0 0 0 0 0 0 0 0 0 0 0 0 0 0 127 0" result="hardAlpha"/>
<feOffset dx="2.33333" dy="2.33333"/>
<feGaussianBlur stdDeviation="2.33333"/>
<feColorMatrix type="matrix" values="0 0 0 0 1 0 0 0 0 0.25098 0 0 0 0 0.25098 0 0 0 0.3 0"/>
<feBlend mode="normal" in2="BackgroundImageFix" result="effect1_dropShadow_19922_104946"/>
<feBlend mode="normal" in="SourceGraphic" in2="effect1_dropShadow_19922_104946" result="shape"/>
</filter>
<linearGradient id="paint0_linear_19922_104946" x1="25.1675" y1="9.91667" x2="10.0009" y2="-5.30599" gradientUnits="userSpaceOnUse">
<stop stop-color="#FF4040"/>
<stop offset="1" stop-color="#FF9991"/>
</linearGradient>
</defs>
</svg>
