<svg width="167" height="86" viewBox="0 0 167 86" fill="none" xmlns="http://www.w3.org/2000/svg">
<g clip-path="url(#clip0_2562_12292)">
<mask id="path-1-inside-1_2562_12292" fill="white">
<path d="M0 8.84119C0 3.95834 3.95833 0 8.84118 0H158.159C163.042 0 167 3.95833 167 8.84118V76.6235C167 81.5064 163.042 85.4647 158.159 85.4647H8.84117C3.95832 85.4647 0 81.5064 0 76.6235V8.84119Z"/>
</mask>
<path d="M0 8.84119C0 3.95834 3.95833 0 8.84118 0H158.159C163.042 0 167 3.95833 167 8.84118V76.6235C167 81.5064 163.042 85.4647 158.159 85.4647H8.84117C3.95832 85.4647 0 81.5064 0 76.6235V8.84119Z" fill="#FFF4E6"/>
<g clip-path="url(#clip1_2562_12292)">
<path d="M10.0693 15.1564C10.0693 11.6687 12.8967 8.84131 16.3845 8.84131H151.107C154.595 8.84131 157.422 11.6687 157.422 15.1564V85.6753H10.0693V15.1564Z" fill="white"/>
<g clip-path="url(#clip2_2562_12292)">
<path d="M22.5768 16.2207C21.9656 16.4741 21.4156 16.8452 20.9551 17.3058C20.0502 18.2106 19.4906 19.4606 19.4906 20.8413C19.4906 23.6028 21.7292 25.8413 24.4906 25.8413C25.8713 25.8413 27.1213 25.2817 28.0261 24.3769C28.4867 23.9163 28.8578 23.3663 29.1112 22.7552" stroke="#FF9902" stroke-width="0.847059" stroke-linecap="round" stroke-linejoin="round"/>
<path d="M24.4895 20.8408H29.4895C29.4895 18.0794 27.2509 15.8408 24.4895 15.8408V20.8408Z" stroke="#FF9902" stroke-width="0.847059" stroke-linejoin="round"/>
</g>
<path d="M39.9885 22.4603H38.3595V21.5513H42.5895V22.4603H40.9425V24.0713H42.9945V24.9893H37.9545V24.0713H39.9885V22.4603ZM40.7895 19.9583C40.1595 20.4803 39.3675 20.9303 38.4225 21.2903L37.8195 20.5163C39.4035 19.9493 40.5015 19.1663 41.1315 18.1583H38.2605V17.2583H42.2655V17.9963C42.0585 18.4913 41.7705 18.9503 41.4105 19.3643C42.0855 19.7963 42.6705 20.2193 43.1565 20.6423L42.4635 21.3353C42.0495 20.8943 41.4915 20.4353 40.7895 19.9583ZM37.9095 23.0993V23.9723C37.0455 24.4223 36.0735 24.7913 34.9845 25.0613L34.8585 24.1523C36.0195 23.8913 37.0365 23.5403 37.9095 23.0993ZM36.2985 16.8983L37.1985 17.2493C36.7845 18.3023 36.3615 19.1663 35.9295 19.8323C36.2355 19.7963 36.5325 19.7603 36.8205 19.7153C36.9735 19.4183 37.1355 19.1033 37.3065 18.7613L38.1705 19.0853C37.4505 20.4353 36.8385 21.4253 36.3345 22.0643C36.8565 21.9293 37.3875 21.7583 37.9275 21.5513V22.3973C36.9645 22.7573 36.0555 23.0003 35.1915 23.1263L34.9485 22.2803C35.1105 22.2083 35.2545 22.1183 35.3715 22.0103C35.6325 21.7403 35.9655 21.2543 36.3615 20.5613C35.9475 20.6153 35.5155 20.6783 35.0655 20.7413L34.8405 19.8863C34.9845 19.8233 35.1105 19.7063 35.2275 19.5443C35.6415 18.7343 35.9925 17.8523 36.2985 16.8983ZM45.6405 20.2013H50.3925V22.1723H45.6405V20.2013ZM49.5285 21.4793V20.9033H46.5045V21.4793H49.5285ZM51.2295 22.5953V25.2863H50.3205V24.9533H45.7485V25.2863H44.8305V22.5953H51.2295ZM45.7485 24.1613H50.3205V23.3693H45.7485V24.1613ZM44.0835 17.4833H46.0005V16.9613H46.9365V17.4833H49.0425V16.9613H49.9785V17.4833H51.8955V18.3023H49.9785V18.7343H49.0425V18.3023H46.9365V18.7343H46.0005V18.3023H44.0835V17.4833ZM51.7425 18.9683V20.8133H50.8425V19.7603H45.1365V20.8583H44.2365V18.9683H51.7425ZM56.0085 20.4263V21.3623C55.7025 21.5063 55.3875 21.6503 55.0815 21.7853V24.3233C55.0815 24.9353 54.7755 25.2503 54.1815 25.2503H53.3265L53.1105 24.3503C53.3715 24.3863 53.6145 24.4133 53.8485 24.4133C54.0465 24.4133 54.1545 24.3053 54.1545 24.0893V22.1543C53.7765 22.2983 53.3895 22.4243 53.0115 22.5413L52.7775 21.6143C53.2455 21.5153 53.7045 21.3893 54.1545 21.2363V19.4003H52.9575V18.5093H54.1545V16.9793H55.0815V18.5093H55.9905V19.4003H55.0815V20.8763C55.3875 20.7323 55.7025 20.5883 56.0085 20.4263ZM57.2235 21.3083V25.2863H56.3325V17.2403H60.5625C60.5625 18.3203 60.4995 19.0493 60.3825 19.4093C60.2565 19.7513 59.8875 19.9223 59.2755 19.9223H58.5915L58.3395 19.1213C58.4745 19.1213 58.6455 19.1303 58.8525 19.1303C59.0595 19.1303 59.2125 19.1213 59.3205 19.1033C59.4105 19.0763 59.4915 19.0223 59.5455 18.9323C59.5995 18.8153 59.6445 18.5363 59.6625 18.0863H57.2235V20.4533H60.6165V21.2633C60.4815 22.1723 60.2025 22.9553 59.7795 23.6033C60.1845 23.9543 60.6615 24.2783 61.2105 24.5753L60.5805 25.3043C60.0675 24.9803 59.6265 24.6383 59.2485 24.2783C58.8345 24.7013 58.3485 25.0433 57.7905 25.3133L57.3405 24.4853C57.8445 24.2423 58.2675 23.9363 58.6095 23.5763C58.0515 22.8743 57.7005 22.1183 57.5655 21.3083H57.2235ZM58.3935 21.3083C58.5105 21.8843 58.7535 22.4153 59.1225 22.9013C59.4015 22.4333 59.6085 21.9023 59.7345 21.3083H58.3935ZM69.0675 21.8213V25.2773H68.1135V24.8543H63.9195V25.2773H62.9655V21.8213H69.0675ZM63.9195 23.9723H68.1135V22.7033H63.9195V23.9723ZM63.6765 19.0133C63.3705 19.4183 63.0105 19.7873 62.6145 20.1203L62.0565 19.3823C62.8485 18.7433 63.3795 17.9603 63.6585 17.0423L64.5945 17.1503C64.4955 17.4923 64.3695 17.8073 64.2255 18.1133H65.6295V16.9433H66.5745V18.1133H69.4095V19.0133H66.5745V20.1743H70.1025V21.0923H61.8765V20.1743H65.6295V19.0133H63.6765Z" fill="#333333"/>
<path d="M39.4895 34.8413C42.8035 34.8413 46.0705 35.6256 49.0233 37.1302C51.9761 38.6347 54.5309 40.8167 56.4789 43.4978C58.4268 46.1789 59.7125 49.283 60.231 52.5562C60.7494 55.8294 60.4858 59.1788 59.4617 62.3307C58.4376 65.4825 56.6821 68.3472 54.3387 70.6905C51.9954 73.0339 49.1307 74.7894 45.9789 75.8135C42.827 76.8376 39.4776 77.1012 36.2044 76.5828C32.9312 76.0643 29.8271 74.7786 27.146 72.8307L31.54 66.7829C33.2667 68.0374 35.2658 68.8654 37.3738 69.1993C39.4818 69.5332 41.639 69.3634 43.6688 68.7039C45.6987 68.0444 47.5436 66.9138 49.0528 65.4046C50.562 63.8954 51.6926 62.0505 52.3521 60.0206C53.0116 57.9908 53.1814 55.8336 52.8475 53.7256C52.5136 51.6176 51.6856 49.6185 50.4311 47.8918C49.1766 46.1651 47.5312 44.7598 45.6295 43.7909C43.7278 42.8219 41.6238 42.3168 39.4895 42.3168V34.8413Z" fill="#FFE7C5"/>
<path d="M27.146 72.8307C23.5582 70.224 20.8877 66.5484 19.5173 62.3307C18.1469 58.113 18.1469 53.5697 19.5173 49.352C20.8877 45.1342 23.5582 41.4586 27.146 38.852C30.7338 36.2453 35.0547 34.8413 39.4895 34.8413V42.1047C36.5886 42.1047 33.7622 43.0231 31.4153 44.7282C29.0685 46.4333 27.3216 48.8376 26.4252 51.5965C25.5288 54.3554 25.5288 57.3272 26.4252 60.0862C27.3216 62.8451 29.0685 65.2494 31.4153 66.9545L27.146 72.8307Z" fill="#FEA522"/>
<rect opacity="0.4" x="68.4895" y="34.8413" width="80.5126" height="10" rx="2" fill="#FFEFD2"/>
<rect opacity="0.4" x="68.4895" y="50.8413" width="80.5126" height="10" rx="2" fill="#FFEFD2"/>
<rect opacity="0.4" x="68.4895" y="66.8413" width="35.255" height="10" rx="2" fill="#FFEFD2"/>
<path d="M34.4856 50.8529H35.7696V56.4689H37.0416V57.5849H35.7696V59.4209H34.4376V57.5849H30.2976V56.2529L34.4856 50.8529ZM34.4016 52.6289L31.4376 56.4689H34.4376V52.6289H34.4016ZM40.8649 50.6849C41.8609 50.6849 42.6409 51.0929 43.2049 51.9329C43.7329 52.7249 43.9969 53.7929 43.9969 55.1369C43.9969 56.4809 43.7329 57.5489 43.2049 58.3409C42.6409 59.1689 41.8609 59.5889 40.8649 59.5889C39.8569 59.5889 39.0769 59.1689 38.5249 58.3409C37.9969 57.5489 37.7329 56.4809 37.7329 55.1369C37.7329 53.7929 37.9969 52.7249 38.5249 51.9329C39.0769 51.0929 39.8569 50.6849 40.8649 50.6849ZM40.8649 51.8729C40.1809 51.8729 39.7009 52.2449 39.4249 53.0129C39.2329 53.5289 39.1369 54.2369 39.1369 55.1369C39.1369 56.0249 39.2329 56.7329 39.4249 57.2609C39.7009 58.0169 40.1809 58.4009 40.8649 58.4009C41.5369 58.4009 42.0169 58.0169 42.3049 57.2609C42.4969 56.7329 42.5929 56.0249 42.5929 55.1369C42.5929 54.2369 42.4969 53.5289 42.3049 53.0129C42.0169 52.2449 41.5369 51.8729 40.8649 51.8729ZM49.2408 56.9517C49.5944 56.9517 49.866 57.0717 50.0554 57.3243C50.2196 57.539 50.308 57.8295 50.308 58.1894C50.308 58.5431 50.2196 58.8336 50.0554 59.0546C49.866 59.2946 49.5944 59.4209 49.2408 59.4209C48.8871 59.4209 48.6092 59.2946 48.4198 59.0546C48.243 58.8273 48.1609 58.5431 48.1609 58.1894C48.1609 57.8295 48.243 57.539 48.4198 57.3243C48.6092 57.0717 48.8871 56.9517 49.2408 56.9517ZM48.5966 54.8235H49.146L46.6137 59.5093H46.0642L48.5966 54.8235ZM45.9822 54.9119C46.3358 54.9119 46.6073 55.0319 46.7968 55.2845C46.961 55.4992 47.0494 55.7897 47.0494 56.1497C47.0494 56.5033 46.961 56.7938 46.7968 57.0148C46.6073 57.2548 46.3358 57.3811 45.9822 57.3811C45.6285 57.3811 45.3506 57.2548 45.1612 57.0148C44.9844 56.7875 44.9023 56.5033 44.9023 56.1497C44.9023 55.7897 44.9844 55.4992 45.1612 55.2845C45.3506 55.0319 45.6285 54.9119 45.9822 54.9119ZM49.2408 57.4127C49.0829 57.4127 48.9692 57.4948 48.9061 57.659C48.8555 57.7853 48.8303 57.9621 48.8303 58.1894C48.8303 58.4105 48.8555 58.5873 48.9061 58.7136C48.9692 58.8778 49.0829 58.9599 49.2408 58.9599C49.3923 58.9599 49.4997 58.8715 49.5691 58.701C49.6133 58.5747 49.6386 58.4042 49.6386 58.1894C49.6386 57.9621 49.6133 57.7916 49.5628 57.6653C49.4997 57.4948 49.3923 57.4127 49.2408 57.4127ZM45.9822 55.3729C45.8243 55.3729 45.7106 55.455 45.6474 55.6192C45.5969 55.7455 45.5717 55.9223 45.5717 56.1497C45.5717 56.3707 45.5969 56.5475 45.6474 56.6738C45.7106 56.838 45.8243 56.9201 45.9822 56.9201C46.1337 56.9201 46.2411 56.8317 46.3105 56.6612C46.3547 56.5349 46.38 56.3644 46.38 56.1497C46.38 55.9223 46.3547 55.7518 46.3042 55.6255C46.2411 55.455 46.1337 55.3729 45.9822 55.3729Z" fill="#333333"/>
<path d="M18.4895 89.0514C18.4895 86.7262 20.3744 84.8413 22.6996 84.8413H144.792C147.117 84.8413 149.002 86.7262 149.002 89.0514V95.8413C149.002 98.1665 147.117 100.051 144.792 100.051H22.6996C20.3744 100.051 18.4895 98.1665 18.4895 95.8413V89.0514Z" fill="#F7F8FA"/>
<rect x="9.82434" y="70.8347" width="147.353" height="14.7353" fill="url(#paint0_linear_2562_12292)"/>
</g>
</g>
<path d="M8.84118 0V0.368382H158.159V0V-0.368382H8.84118V0ZM167 8.84118H166.632V76.6235H167H167.368V8.84118H167ZM158.159 85.4647V85.0963H8.84117V85.4647V85.8331H158.159V85.4647ZM0 76.6235H0.368382V8.84119H0H-0.368382V76.6235H0ZM8.84117 85.4647V85.0963C4.16178 85.0963 0.368382 81.3029 0.368382 76.6235H0H-0.368382C-0.368382 81.7098 3.75487 85.8331 8.84117 85.8331V85.4647ZM167 76.6235H166.632C166.632 81.3029 162.838 85.0963 158.159 85.0963V85.4647V85.8331C163.245 85.8331 167.368 81.7098 167.368 76.6235H167ZM158.159 0V0.368382C162.838 0.368382 166.632 4.16178 166.632 8.84118H167H167.368C167.368 3.75488 163.245 -0.368382 158.159 -0.368382V0ZM8.84118 0V-0.368382C3.75488 -0.368382 -0.368382 3.75489 -0.368382 8.84119H0H0.368382C0.368382 4.1618 4.16178 0.368382 8.84118 0.368382V0Z" fill="#FFEFD2" mask="url(#path-1-inside-1_2562_12292)"/>
<defs>
<linearGradient id="paint0_linear_2562_12292" x1="62.503" y1="85.57" x2="62.503" y2="70.8347" gradientUnits="userSpaceOnUse">
<stop stop-color="white"/>
<stop offset="1" stop-color="white" stop-opacity="0"/>
</linearGradient>
<clipPath id="clip0_2562_12292">
<path d="M0 8.84119C0 3.95834 3.95833 0 8.84118 0H158.159C163.042 0 167 3.95833 167 8.84118V76.6235C167 81.5064 163.042 85.4647 158.159 85.4647H8.84117C3.95832 85.4647 0 81.5064 0 76.6235V8.84119Z" fill="white"/>
</clipPath>
<clipPath id="clip1_2562_12292">
<path d="M10.0693 15.1564C10.0693 11.6687 12.8967 8.84131 16.3845 8.84131H151.107C154.595 8.84131 157.422 11.6687 157.422 15.1564V85.6753H10.0693V15.1564Z" fill="white"/>
</clipPath>
<clipPath id="clip2_2562_12292">
<rect width="12" height="12" fill="white" transform="translate(18.4895 14.8413)"/>
</clipPath>
</defs>
</svg>
