<svg width="110" height="110" viewBox="0 0 110 110" fill="none" xmlns="http://www.w3.org/2000/svg">
<g clip-path="url(#clip0_1131_949)">
<g opacity="0.65">
<path d="M28.5998 5.77539H79.091L89.925 16.0674V96.7998C89.925 101.508 86.1078 105.325 81.3996 105.325H28.5998C23.8917 105.325 20.0754 101.508 20.0754 96.7998V14.2998C20.0755 9.59173 23.8917 5.7755 28.5998 5.77539Z" fill="white" stroke="#EAEAEA" stroke-width="0.55"/>
<path d="M79.2 5.5V13.0149C79.2 14.8995 80.7755 16.4013 82.6579 16.3112L90.2 15.95L79.2 5.5Z" fill="#E7EDFD"/>
<rect x="26.4" y="19.8" width="26.4" height="5.5" rx="2" fill="url(#paint0_linear_1131_949)" fill-opacity="0.5"/>
<rect x="26.4" y="36.3" width="57.2" height="4.4" rx="1" fill="url(#paint1_linear_1131_949)" fill-opacity="0.8"/>
<rect x="26.4" y="42.9" width="57.2" height="12.1" rx="3" fill="url(#paint2_linear_1131_949)" fill-opacity="0.3"/>
<rect x="27.5" y="71.5" width="57.2" height="4.4" rx="2.2" fill="url(#paint3_linear_1131_949)"/>
<rect x="27.5" y="79.2001" width="57.2" height="4.4" rx="2.2" fill="url(#paint4_linear_1131_949)"/>
<rect x="27.5" y="86.9" width="20.24" height="4.4" rx="2.2" fill="url(#paint5_linear_1131_949)"/>
<rect x="26.4" y="27.5" width="57.2" height="2.2" rx="1" fill="url(#paint6_linear_1131_949)"/>
</g>
</g>
<defs>
<linearGradient id="paint0_linear_1131_949" x1="26.4" y1="22.55" x2="52.8" y2="22.55" gradientUnits="userSpaceOnUse">
<stop stop-color="#E7EDFD"/>
<stop offset="1" stop-color="#DCE9FF" stop-opacity="0.5"/>
</linearGradient>
<linearGradient id="paint1_linear_1131_949" x1="26.4" y1="38.5" x2="83.6" y2="38.5" gradientUnits="userSpaceOnUse">
<stop stop-color="#CEDBFF"/>
<stop offset="1" stop-color="#DCE9FF" stop-opacity="0.5"/>
</linearGradient>
<linearGradient id="paint2_linear_1131_949" x1="26.4" y1="48.95" x2="83.6" y2="48.95" gradientUnits="userSpaceOnUse">
<stop stop-color="#D6E1FF"/>
<stop offset="1" stop-color="#DCE9FF" stop-opacity="0.5"/>
</linearGradient>
<linearGradient id="paint3_linear_1131_949" x1="27.5" y1="73.7" x2="84.7" y2="73.7" gradientUnits="userSpaceOnUse">
<stop stop-color="#E7EDFD"/>
<stop offset="1" stop-color="white"/>
</linearGradient>
<linearGradient id="paint4_linear_1131_949" x1="27.5" y1="81.4001" x2="84.7" y2="81.4001" gradientUnits="userSpaceOnUse">
<stop stop-color="#E7EDFD"/>
<stop offset="1" stop-color="white"/>
</linearGradient>
<linearGradient id="paint5_linear_1131_949" x1="27.5" y1="89.1" x2="47.74" y2="89.1" gradientUnits="userSpaceOnUse">
<stop stop-color="#E7EDFD"/>
<stop offset="1" stop-color="white"/>
</linearGradient>
<linearGradient id="paint6_linear_1131_949" x1="26.4" y1="28.6" x2="83.6" y2="28.6" gradientUnits="userSpaceOnUse">
<stop stop-color="#E7EDFD"/>
<stop offset="1" stop-color="white"/>
</linearGradient>
<clipPath id="clip0_1131_949">
<rect width="110" height="110" fill="white"/>
</clipPath>
</defs>
</svg>
