<svg width="227" height="121" viewBox="0 0 227 121" fill="none" xmlns="http://www.w3.org/2000/svg">
<g clip-path="url(#clip0_7424_7416)">
<rect width="226.667" height="120.286" fill="#EBF2FF"/>
<g clip-path="url(#clip1_7424_7416)">
<path d="M13.3335 24.5714C13.3335 19.8376 17.1711 16 21.9049 16H204.762C209.496 16 213.333 19.8376 213.333 24.5714V120.286H13.3335V24.5714Z" fill="white"/>
<g clip-path="url(#clip2_7424_7416)">
<path d="M32.3809 40.6436L32.382 38.749C32.3822 38.6176 32.4887 38.5111 32.6202 38.5109C33.414 38.5109 34.2078 38.5109 35.0016 38.5109C35.221 38.5109 35.2198 38.3163 35.2198 37.853C35.2198 37.3896 34.0528 36.9994 34.0528 35.3705C34.0528 33.7416 35.2618 33.2627 36.2666 33.2627C37.2714 33.2627 38.3658 33.7416 38.3658 35.3705C38.3658 36.9994 37.2048 37.2584 37.2048 37.853C37.2048 38.4476 37.2048 38.5109 37.3907 38.5109C38.1811 38.5109 38.9715 38.5109 39.7619 38.5109C39.8934 38.5109 40 38.6176 40 38.749V40.6436H32.3809Z" stroke="#266EFF" stroke-width="0.952381" stroke-linejoin="round"/>
<path d="M32.3809 42.0723H39.9999" stroke="#266EFF" stroke-width="0.952381" stroke-linecap="round" stroke-linejoin="round"/>
</g>
<path d="M46.3908 34.5604C46.2365 34.7833 46.0651 34.9718 45.8936 35.1433H47.0079C47.0422 34.9547 47.0679 34.7661 47.0851 34.5604H46.3908ZM46.7508 35.9576H45.2165V35.1433H45.5936L45.1736 34.6204C45.5679 34.2776 45.9108 33.789 46.2108 33.1547L47.0165 33.3347C46.9565 33.489 46.8965 33.6433 46.8279 33.7804H49.1336V34.5604H47.9251C47.9079 34.7661 47.8908 34.9547 47.8651 35.1433H49.3736V35.9576H47.6851L47.6594 36.0347C48.2936 36.3604 48.8251 36.6776 49.2622 37.0033L48.7565 37.509H52.0479V41.2033H51.1393V40.8861H47.1793V41.2033H46.2793V37.7147C46.0736 37.8347 45.8593 37.9547 45.6365 38.0661L45.0365 37.3376C45.9108 36.9518 46.4851 36.489 46.7508 35.9576ZM47.1793 40.0976H51.1393V39.6004H47.1793V40.0976ZM47.1793 38.829H51.1393V38.2976H47.1793V38.829ZM46.5793 37.509H48.4822C48.1736 37.2347 47.8051 36.969 47.3679 36.6947C47.1708 36.9861 46.9051 37.2604 46.5793 37.509ZM49.6051 33.8061H52.6736V37.089H49.6051V33.8061ZM51.7994 36.309V34.5947H50.4794V36.309H51.7994ZM55.0222 38.3147V38.8718H56.7022V38.3147H55.0222ZM56.7022 37.5776V36.9861H55.0222V37.5776H56.7022ZM55.0222 39.609V41.1947H54.1565V36.2147H57.5679V40.1918C57.5679 40.8176 57.2765 41.1347 56.6936 41.1347H56.0336L55.8108 40.3033L56.4108 40.3461C56.5993 40.3461 56.7022 40.2261 56.7022 40.0033V39.609H55.0222ZM60.4651 37.0718H59.0679C58.4422 37.0718 58.1336 36.7204 58.1336 36.0261V33.2833H59.0165V34.2604C59.8736 34.1233 60.5765 33.9861 61.1251 33.8404L61.4165 34.629C60.7136 34.7833 59.9165 34.929 59.0165 35.0661V35.8461C59.0165 36.1204 59.1108 36.2661 59.3165 36.2661H60.2936C60.4136 36.2661 60.4993 36.2233 60.5593 36.1376C60.6193 36.0433 60.6622 35.769 60.6793 35.3061L61.5108 35.5804C61.4422 36.3004 61.3308 36.7376 61.1765 36.8747C61.0222 37.0033 60.7822 37.0718 60.4651 37.0718ZM59.0165 39.0604V40.0376C59.0165 40.1833 59.1108 40.2604 59.3079 40.2604H60.2936C60.4136 40.2604 60.5079 40.2176 60.5593 40.1318C60.6279 40.0376 60.6708 39.7633 60.6965 39.3004L61.5108 39.5576C61.4422 40.2861 61.3222 40.7147 61.1679 40.8518C61.0136 40.9804 60.7822 41.049 60.4651 41.049H59.0593C58.4422 41.049 58.1336 40.7747 58.1336 40.2347V37.3547H59.0165V38.2547C59.8051 38.169 60.5079 38.0318 61.1251 37.8433L61.4165 38.6404C60.6708 38.8376 59.8736 38.9747 59.0165 39.0604ZM56.9593 33.8404C57.4565 34.5176 57.8336 35.1004 58.1079 35.5976L57.3708 36.1204C57.2851 35.949 57.1908 35.769 57.0965 35.589C56.2051 35.7261 55.1422 35.8376 53.9165 35.9061L53.6765 35.1604C53.8308 35.109 53.9679 35.0404 54.0793 34.9376C54.5936 34.3376 54.9708 33.7633 55.2279 33.2318L56.0851 33.489C55.7422 34.1576 55.3565 34.6976 54.9193 35.1176C55.4851 35.0833 56.0851 35.0233 56.7193 34.9547C56.5822 34.7318 56.4279 34.509 56.2736 34.2776L56.9593 33.8404ZM64.1251 37.989V38.709H65.7708V37.989H64.1251ZM65.7708 39.5233H64.1251V39.969H63.2508V35.649H65.7708V34.9461H66.6622V35.649H69.2079V39.9433H68.3336V39.5233H66.6622V41.2118H65.7708V39.5233ZM66.6622 38.709H68.3336V37.989H66.6622V38.709ZM68.3336 37.209V36.4718H66.6622V37.209H68.3336ZM65.7708 36.4718H64.1251V37.209H65.7708V36.4718ZM69.8593 33.8061V35.469H68.9851V34.6204H63.3622V35.5118H62.4879V33.8061H65.6679C65.5993 33.6347 65.5222 33.4718 65.4451 33.3176L66.3965 33.1633C66.4651 33.3518 66.5336 33.5661 66.6022 33.8061H69.8593ZM72.8508 37.1404V41.1776H71.9851V37.3804C71.7451 38.0576 71.4622 38.6833 71.1193 39.2661L70.7422 38.3404C71.2908 37.569 71.6936 36.6776 71.9508 35.6833H70.8965V34.8347H71.9851V33.2576H72.8508V34.8347H73.7679V35.6833H72.8508V36.1204C73.2279 36.5318 73.6222 37.0033 74.0165 37.5176L73.5108 38.289C73.2536 37.8347 73.0393 37.449 72.8508 37.1404ZM73.9051 34.0976H75.8936C75.7822 33.8404 75.6622 33.6004 75.5336 33.3861L76.4508 33.2318C76.5622 33.489 76.6651 33.7804 76.7679 34.0976H78.6193V34.9118H76.2708C75.8765 35.5976 75.5251 36.1033 75.2165 36.4461C75.6536 36.4204 76.0908 36.3861 76.5193 36.3518C76.7251 36.0604 76.9051 35.7518 77.0765 35.4261L77.7965 35.8118C76.9393 37.5176 75.6879 38.6747 74.0336 39.2918L73.5451 38.5547C74.4622 38.2376 75.2422 37.7576 75.8851 37.1061L74.2222 37.1833L74.0422 36.4633C74.1193 36.4376 74.1708 36.4118 74.2051 36.3861C74.5051 36.1976 74.8908 35.7004 75.3536 34.9118H73.9051V34.0976ZM76.6908 39.5661C75.8936 40.269 74.9679 40.809 73.9222 41.1776L73.4251 40.4147C75.4051 39.7718 76.8879 38.529 77.8651 36.6947L78.6108 37.0804C78.2165 37.8176 77.7622 38.469 77.2479 39.0261C77.8136 39.5233 78.3108 40.029 78.7222 40.5261L78.0708 41.1776C77.7279 40.6633 77.2736 40.1318 76.6908 39.5661ZM84.2765 37.4061C84.3793 36.4033 84.4479 35.5118 84.4993 34.7404L85.1851 34.8176C85.1336 35.4861 85.0736 36.0776 85.0222 36.5918H85.4336C85.5193 35.9918 85.5708 35.349 85.5793 34.6718V34.3033H84.2936V33.5147H86.9936V34.3033H86.3165V34.6718C86.3079 35.3576 86.2651 35.9918 86.1793 36.5918H87.0708V37.4061H86.0422C85.9993 37.5947 85.9565 37.7747 85.9136 37.9461H86.3336V40.2347C86.3336 40.2947 86.3679 40.3376 86.4365 40.3547H86.5479C86.6679 40.3376 86.7365 40.2347 86.7451 40.0461C86.7622 39.849 86.7708 39.5747 86.7708 39.2318L87.3708 39.4718C87.3708 40.1833 87.3193 40.6204 87.2251 40.7833C87.1308 40.929 86.9165 41.0147 86.5822 41.0404H86.4108C85.8622 41.0404 85.5965 40.8176 85.5965 40.3804V38.9233C85.2365 39.8404 84.7393 40.5947 84.1136 41.1947L83.4622 40.6118C83.6336 40.4576 83.7965 40.2947 83.9422 40.1233C83.8822 39.969 83.8222 39.8061 83.7536 39.6518C83.2308 39.9947 82.6051 40.329 81.8765 40.6461L81.6708 39.8833C81.8251 39.8147 81.9022 39.7204 81.9022 39.5918V37.5433L81.5251 38.109C81.3708 37.7747 81.2422 37.4918 81.1222 37.2518V41.1947H80.3165V37.4918C80.1279 38.0747 79.9136 38.6147 79.6651 39.1204L79.2965 38.1861C79.7679 37.4318 80.1108 36.5747 80.3165 35.5976V35.5718H79.4851V34.749H80.3165V33.2576H81.1222V34.749H81.6879V35.5718H81.1222V36.1976C81.3879 36.549 81.6451 36.9176 81.9022 37.3118V33.5147H84.0622V37.8261H82.6736V39.4461C82.9308 39.309 83.1879 39.1547 83.4451 38.9833C83.3422 38.769 83.2308 38.5547 83.1193 38.3404L83.7108 37.9633C84.0108 38.5033 84.2593 38.9918 84.4479 39.429C84.8079 38.829 85.0822 38.1604 85.2708 37.4061H84.2765ZM82.6736 36.009V37.089H83.3079V36.009H82.6736ZM83.3079 35.2718V34.2518H82.6736V35.2718H83.3079ZM88.0822 33.5147H95.7279V34.3204H93.2936V34.8861H95.2222V37.2004H91.7336L91.4251 37.7404H95.8308V38.5633H94.0565C93.8936 38.9918 93.6279 39.3604 93.2679 39.6861C94.0736 39.9261 94.8879 40.2004 95.7279 40.5176L95.1708 41.2547C94.2708 40.8776 93.3708 40.5347 92.4708 40.2433C91.6651 40.6547 90.3536 40.9804 88.5193 41.229L88.1851 40.4233C89.4879 40.2861 90.5079 40.0976 91.2622 39.8661C90.6193 39.6776 89.9851 39.5147 89.3508 39.369C89.5393 39.0947 89.7193 38.829 89.8908 38.5633H87.9708V37.7404H90.4051C90.5079 37.5518 90.6193 37.3718 90.7222 37.2004H88.5879V34.8861H90.5165V34.3204H88.0822V33.5147ZM92.3079 39.4118C92.6851 39.1718 92.9593 38.889 93.1308 38.5633H90.9193C90.8079 38.7261 90.7051 38.8718 90.6193 39.009C91.1679 39.1204 91.7336 39.2576 92.3079 39.4118ZM92.4451 34.8861V34.3204H91.3651V34.8861H92.4451ZM94.3651 36.4461V35.6404H93.2936V36.4461H94.3651ZM92.4451 36.4461V35.6404H91.3651V36.4461H92.4451ZM90.5165 36.4461V35.6404H89.4451V36.4461H90.5165Z" fill="#333333"/>
<path d="M151.619 34.9283C151.619 32.5614 153.538 30.6426 155.905 30.6426H191.905C194.272 30.6426 196.191 32.5614 196.191 34.9283V40.6426C196.191 43.0095 194.272 44.9283 191.905 44.9283H155.905C153.538 44.9283 151.619 43.0095 151.619 40.6426V34.9283Z" fill="#EBF2FF"/>
<path d="M156.995 34.1566H159.326C159.438 33.8566 159.541 33.5566 159.626 33.248L160.252 33.3252C160.166 33.608 160.081 33.8823 159.986 34.1566H164.375V34.7566H159.755C159.438 35.4937 159.044 36.1709 158.581 36.788V41.1509H157.981V37.5252C157.689 37.8423 157.389 38.1423 157.064 38.4337L156.678 37.9452C157.724 37.028 158.521 35.9652 159.078 34.7566H156.995V34.1566ZM159.249 38.1423H161.735V37.3452C162.224 37.0709 162.686 36.7537 163.132 36.3766H159.909V35.8023H163.921V36.3766C163.458 36.8052 162.935 37.2166 162.352 37.6023V38.1423H164.495V38.7337H162.352V40.3537C162.352 40.8594 162.095 41.1166 161.589 41.1166H160.518L160.355 40.5337C160.664 40.5423 160.989 40.5509 161.341 40.5509C161.598 40.5509 161.735 40.4137 161.735 40.1566V38.7337H159.249V38.1423ZM166.364 37.2766C166.158 37.7052 165.935 38.0909 165.678 38.4166L165.326 38.0137C165.704 37.5337 166.012 36.8994 166.261 36.1194L166.758 36.2394C166.698 36.4109 166.638 36.5823 166.586 36.7366H168.824V37.2766H167.735V37.8252C167.735 37.9623 167.726 38.0909 167.709 38.2109H168.926V38.7337H167.632C167.598 38.9052 167.546 39.0594 167.495 39.2137C167.958 39.4623 168.378 39.7537 168.755 40.088L168.455 40.5509C168.078 40.1909 167.692 39.908 167.306 39.6852C167.032 40.2337 166.646 40.7394 166.141 41.1852L165.704 40.8166C166.424 40.2166 166.878 39.5223 167.066 38.7337H165.918V38.2109H167.152C167.161 38.0737 167.169 37.9452 167.169 37.8252V37.2766H166.364ZM170.049 34.5766C170.341 34.748 170.624 34.9109 170.881 35.0823C171.206 34.8166 171.532 34.4994 171.858 34.1309H169.364V33.608H172.569V34.0709C172.209 34.568 171.806 35.0052 171.352 35.3994C171.601 35.5709 171.832 35.7423 172.038 35.9137L171.884 36.068H172.878V36.5052C172.638 36.9852 172.364 37.3966 172.064 37.7309L171.644 37.4052C171.866 37.1652 172.072 36.8994 172.261 36.5909H171.249V38.0909H172.561V38.6052H171.249V40.3366C171.515 40.4137 171.858 40.4566 172.269 40.4566C172.552 40.4566 172.818 40.4394 173.058 40.4223L172.938 41.0223C171.892 41.0223 171.189 40.928 170.829 40.7566C170.435 40.5766 170.084 40.1909 169.784 39.5909C169.621 40.2766 169.381 40.808 169.064 41.168L168.609 40.808C169.184 40.208 169.475 39.0509 169.492 37.3366H170.015C170.006 37.9109 169.972 38.4252 169.912 38.8794C170.135 39.4109 170.401 39.7966 170.701 40.0366V36.5909H169.038V36.068H171.369C170.924 35.708 170.358 35.3309 169.672 34.9366L170.049 34.5766ZM166.526 34.7223V35.1852C166.526 35.3566 166.655 35.4423 166.912 35.4423H167.812C167.966 35.4423 168.086 35.4252 168.181 35.3909C168.309 35.3394 168.395 35.1166 168.429 34.7052L168.969 34.8852C168.901 35.3994 168.798 35.6994 168.652 35.8023C168.515 35.888 168.284 35.9309 167.941 35.9309H166.749C166.492 35.9309 166.295 35.8709 166.158 35.768C166.021 35.648 165.952 35.4937 165.952 35.3137V33.2994H166.526V34.208C167.298 34.0794 167.984 33.8652 168.601 33.5737L168.789 34.0794C168.138 34.3623 167.384 34.5766 166.526 34.7223ZM174.969 34.7223H173.949V34.1223H176.598V34.7223H175.604V38.5966C175.972 38.468 176.324 38.3394 176.658 38.2023V38.8194C175.904 39.1366 175.029 39.428 174.035 39.6937L173.855 39.0852C174.241 38.9909 174.609 38.8966 174.969 38.7937V34.7223ZM176.924 33.6509H181.672V34.2509H179.624C179.572 34.5766 179.512 34.8766 179.444 35.168H181.261V39.1966H180.661V35.7337H177.909V39.1966H177.318V35.168H178.826C178.912 34.8766 178.972 34.568 179.015 34.2509H176.924V33.6509ZM179.984 39.2137C180.686 39.728 181.286 40.2423 181.766 40.7566L181.321 41.2023C180.892 40.7052 180.309 40.1737 179.572 39.608L179.984 39.2137ZM178.938 36.2823H179.555V37.7566C179.521 38.6823 179.281 39.4194 178.818 39.9766C178.364 40.4823 177.626 40.8852 176.598 41.1766L176.264 40.6452C177.258 40.3794 177.961 40.0194 178.355 39.5737C178.715 39.1109 178.912 38.5023 178.938 37.7566V36.2823ZM184.192 36.5737C184.364 36.5737 184.509 36.6337 184.629 36.7537C184.749 36.8737 184.818 37.028 184.818 37.1994C184.818 37.3709 184.749 37.5166 184.629 37.6366C184.509 37.7566 184.364 37.8166 184.192 37.8166C184.021 37.8166 183.875 37.7566 183.755 37.6366C183.626 37.5166 183.566 37.3709 183.566 37.1994C183.566 37.028 183.626 36.8737 183.755 36.7537C183.875 36.6337 184.021 36.5737 184.192 36.5737ZM188.966 34.0452C189.549 34.0452 190.029 34.1909 190.389 34.4909C190.741 34.7909 190.921 35.1937 190.921 35.708C190.921 36.3937 190.586 36.8566 189.918 37.0794C190.278 37.1909 190.552 37.3623 190.741 37.6023C190.946 37.8423 191.049 38.1423 191.049 38.5023C191.049 39.0594 190.852 39.5137 190.466 39.8652C190.072 40.2252 189.558 40.4052 188.924 40.4052C188.341 40.4052 187.869 40.2509 187.501 39.9594C187.064 39.5994 186.824 39.0766 186.772 38.3909H187.484C187.501 38.8709 187.664 39.2394 187.964 39.488C188.221 39.6937 188.538 39.8052 188.924 39.8052C189.361 39.8052 189.712 39.6766 189.978 39.428C190.218 39.188 190.346 38.888 190.346 38.528C190.346 38.1594 190.226 37.8766 189.986 37.6709C189.746 37.4652 189.421 37.3709 188.992 37.3709H188.495V36.8223H188.966C189.378 36.8223 189.686 36.728 189.901 36.548C190.115 36.3594 190.226 36.0937 190.226 35.7509C190.226 35.408 190.115 35.1423 189.909 34.9537C189.686 34.748 189.369 34.6537 188.975 34.6537C188.564 34.6537 188.246 34.7566 188.015 34.9794C187.775 35.2023 187.638 35.5194 187.595 35.9309H186.901C186.952 35.3394 187.175 34.8766 187.552 34.5423C187.912 34.208 188.384 34.0452 188.966 34.0452Z" fill="#266EFF"/>
<path d="M24.7622 59.5717C24.7622 56.4158 27.3206 53.8574 30.4765 53.8574H196.191C199.347 53.8574 201.905 56.4158 201.905 59.5717V68.8574C201.905 72.0133 199.347 74.5717 196.191 74.5717H30.4765C27.3206 74.5717 24.7622 72.0133 24.7622 68.8574V59.5717Z" fill="#F7F8FA"/>
<path d="M31.6766 59.8234C32.1908 60.192 32.6194 60.5606 32.9708 60.9291L32.5337 61.3663C32.2166 61.0148 31.788 60.6463 31.2394 60.252L31.6766 59.8234ZM31.4108 61.8806C31.9594 62.3006 32.4137 62.7206 32.7908 63.1406L32.3451 63.5777C32.0194 63.1834 31.5566 62.7548 30.9651 62.3091L31.4108 61.8806ZM32.2594 64.2634L32.7994 64.4777C32.4566 65.5406 32.0794 66.5348 31.6508 67.4691L31.0851 67.2206C31.5394 66.2606 31.9337 65.2748 32.2594 64.2634ZM35.5337 59.712H36.1337V60.252H38.4137V60.7663H36.1337V61.332H38.088V61.8291H36.1337V62.412H38.6537V62.9263H33.0394V62.412H35.5337V61.8291H33.6651V61.332H35.5337V60.7663H33.3137V60.252H35.5337V59.712ZM34.4023 65.1034V65.712H37.2908V65.1034H34.4023ZM37.2908 64.6234V63.9891H34.4023V64.6234H37.2908ZM34.4023 66.1834V67.572H33.8194V63.4834H37.8908V66.8177C37.8908 67.2806 37.6594 67.5206 37.2051 67.5206H36.3823L36.228 66.972L37.0251 66.9977C37.1966 66.9977 37.2908 66.8948 37.2908 66.6891V66.1834H34.4023ZM40.3423 61.0491H44.0366C44.3108 60.6206 44.5594 60.1491 44.7737 59.652L45.3737 59.8663C45.168 60.3034 44.9366 60.6977 44.6794 61.0491H46.3251V64.572H43.6423V65.3863H47.1394V65.9691H43.6423V67.5977H43.0251V65.9691H39.528V65.3863H43.0251V64.572H40.3423V61.0491ZM45.7251 64.0234V63.0634H43.6423V64.0234H45.7251ZM43.0251 64.0234V63.0634H40.9423V64.0234H43.0251ZM40.9423 62.532H43.0251V61.5891H40.9423V62.532ZM43.6423 61.5891V62.532H45.7251V61.5891H43.6423ZM41.8594 59.6948C42.1423 60.0206 42.408 60.3891 42.6651 60.7834L42.1508 61.0406C41.8937 60.6291 41.628 60.2691 41.3366 59.9434L41.8594 59.6948ZM51.1508 62.6006H55.6423V63.1406H53.6366V63.8177H55.548V66.8863C55.548 67.2806 55.3594 67.4777 54.9823 67.4777H54.288L54.1594 66.9977L54.7937 67.0148C54.948 67.0148 55.0251 66.9206 55.0251 66.732V64.3148H53.6366V67.4434H53.1051V64.3148H51.7594V67.4948H51.2537V63.8177H53.1051V63.1406H51.1508V62.6006ZM52.2394 64.6148C52.5308 64.8548 52.7794 65.0948 52.9851 65.3348L52.6937 65.6263C52.5051 65.4034 52.2566 65.1548 51.9394 64.8977L52.2394 64.6148ZM54.0994 65.6691C54.3908 65.9091 54.6308 66.1491 54.8366 66.3891L54.5451 66.6806C54.3651 66.4491 54.1166 66.2091 53.808 65.952L54.0994 65.6691ZM52.2308 65.7634C52.5137 66.0034 52.7537 66.252 52.9508 66.5006L52.6594 66.792C52.488 66.552 52.2394 66.3034 51.9308 66.0463L52.2308 65.7634ZM54.1337 64.6234C54.4337 64.8463 54.6908 65.0691 54.8966 65.3006L54.6051 65.592C54.4166 65.3777 54.1594 65.1463 53.8423 64.9063L54.1337 64.6234ZM48.6908 59.8406C49.2051 60.2263 49.6337 60.612 49.9851 60.9891L49.5737 61.4006C49.2566 61.032 48.828 60.6377 48.288 60.2177L48.6908 59.8406ZM48.3908 61.9234C48.9051 62.3091 49.3423 62.6948 49.7023 63.0806L49.2823 63.5006C48.9651 63.1234 48.528 62.7291 47.9794 62.3091L48.3908 61.9234ZM49.0508 64.2206L49.5823 64.4348C49.2908 65.4977 48.9737 66.5091 48.6223 67.452L48.0566 67.2034C48.4423 66.2348 48.7766 65.2406 49.0508 64.2206ZM54.8366 60.5691H50.9366V61.4091H54.8366V60.5691ZM50.9366 61.932V63.2348C50.928 64.932 50.6023 66.3891 49.9594 67.6063L49.5051 67.1863C50.0708 66.1663 50.3623 64.8463 50.3708 63.2348V60.0377H55.4108V61.932H50.9366ZM57.6823 61.152H56.6623V60.552H59.3108V61.152H58.3166V65.0263C58.6851 64.8977 59.0366 64.7691 59.3708 64.632V65.2491C58.6166 65.5663 57.7423 65.8577 56.748 66.1234L56.568 65.5148C56.9537 65.4206 57.3223 65.3263 57.6823 65.2234V61.152ZM59.6366 60.0806H64.3851V60.6806H62.3366C62.2851 61.0063 62.2251 61.3063 62.1566 61.5977H63.9737V65.6263H63.3737V62.1634H60.6223V65.6263H60.0308V61.5977H61.5394C61.6251 61.3063 61.6851 60.9977 61.728 60.6806H59.6366V60.0806ZM62.6966 65.6434C63.3994 66.1577 63.9994 66.672 64.4794 67.1863L64.0337 67.632C63.6051 67.1348 63.0223 66.6034 62.2851 66.0377L62.6966 65.6434ZM61.6508 62.712H62.268V64.1863C62.2337 65.112 61.9937 65.8491 61.5308 66.4063C61.0766 66.912 60.3394 67.3148 59.3108 67.6063L58.9766 67.0748C59.9708 66.8091 60.6737 66.4491 61.068 66.0034C61.428 65.5406 61.6251 64.932 61.6508 64.1863V62.712ZM65.2766 61.392H66.348V59.7206H66.9566V61.392H67.8394V61.9834H66.9566V62.4206C67.2994 62.7977 67.6508 63.2263 68.0108 63.7063L67.6594 64.2291C67.3851 63.7406 67.1537 63.3377 66.9566 63.0291V67.5291H66.348V63.3206C66.0737 64.1777 65.7308 64.9491 65.3023 65.652L65.0366 64.9748C65.6366 64.1006 66.0737 63.1063 66.3308 61.9834H65.2766V61.392ZM69.0994 62.2148C68.7737 62.5577 68.4394 62.8491 68.0794 63.1063L67.7451 62.5834C68.7566 61.8548 69.5451 60.9034 70.0937 59.7291H70.6594C71.1223 60.8091 71.9108 61.752 73.0337 62.5663L72.6994 63.0891C72.3308 62.8234 71.9966 62.5406 71.7051 62.2406V62.7634H69.0994V62.2148ZM71.6623 62.1977C71.1223 61.6406 70.6937 61.0234 70.3766 60.3377C69.9994 61.0663 69.5794 61.6834 69.1166 62.1977H71.6623ZM67.9423 66.7148H70.908C71.2594 65.7977 71.568 64.6748 71.8337 63.3377L72.4251 63.492C72.1851 64.7006 71.8766 65.772 71.5166 66.7148H72.8537V67.3148H67.9423V66.7148ZM68.9023 63.5691C69.1423 64.2891 69.348 65.1206 69.528 66.0634L68.988 66.2091C68.8166 65.352 68.6108 64.5377 68.3708 63.7491L68.9023 63.5691ZM70.2223 63.2606C70.4451 63.9548 70.6423 64.752 70.8137 65.652L70.248 65.7977C70.1023 64.9748 69.9137 64.1863 69.6908 63.432L70.2223 63.2606ZM75.0737 62.9263H80.1994V66.0806H75.0737V62.9263ZM79.5994 65.532V64.7777H75.6737V65.532H79.5994ZM75.6737 64.2548H79.5994V63.4748H75.6737V64.2548ZM74.1137 60.4834H77.3366V59.6948H77.9366V60.4834H81.1594V61.0491H78.528C79.1708 61.6748 80.1651 62.172 81.5194 62.532L81.2537 63.0891C79.7108 62.5663 78.6223 61.8891 77.988 61.0491H77.9366V62.652H77.3366V61.0491H77.2851C76.6166 61.872 75.528 62.5577 74.028 63.0977L73.7023 62.5491C75.0737 62.1548 76.0937 61.6491 76.7623 61.0491H74.1137V60.4834ZM73.9423 66.7491H81.3051V67.3234H73.9423V66.7491Z" fill="#999999"/>
<path d="M160.477 64.2151C160.477 63.0317 161.436 62.0723 162.619 62.0723V62.0723C163.803 62.0723 164.762 63.0317 164.762 64.2151V64.2151C164.762 65.3986 163.803 66.358 162.619 66.358V66.358C161.436 66.358 160.477 65.3986 160.477 64.2151V64.2151Z" fill="#FF4C4C"/>
<path d="M175.896 60.0463V62.0606H170.985V62.6348C170.985 62.9263 171.131 63.072 171.422 63.072H175.948C176.128 63.0634 176.256 63.0034 176.325 62.9006C176.385 62.8063 176.428 62.5748 176.462 62.2148L177.019 62.3948C176.985 62.7891 176.925 63.0634 176.848 63.2348C176.728 63.492 176.479 63.6206 176.119 63.6291H171.199C170.651 63.6291 170.376 63.3634 170.376 62.8491V60.0463H175.896ZM170.985 61.5034H175.296V60.6034H170.985V61.5034ZM169.425 64.9063H171.628C171.636 64.6748 171.645 64.3577 171.645 63.9548H172.262C172.262 64.392 172.254 64.7091 172.245 64.9063H174.499V63.9634H175.116V64.9063H177.259V65.4634H175.116V67.5206H174.499V65.4634H172.168C171.954 66.492 171.319 67.1948 170.274 67.5548L169.948 67.0234C170.856 66.7663 171.396 66.2434 171.568 65.4634H169.425V64.9063ZM181.588 64.1091H179.702V62.2234H184.125V64.1091H182.222V64.7948H184.948V66.3548C184.948 66.8691 184.682 67.1263 184.168 67.1263H183.482L183.319 66.5348L183.971 66.5606C184.211 66.5606 184.339 66.4406 184.339 66.2177V65.3606H182.222V67.5891H181.588V65.3606H179.514V67.1777H178.905V64.7948H181.588V64.1091ZM181.588 59.6691H182.222V60.9806H183.311C183.576 60.6034 183.808 60.2091 183.996 59.7891L184.571 60.0034C184.374 60.3806 184.168 60.7063 183.962 60.9806H185.471V62.712H184.836V61.5634H178.974V62.7206H178.339V60.9806H179.736C179.574 60.6548 179.376 60.3463 179.154 60.0634L179.736 59.8491C179.959 60.1663 180.165 60.5434 180.345 60.9806H181.588V59.6691ZM183.534 63.5863V62.7463H180.302V63.5863H183.534ZM188.334 63.0034C188.505 63.0034 188.651 63.0634 188.771 63.1834C188.891 63.3034 188.959 63.4577 188.959 63.6291C188.959 63.8006 188.891 63.9463 188.771 64.0663C188.651 64.1863 188.505 64.2463 188.334 64.2463C188.162 64.2463 188.016 64.1863 187.896 64.0663C187.768 63.9463 187.708 63.8006 187.708 63.6291C187.708 63.4577 187.768 63.3034 187.896 63.1834C188.016 63.0634 188.162 63.0034 188.334 63.0034ZM193.134 60.4748C193.699 60.4748 194.162 60.6377 194.531 60.9634C194.891 61.2891 195.079 61.7263 195.079 62.2577C195.079 62.7891 194.874 63.2691 194.479 63.6977C194.265 63.9206 193.845 64.2548 193.211 64.6834C192.431 65.2063 191.985 65.6777 191.874 66.0891H195.088V66.7148H191.008C191.008 66.1577 191.205 65.652 191.616 65.1977C191.856 64.9234 192.294 64.5548 192.945 64.1091C193.425 63.7663 193.742 63.5177 193.905 63.3463C194.214 63.012 194.376 62.6434 194.376 62.2491C194.376 61.872 194.265 61.5891 194.042 61.3834C193.819 61.1777 193.502 61.0748 193.108 61.0748C192.688 61.0748 192.362 61.212 192.139 61.5034C191.899 61.7777 191.771 62.1891 191.762 62.7291H191.059C191.059 62.0434 191.256 61.4948 191.634 61.092C192.011 60.6806 192.516 60.4748 193.134 60.4748Z" fill="#FF4C4C"/>
<path d="M24.7622 86.0004C24.7622 82.8445 27.3206 80.2861 30.4765 80.2861H196.191C199.347 80.2861 201.905 82.8445 201.905 86.0004V95.2861C201.905 98.442 199.347 101 196.191 101H30.4765C27.3206 101 24.7622 98.442 24.7622 95.2861V86.0004Z" fill="#F7F8FA"/>
<path d="M34.8908 90.075H38.1823V92.7407H34.8908V90.075ZM37.6166 92.2007V90.6236H35.4394V92.2007H37.6166ZM31.1966 87.2978H32.4994V86.1321H33.0908V87.2978H34.3766V87.8464H33.0908V89.115H34.3594V89.6807H33.2623V90.8893H34.368V91.455H33.2623V92.9464C33.3137 92.9721 33.3566 92.9893 33.3994 93.0064C33.9051 93.1778 35.0708 93.2721 36.888 93.2721C37.6766 93.2636 38.268 93.255 38.6537 93.2378L38.5508 93.855H37.0251C34.8908 93.855 33.5537 93.7264 33.0223 93.4864C32.5594 93.2721 32.1394 92.895 31.7794 92.355C31.6594 92.9378 31.5051 93.4778 31.2994 93.9836L30.8537 93.5807C31.2308 92.5864 31.4451 91.4636 31.4794 90.2293L32.0108 90.2893C31.9937 90.735 31.9594 91.1636 31.908 91.575C32.1308 91.995 32.388 92.3293 32.6794 92.5778V89.6807H31.0937V89.115H32.4994V87.8464H31.1966V87.2978ZM35.8508 87.1264H34.668V86.5607H38.3023C38.3023 88.0178 38.2166 88.8921 38.0537 89.1836C37.8994 89.475 37.6251 89.6207 37.2308 89.6207C37.0594 89.6207 36.8623 89.6036 36.6223 89.5864L36.468 89.0464L37.0937 89.0893C37.3594 89.0807 37.5223 88.9693 37.5908 88.755C37.6594 88.5493 37.7023 88.0093 37.7108 87.1264H36.4251C36.3137 87.735 36.168 88.215 35.9794 88.575C35.7394 88.995 35.388 89.3721 34.9251 89.6978L34.5223 89.1921C34.9337 88.9178 35.2423 88.6178 35.448 88.2921C35.628 87.9921 35.7651 87.6064 35.8508 87.1264ZM39.768 86.4836H42.3994V86.9807C42.1423 87.7521 41.8337 88.5493 41.4737 89.3893C42.0223 90.1436 42.3223 90.8293 42.3566 91.4464C42.3566 91.815 42.2623 92.0807 42.0908 92.2436C41.8508 92.4407 41.4223 92.5436 40.8051 92.5521L40.5994 91.9264C40.7366 91.9436 40.848 91.9607 40.9337 91.9607C41.2508 91.9436 41.4651 91.9007 41.5766 91.8321C41.6794 91.755 41.7394 91.6264 41.7394 91.4464C41.7394 90.8636 41.4394 90.2036 40.8394 89.4836C41.2423 88.5921 41.5594 87.7864 41.7823 87.075H40.368V94.0093H39.768V86.4836ZM43.4108 88.6264V89.595H45.9394V88.6264H43.4108ZM45.9394 88.0607V87.075H43.4108V88.0607H45.9394ZM44.3966 90.1607H43.4108V93.0921C43.9251 92.9378 44.4394 92.7407 44.9451 92.5093L45.0823 93.0836C44.4651 93.3493 43.6937 93.6064 42.7594 93.855L42.6137 93.3236C42.7337 93.2807 42.8023 93.2121 42.8023 93.1264V86.4921H46.5394V90.1607H44.9537C45.0566 90.6664 45.228 91.1378 45.4766 91.5664C45.888 91.335 46.2908 90.9921 46.6766 90.5293L47.0794 90.9321C46.6851 91.395 46.248 91.755 45.7594 92.0036C46.1537 92.5436 46.668 93.0064 47.3194 93.3921L46.9766 93.9321C45.5537 93.0236 44.688 91.7636 44.3966 90.1607ZM49.0508 89.115C48.7766 89.5178 48.468 89.9036 48.1423 90.2636L47.9366 89.6121C48.7766 88.6007 49.3937 87.4436 49.7708 86.1407L50.3537 86.4064C50.1737 86.9807 49.9508 87.5293 49.6851 88.0521V93.975H49.0508V89.115ZM53.688 89.1407H54.288V93.9236H53.688V89.1407ZM51.4851 89.1664H52.0766V90.4607C52.0594 92.0807 51.6394 93.2636 50.8166 94.0178L50.3537 93.615C51.0908 92.9636 51.468 91.9093 51.4851 90.4607V89.1664ZM52.5737 86.1836H53.1308C53.6623 87.3321 54.588 88.335 55.8908 89.2007L55.5394 89.7236C54.3394 88.9264 53.4394 87.9407 52.848 86.775C52.1623 88.0864 51.3051 89.0978 50.268 89.8178L49.9251 89.295C51.0737 88.4978 51.9566 87.4607 52.5737 86.1836ZM59.0794 88.1036C59.5766 88.7207 60.0394 89.3121 60.4594 89.8778C60.8023 89.235 61.0766 88.5407 61.2823 87.8036L61.8908 87.9064C61.6337 88.8321 61.2908 89.6721 60.8623 90.4264C61.3851 91.1636 61.8308 91.8493 62.1994 92.475L61.6423 92.8521C61.2994 92.2607 60.9223 91.6436 60.4937 91.0093C59.9623 91.7807 59.3366 92.4407 58.5994 92.9978L58.188 92.475C58.9508 91.8921 59.5937 91.2236 60.108 90.4521C59.6451 89.7921 59.1308 89.115 58.5737 88.4121L59.0794 88.1036ZM57.5537 86.4836H63.0994V89.9121C63.0994 91.3178 63.1423 92.2178 63.2451 92.6121C63.3394 92.9978 63.4508 93.195 63.588 93.195C63.6994 93.195 63.7937 92.8007 63.8708 92.0207L64.4194 92.2864C64.3166 92.9293 64.2051 93.3664 64.0851 93.6064C63.9566 93.8121 63.8108 93.915 63.6566 93.915C63.2451 93.915 62.9537 93.6407 62.7651 93.1093C62.5594 92.5864 62.4651 91.5236 62.4651 89.9121V87.0836H58.1708V89.8093C58.1537 91.4721 57.8023 92.8693 57.1251 94.0007L56.6108 93.5807C57.2108 92.5778 57.528 91.3178 57.5537 89.8093V86.4836ZM65.4908 86.5093H68.028V86.9807C67.7708 87.7521 67.4708 88.5664 67.128 89.4064C67.6594 90.1693 67.9423 90.8636 67.9851 91.4807C67.9851 91.8321 67.8994 92.0893 67.728 92.2521C67.488 92.4407 67.0851 92.5436 66.5108 92.5521L66.3137 91.935C66.4423 91.9521 66.5537 91.9693 66.6394 91.9693C66.9308 91.9521 67.1366 91.9093 67.2394 91.8407C67.3337 91.7721 67.3851 91.6521 67.3851 91.4807C67.3851 90.8893 67.0937 90.2293 66.5194 89.5007C66.9051 88.6093 67.2051 87.795 67.4194 87.075H66.0908V94.0093H65.4908V86.5093ZM69.0394 88.6778C68.7137 89.0121 68.3708 89.3036 68.0108 89.5607L67.7023 89.0721C68.7308 88.3264 69.528 87.3578 70.0851 86.175H70.6423C71.1051 87.2721 71.9194 88.2236 73.0766 89.0464L72.7423 89.5607C72.3566 89.2864 72.0137 89.0036 71.7137 88.695V89.1921H69.0394V88.6778ZM71.6451 88.6264C71.1051 88.0693 70.6766 87.4521 70.3594 86.7836C69.9823 87.5036 69.5623 88.1121 69.0908 88.6264H71.6451ZM67.8051 93.1093H70.8137C71.2166 92.1836 71.568 91.0521 71.8594 89.715L72.4594 89.8778C72.1766 91.095 71.8337 92.1664 71.4308 93.1093H72.888V93.7007H67.8051V93.1093ZM68.7994 90.0236C69.0908 90.7436 69.3566 91.5664 69.5966 92.4921L69.0566 92.6293C68.8508 91.7893 68.5851 90.975 68.268 90.2036L68.7994 90.0236ZM70.1623 89.6893C70.4108 90.3836 70.6337 91.1807 70.8223 92.0807L70.2908 92.2178C70.1194 91.395 69.8966 90.615 69.6308 89.8607L70.1623 89.6893Z" fill="#999999"/>
<path d="M160.477 90.6438C160.477 89.4604 161.436 88.501 162.619 88.501V88.501C163.803 88.501 164.762 89.4604 164.762 90.6438V90.6438C164.762 91.8273 163.803 92.7867 162.619 92.7867V92.7867C161.436 92.7867 160.477 91.8273 160.477 90.6438V90.6438Z" fill="#FF9902"/>
<path d="M169.674 86.5007H170.711V86.115H171.225V86.5007H172.159V86.115H172.674V86.5007H173.702V86.955H172.674V87.3407H172.159V86.955H171.225V87.3407H170.779C170.762 87.4093 170.736 87.4778 170.711 87.5464H173.428C173.428 88.5407 173.359 89.1493 173.239 89.3721C173.205 89.4321 173.162 89.4836 173.119 89.5178L173.454 89.4664C173.539 89.6293 173.616 89.8093 173.702 90.015H177.036V90.4693H169.639V90.015H173.119C173.051 89.8693 172.974 89.7407 172.905 89.6378C172.794 89.6721 172.674 89.6978 172.536 89.7064H172.185L172.116 89.475H170.385V88.3007H172.211V89.3036H172.425C172.614 89.2864 172.734 89.2093 172.785 89.055C172.828 88.9007 172.854 88.5321 172.862 87.9664H170.539C170.351 88.3436 170.102 88.6607 169.794 88.9178L169.459 88.5064C169.862 88.1807 170.136 87.7436 170.282 87.195L170.711 87.2636V86.955H169.674V86.5007ZM171.739 89.1321V88.635H170.848V89.1321H171.739ZM174.311 87.8378C174.156 88.0521 173.976 88.2493 173.788 88.4207L173.445 87.9921C173.951 87.5121 174.294 86.8693 174.474 86.0636L175.039 86.1664C174.996 86.3378 174.954 86.4921 174.902 86.6464H176.942V87.1607H176.462C176.334 87.7607 176.094 88.2493 175.751 88.635C176.136 88.8664 176.599 89.0636 177.131 89.2264L176.848 89.7236C176.248 89.5264 175.742 89.2864 175.348 89.0121C174.928 89.3207 174.422 89.5521 173.831 89.6893L173.599 89.1921C174.131 89.0721 174.568 88.9007 174.919 88.6607C174.645 88.4036 174.448 88.1293 174.311 87.8378ZM174.696 87.1607C174.662 87.2207 174.636 87.2721 174.619 87.3236C174.739 87.7007 174.971 88.035 175.314 88.3264C175.614 88.0007 175.819 87.6064 175.922 87.1607H174.696ZM170.685 90.8721H176.059V91.2493H170.685V90.8721ZM170.685 91.6436H176.059V92.0207H170.685V91.6436ZM176.334 92.4407V94.0693H175.734V93.8121H171.028V94.0693H170.428V92.4407H176.334ZM171.028 93.3921H175.734V92.8521H171.028V93.3921ZM184.725 90.8378V93.9921H184.099V93.5378H179.762V93.9921H179.136V90.8378H184.725ZM179.762 92.955H184.099V91.4293H179.762V92.955ZM179.651 87.9407C179.359 88.335 179.016 88.7036 178.614 89.0378L178.245 88.5493C179.016 87.9321 179.548 87.1693 179.822 86.2693L180.439 86.3378C180.328 86.6978 180.191 87.0321 180.019 87.3493H181.699V86.1321H182.325V87.3493H185.128V87.9407H182.325V89.3293H185.779V89.9378H178.031V89.3293H181.699V87.9407H179.651ZM188.334 89.4321C188.505 89.4321 188.651 89.4921 188.771 89.6121C188.891 89.7321 188.959 89.8864 188.959 90.0578C188.959 90.2293 188.891 90.375 188.771 90.495C188.651 90.615 188.505 90.675 188.334 90.675C188.162 90.675 188.016 90.615 187.896 90.495C187.768 90.375 187.708 90.2293 187.708 90.0578C187.708 89.8864 187.768 89.7321 187.896 89.6121C188.016 89.4921 188.162 89.4321 188.334 89.4321ZM192.448 87.0236H192.996V93.1436H192.294V87.8807C191.908 88.275 191.428 88.5493 190.854 88.7207V88.0178C191.128 87.9407 191.419 87.8207 191.711 87.6493C192.002 87.4607 192.242 87.255 192.448 87.0236Z" fill="#FF9902"/>
<path d="M24.7622 112.428C24.7622 109.272 27.3206 106.714 30.4765 106.714H196.191C199.347 106.714 201.905 109.272 201.905 112.428V121.714C201.905 124.87 199.347 127.428 196.191 127.428H30.4765C27.3206 127.428 24.7622 124.87 24.7622 121.714V112.428Z" fill="#F7F8FA"/>
<path d="M31.8137 116.014C31.6166 116.211 31.4108 116.4 31.188 116.571L30.8623 116.134C31.5651 115.603 32.0451 114.96 32.2937 114.197L32.8508 114.274C32.7823 114.471 32.7137 114.66 32.6366 114.831H34.2394V115.251C34.0166 115.697 33.7594 116.083 33.4766 116.408C34.0166 116.734 34.4966 117.051 34.9251 117.368L34.5394 117.754C34.1451 117.428 33.6737 117.103 33.1251 116.768C32.5423 117.3 31.8394 117.668 31.0337 117.883L30.8023 117.42C31.5308 117.248 32.148 116.94 32.6623 116.494C32.388 116.331 32.1051 116.168 31.8137 116.014ZM33.0223 116.143C33.2537 115.886 33.4594 115.611 33.6308 115.311H32.3708C32.2937 115.431 32.2166 115.543 32.1308 115.654C32.448 115.817 32.748 115.98 33.0223 116.143ZM34.6508 113.391V114.806H34.1108V113.923H31.5908V114.814H31.0508V113.391H32.6194C32.4994 113.117 32.3708 112.86 32.2337 112.628L32.8508 112.526C32.9708 112.783 33.0908 113.066 33.2108 113.391H34.6508ZM34.2308 117.771V120.377H33.6823V119.931H32.1394V120.377H31.5823V117.771H34.2308ZM32.1394 119.408H33.6823V118.286H32.1394V119.408ZM34.9423 112.928H38.7051V113.494H37.128C37.0851 113.837 37.0251 114.154 36.9566 114.463H38.3966V118.483H37.848V114.977H35.7051V118.491H35.1566V114.463H36.3823C36.4508 114.154 36.5023 113.828 36.5366 113.494H34.9423V112.928ZM37.2994 118.62C37.8823 119.091 38.3623 119.563 38.7566 120.034L38.3537 120.428C38.0108 119.974 37.5308 119.494 36.9308 118.98L37.2994 118.62ZM36.4851 115.483H37.0251V117.043C37.008 117.96 36.8366 118.697 36.5194 119.246C36.2023 119.76 35.688 120.154 34.9766 120.437L34.6594 119.948C35.3366 119.674 35.808 119.314 36.0823 118.868C36.3308 118.397 36.468 117.788 36.4851 117.043V115.483ZM44.9366 114.771C44.5166 114.48 44.1823 114.171 43.9251 113.846H42.9566C42.6651 114.188 42.3223 114.497 41.928 114.771H44.9366ZM44.5937 113.846C45.1766 114.411 46.0594 114.857 47.2423 115.183L46.968 115.757C46.3423 115.534 45.8023 115.294 45.348 115.028V115.286H41.7994V115.808H45.7766V116.306H41.7994V116.82H45.7766V117.317H41.7994V117.857H47.0108V118.414H42.5451C42.2023 118.98 41.8766 119.417 41.568 119.726C42.8537 119.657 44.0966 119.528 45.2794 119.34C45.1166 119.1 44.9537 118.877 44.7823 118.671L45.3137 118.491C45.768 119.023 46.1623 119.588 46.4966 120.197L45.9394 120.446C45.828 120.231 45.7166 120.034 45.6051 119.846C44.0194 120.077 42.3566 120.223 40.6251 120.291L40.4708 119.777C40.8908 119.743 41.3451 119.288 41.8251 118.414H39.6394V117.857H41.1994V115.208C40.7537 115.431 40.2737 115.628 39.7508 115.791L39.4594 115.268C40.6508 114.908 41.5594 114.428 42.1851 113.846H39.7594V113.28H42.6823C42.8451 113.057 42.9737 112.817 43.0766 112.568L43.6766 112.637C43.5908 112.86 43.4794 113.074 43.3594 113.28H46.8994V113.846H44.5937ZM49.4451 115.56V117.06H51.6223V115.56H49.4451ZM49.4108 117.626C49.3166 118.723 48.9994 119.631 48.4508 120.351L47.9794 119.931C48.528 119.168 48.8108 118.2 48.828 117.026V112.911H55.2137V119.331C55.2137 119.931 54.9137 120.231 54.3137 120.231H53.328L53.1651 119.623C53.508 119.64 53.8251 119.657 54.1166 119.657C54.4251 119.657 54.588 119.477 54.588 119.117V117.626H52.2566V120.137H51.6223V117.626H49.4108ZM54.588 117.06V115.56H52.2566V117.06H54.588ZM54.588 114.986V113.511H52.2566V114.986H54.588ZM51.6223 113.511H49.4451V114.986H51.6223V113.511ZM58.2908 117.163V118.148H60.1937V117.163H58.2908ZM60.1937 118.714H58.2908V119.22H57.6908V115.063H60.1937V114.206H60.8108V115.063H63.3394V119.194H62.7394V118.714H60.8108V120.454H60.1937V118.714ZM60.8108 118.148H62.7394V117.163H60.8108V118.148ZM62.7394 116.614V115.628H60.8108V116.614H62.7394ZM60.1937 115.628H58.2908V116.614H60.1937V115.628ZM64.0337 113.22V114.72H63.4337V113.777H57.4851V114.763H56.8851V113.22H60.1508C60.0651 112.997 59.9794 112.791 59.8851 112.603L60.5366 112.491C60.6223 112.706 60.6994 112.946 60.7851 113.22H64.0337ZM66.5023 115.783H71.628V118.937H66.5023V115.783ZM71.028 118.388V117.634H67.1023V118.388H71.028ZM67.1023 117.111H71.028V116.331H67.1023V117.111ZM65.5423 113.34H68.7651V112.551H69.3651V113.34H72.588V113.906H69.9566C70.5994 114.531 71.5937 115.028 72.948 115.388L72.6823 115.946C71.1394 115.423 70.0508 114.746 69.4166 113.906H69.3651V115.508H68.7651V113.906H68.7137C68.0451 114.728 66.9566 115.414 65.4566 115.954L65.1308 115.406C66.5023 115.011 67.5223 114.506 68.1908 113.906H65.5423V113.34ZM65.3708 119.606H72.7337V120.18H65.3708V119.606Z" fill="#999999"/>
<path d="M152.619 117.072C152.619 115.888 153.579 114.929 154.762 114.929V114.929C155.945 114.929 156.905 115.888 156.905 117.072V117.072C156.905 118.255 155.945 119.214 154.762 119.214V119.214C153.579 119.214 152.619 118.255 152.619 117.072V117.072Z" fill="#DDDDDD"/>
<path d="M165.485 115.663V116.168C165.082 116.203 164.662 116.246 164.225 116.288V116.948H163.659V116.331C163.093 116.366 162.493 116.408 161.876 116.443L161.799 115.894C162.45 115.86 163.076 115.834 163.659 115.8V115.088H162.065L161.928 114.6C162.168 114.326 162.399 114 162.605 113.614H161.688V113.066H162.879C162.956 112.877 163.033 112.688 163.102 112.5L163.719 112.603C163.659 112.757 163.599 112.911 163.53 113.066H165.622V113.614H163.273C163.085 113.974 162.879 114.3 162.665 114.583H163.659V114.017H164.225V114.583H165.562V115.088H164.225V115.766C164.67 115.731 165.09 115.697 165.485 115.663ZM166.685 115.097C166.59 115.817 166.359 116.443 165.99 116.974L165.562 116.528C165.939 115.971 166.145 115.311 166.162 114.54V113.194C167.225 113.091 168.065 112.903 168.665 112.628L169.059 113.091C168.425 113.366 167.653 113.563 166.728 113.666V114.557H169.299V115.097H168.39V116.957H167.799V115.097H166.685ZM168.339 117.206V120.428H167.705V120.094H163.35V120.428H162.716V117.206H168.339ZM163.35 119.563H167.705V118.894H163.35V119.563ZM163.35 118.397H167.705V117.728H163.35V118.397ZM170.902 113.031H177.056V113.631H173.988V114.206C173.97 114.737 173.936 115.243 173.876 115.706H177.75V116.297H175.093V119.288C175.093 119.563 175.23 119.708 175.505 119.708H176.593C176.799 119.708 176.953 119.648 177.048 119.537C177.168 119.4 177.245 119.006 177.288 118.337L177.87 118.526C177.802 119.366 177.673 119.871 177.485 120.06C177.322 120.214 177.065 120.291 176.705 120.291H175.316C174.75 120.291 174.476 120 174.476 119.417V116.297H173.782C173.645 117.043 173.43 117.686 173.139 118.234C172.608 119.16 171.75 119.888 170.559 120.403L170.216 119.854C171.399 119.323 172.213 118.628 172.676 117.754C172.882 117.326 173.036 116.837 173.148 116.297H170.328V115.706H173.25C173.319 115.243 173.353 114.737 173.362 114.206V113.631H170.902V113.031ZM181.222 114.531C181.719 115.148 182.182 115.74 182.602 116.306C182.945 115.663 183.219 114.968 183.425 114.231L184.033 114.334C183.776 115.26 183.433 116.1 183.005 116.854C183.528 117.591 183.973 118.277 184.342 118.903L183.785 119.28C183.442 118.688 183.065 118.071 182.636 117.437C182.105 118.208 181.479 118.868 180.742 119.426L180.33 118.903C181.093 118.32 181.736 117.651 182.25 116.88C181.788 116.22 181.273 115.543 180.716 114.84L181.222 114.531ZM179.696 112.911H185.242V116.34C185.242 117.746 185.285 118.646 185.388 119.04C185.482 119.426 185.593 119.623 185.73 119.623C185.842 119.623 185.936 119.228 186.013 118.448L186.562 118.714C186.459 119.357 186.348 119.794 186.228 120.034C186.099 120.24 185.953 120.343 185.799 120.343C185.388 120.343 185.096 120.068 184.908 119.537C184.702 119.014 184.608 117.951 184.608 116.34V113.511H180.313V116.237C180.296 117.9 179.945 119.297 179.268 120.428L178.753 120.008C179.353 119.006 179.67 117.746 179.696 116.237V112.911ZM187.633 112.937H190.17V113.408C189.913 114.18 189.613 114.994 189.27 115.834C189.802 116.597 190.085 117.291 190.128 117.908C190.128 118.26 190.042 118.517 189.87 118.68C189.63 118.868 189.228 118.971 188.653 118.98L188.456 118.363C188.585 118.38 188.696 118.397 188.782 118.397C189.073 118.38 189.279 118.337 189.382 118.268C189.476 118.2 189.528 118.08 189.528 117.908C189.528 117.317 189.236 116.657 188.662 115.928C189.048 115.037 189.348 114.223 189.562 113.503H188.233V120.437H187.633V112.937ZM191.182 115.106C190.856 115.44 190.513 115.731 190.153 115.988L189.845 115.5C190.873 114.754 191.67 113.786 192.228 112.603H192.785C193.248 113.7 194.062 114.651 195.219 115.474L194.885 115.988C194.499 115.714 194.156 115.431 193.856 115.123V115.62H191.182V115.106ZM193.788 115.054C193.248 114.497 192.819 113.88 192.502 113.211C192.125 113.931 191.705 114.54 191.233 115.054H193.788ZM189.948 119.537H192.956C193.359 118.611 193.71 117.48 194.002 116.143L194.602 116.306C194.319 117.523 193.976 118.594 193.573 119.537H195.03V120.128H189.948V119.537ZM190.942 116.451C191.233 117.171 191.499 117.994 191.739 118.92L191.199 119.057C190.993 118.217 190.728 117.403 190.41 116.631L190.942 116.451ZM192.305 116.117C192.553 116.811 192.776 117.608 192.965 118.508L192.433 118.646C192.262 117.823 192.039 117.043 191.773 116.288L192.305 116.117Z" fill="#999999"/>
<rect x="13" y="100.143" width="200" height="20" fill="url(#paint0_linear_7424_7416)"/>
</g>
</g>
<rect x="0.5" y="0.5" width="225.667" height="119.286" stroke="#EBF2FF"/>
<defs>
<linearGradient id="paint0_linear_7424_7416" x1="84.5" y1="120.143" x2="84.5" y2="100.143" gradientUnits="userSpaceOnUse">
<stop stop-color="white"/>
<stop offset="1" stop-color="white" stop-opacity="0"/>
</linearGradient>
<clipPath id="clip0_7424_7416">
<rect width="226.667" height="120.286" fill="white"/>
</clipPath>
<clipPath id="clip1_7424_7416">
<path d="M13.3335 24.5714C13.3335 19.8376 17.1711 16 21.9049 16H204.762C209.496 16 213.333 19.8376 213.333 24.5714V120.286H13.3335V24.5714Z" fill="white"/>
</clipPath>
<clipPath id="clip2_7424_7416">
<rect width="11.4286" height="11.4286" fill="white" transform="translate(30.4766 32.0723)"/>
</clipPath>
</defs>
</svg>
