<svg preserveAspectRatio="none" width="100%" height="100%" overflow="visible" style="display: block;" viewBox="0 0 40.8185 43.2408" fill="none" xmlns="http://www.w3.org/2000/svg">
<g id="&#229;&#174;&#161;&#230;&#137;&#185;">
<g id="Vector" filter="url(#filter0_d_1126_19164)">
<path d="M7.34522 4H25.4732C27.7036 4 28.8185 5.11488 28.8185 7.34522V27.8949C28.8185 30.1253 27.7036 31.2408 25.4732 31.2408H7.34522C5.11546 31.2408 4 30.1253 4 27.8955V7.34464C4 5.11488 5.11546 4 7.34522 4Z" fill="url(#paint0_linear_1126_19164)"/>
</g>
<path id="Vector_2" d="M17.5062 18.7424H9.77732C9.42075 18.7424 9.07879 18.6007 8.82665 18.3486C8.57452 18.0964 8.43287 17.7545 8.43287 17.3979C8.43287 17.0413 8.57452 16.6994 8.82665 16.4472C9.07879 16.1951 9.42075 16.0535 9.77732 16.0535H17.5062C17.8627 16.0535 18.2046 16.1951 18.4567 16.4472C18.7088 16.6992 18.8504 17.0411 18.8504 17.3976C18.8504 17.7541 18.7088 18.096 18.4567 18.3481C18.2046 18.6002 17.8627 18.7418 17.5062 18.7418V18.7424ZM22.4208 12.7771H9.77849C9.422 12.7771 9.08011 12.6355 8.82803 12.3834C8.57595 12.1313 8.43433 11.7894 8.43433 11.4329C8.43433 11.0764 8.57595 10.7345 8.82803 10.4825C9.08011 10.2304 9.422 10.0888 9.77849 10.0888H22.4208C22.7773 10.0888 23.1192 10.2304 23.3713 10.4825C23.6233 10.7345 23.7649 11.0764 23.7649 11.4329C23.7649 11.7894 23.6233 12.1313 23.3713 12.3834C23.1192 12.6355 22.7773 12.7771 22.4208 12.7771Z" fill="var(--fill-0, white)"/>
<path id="Vector_3" d="M19.3975 27.3732C19.3975 29.1316 20.096 30.8179 21.3393 32.0612C22.5827 33.3045 24.269 34.003 26.0273 34.003C27.7856 34.003 29.4719 33.3045 30.7153 32.0612C31.9586 30.8179 32.6571 29.1316 32.6571 27.3732C32.6571 25.6149 31.9586 23.9286 30.7153 22.6853C29.4719 21.4419 27.7856 20.7435 26.0273 20.7435C24.269 20.7435 22.5827 21.4419 21.3393 22.6853C20.096 23.9286 19.3975 25.6149 19.3975 27.3732Z" fill="var(--fill-0, #FFAE78)"/>
<path id="Vector_4" d="M25.3031 27.7808V26.8165C24.9477 26.6609 24.6454 26.4052 24.433 26.0806C24.2206 25.756 24.1074 25.3766 24.1071 24.9887C24.1071 24.4597 24.3171 23.9524 24.6911 23.5783C25.065 23.2041 25.5722 22.9938 26.1012 22.9935C26.3632 22.9935 26.6226 23.0451 26.8647 23.1453C27.1068 23.2456 27.3267 23.3926 27.512 23.5778C27.6973 23.7631 27.8442 23.9831 27.9445 24.2251C28.0448 24.4672 28.0964 24.7267 28.0964 24.9887C28.0962 25.3768 27.9829 25.7564 27.7702 26.081C27.5576 26.4057 27.2549 26.6613 26.8992 26.8165V27.7808H28.6926C29.2445 27.7808 29.6914 28.2242 29.6914 28.7785V29.7761H22.5115V28.7785C22.5115 28.2277 22.9601 27.7808 23.5103 27.7808H25.3036H25.3031ZM22.5115 30.1745H29.6926V30.9721H22.5109V30.1745H22.5115Z" fill="var(--fill-0, white)"/>
</g>
<defs>
<filter id="filter0_d_1126_19164" x="0" y="0" width="40.8185" height="43.2408" filterUnits="userSpaceOnUse" color-interpolation-filters="sRGB">
<feFlood flood-opacity="0" result="BackgroundImageFix"/>
<feColorMatrix in="SourceAlpha" type="matrix" values="0 0 0 0 0 0 0 0 0 0 0 0 0 0 0 0 0 0 127 0" result="hardAlpha"/>
<feOffset dx="4" dy="4"/>
<feGaussianBlur stdDeviation="4"/>
<feColorMatrix type="matrix" values="0 0 0 0 1 0 0 0 0 0.466667 0 0 0 0 0.2 0 0 0 0.3 0"/>
<feBlend mode="normal" in2="BackgroundImageFix" result="effect1_dropShadow_1126_19164"/>
<feBlend mode="normal" in="SourceGraphic" in2="effect1_dropShadow_1126_19164" result="shape"/>
</filter>
<linearGradient id="paint0_linear_1126_19164" x1="41.2277" y1="17.6204" x2="14.1046" y2="-7.09086" gradientUnits="userSpaceOnUse">
<stop stop-color="#FF7733"/>
<stop offset="1" stop-color="#FFB685"/>
</linearGradient>
</defs>
</svg>
