<svg width="16" height="16" viewBox="0 0 16 16" fill="none" xmlns="http://www.w3.org/2000/svg">
<path d="M7.7604 1.14258C7.93695 1.14258 8.10458 1.2115 8.23012 1.3352C8.35698 1.45835 8.42688 1.62523 8.42688 1.80309C8.42688 1.97927 8.35712 2.14583 8.23095 2.27016L3.41671 7.03062C2.69474 7.74391 2.29831 8.69876 2.30122 9.71936C2.30269 10.7405 2.7041 11.6984 3.43181 12.4174C4.11108 13.0887 5.00156 13.4798 5.95784 13.5314L6.17427 13.5372C7.20349 13.5372 8.16778 13.1458 8.88951 12.4357L12.6187 8.74528C13.097 8.27269 13.3598 7.63808 13.3584 6.95922C13.3569 6.28089 13.0901 5.64427 12.6067 5.16521C12.1214 4.68701 11.4754 4.42263 10.7878 4.4212C10.0944 4.4212 9.45347 4.68175 8.97649 5.15448L5.46149 8.63063C5.28376 8.80574 5.1869 9.04009 5.18824 9.29238C5.18824 9.54469 5.28743 9.7814 5.46787 9.96046C5.64649 10.1378 5.88791 10.2365 6.14711 10.2378C6.40313 10.2378 6.64098 10.1415 6.8175 9.96632L9.90237 6.91735C10.0273 6.79425 10.195 6.72559 10.3712 6.72559C10.5488 6.72559 10.7165 6.79374 10.8394 6.91669C10.9663 7.03983 11.0362 7.20673 11.0362 7.38459C11.0362 7.56077 10.9665 7.72733 10.8402 7.85168L7.7554 10.9007C7.32636 11.3234 6.75537 11.5558 6.14376 11.5558C5.53407 11.5542 4.96206 11.3192 4.5311 10.8929C4.09985 10.4664 3.8614 9.8985 3.8598 9.29423C3.8582 8.68796 4.09382 8.11982 4.52358 7.69481L8.03844 4.22029C8.40861 3.85473 8.84211 3.57173 9.32573 3.37922C9.71332 3.22572 10.1169 3.13532 10.5299 3.10945L10.7895 3.10169C11.829 3.10325 12.806 3.50454 13.5416 4.23084C14.2744 4.95594 14.6807 5.92362 14.6855 6.95405C14.6869 7.45308 14.5924 7.94028 14.4045 8.40536C14.2118 8.88251 13.9253 9.31091 13.5537 9.67944L9.82466 13.3681C9.3336 13.8546 8.75664 14.2313 8.11207 14.487C7.57412 14.7019 7.00833 14.8238 6.42521 14.8509L6.16011 14.8567C5.48324 14.8536 4.82619 14.7262 4.20898 14.4778C3.56297 14.2175 2.98466 13.838 2.49381 13.3517C1.99973 12.8637 1.61698 12.2929 1.35511 11.6544C1.10184 11.0412 0.972836 10.3911 0.971204 9.72285C0.969735 9.05719 1.09523 8.40711 1.34433 7.79125C1.6049 7.15214 1.98625 6.58121 2.47714 6.09645L7.29152 1.33433C7.41647 1.21125 7.58419 1.14258 7.7604 1.14258Z" fill="#999999"/>
</svg>
