<svg preserveAspectRatio="none" width="100%" height="100%" overflow="visible" style="display: block;" viewBox="0 0 15.9996 15.999" fill="none" xmlns="http://www.w3.org/2000/svg">
<path id="&#229;&#189;&#162;&#231;&#138;&#182;" d="M10.9873 6.99121C13.194 6.99121 14.9834 8.78062 14.9834 10.9873C14.9833 11.7282 14.7811 12.4218 14.4297 13.0166L15.707 14.2939C16.0971 14.684 16.0971 15.3169 15.707 15.707C15.3375 16.0762 14.7507 16.0952 14.3584 15.7646L14.2949 15.707L13.0176 14.4297C12.4227 14.7812 11.7283 14.9824 10.9873 14.9824C8.78091 14.9822 6.99237 13.1937 6.99219 10.9873C6.99219 8.78075 8.7808 6.99142 10.9873 6.99121ZM0.999023 9.49023C1.52552 9.4903 1.95693 9.89731 1.99512 10.4141L1.99805 10.4883V12.4863L2.00098 12.5449C2.02767 12.7741 2.21022 12.9558 2.43945 12.9824L2.49707 12.9863H4.49512L4.56934 12.9883C5.08604 13.0264 5.4939 13.458 5.49414 13.9844C5.49414 14.511 5.08619 14.9433 4.56934 14.9814L4.49512 14.9834H2.49707L2.38867 14.9814C1.09677 14.9262 0.0586081 13.8892 0.00195312 12.5977L0 12.4863V10.4883L0.00292969 10.4141C0.0411272 9.89727 0.472474 9.49023 0.999023 9.49023ZM10.9883 8.98926C9.88494 8.98926 8.99023 9.88396 8.99023 10.9873C8.99027 12.0906 9.88496 12.9854 10.9883 12.9854C12.0915 12.9852 12.9853 12.0905 12.9854 10.9873C12.9854 9.88407 12.0915 8.98943 10.9883 8.98926ZM4.49512 0C5.04674 6.21171e-05 5.49414 0.44739 5.49414 0.999023C5.49407 1.52556 5.08615 1.95699 4.56934 1.99512L4.49512 1.99805H2.49707C2.24101 1.99812 2.02982 2.19111 2.00098 2.43945L1.99805 2.49707V4.49512C1.99798 5.04669 1.55059 5.49407 0.999023 5.49414C0.472428 5.49414 0.0410619 5.08619 0.00292969 4.56934L0 4.49512V2.49707C8.05845e-05 1.15433 1.0599 0.0587763 2.38867 0.00195312L2.49707 0H4.49512ZM12.5947 0.00195312C13.8867 0.0571045 14.9247 1.0942 14.9814 2.38574L14.9834 2.49707V4.49512L14.9805 4.56934C14.9423 5.08619 14.511 5.49414 13.9844 5.49414C13.4579 5.49397 13.0264 5.08609 12.9883 4.56934L12.9854 4.49512V2.49707L12.9824 2.43945C12.9558 2.21026 12.7741 2.02773 12.5449 2.00098L12.4863 1.99805H10.4883L10.4141 1.99512C9.89725 1.95699 9.48933 1.52556 9.48926 0.999023C9.48926 0.472428 9.89721 0.0410619 10.4141 0.00292969L10.4883 0H12.4863L12.5947 0.00195312Z" fill="var(--fill-0, white)"/>
</svg>
