<svg preserveAspectRatio="none" width="100%" height="100%" overflow="visible" style="display: block;" viewBox="0 0 16 16" fill="none" xmlns="http://www.w3.org/2000/svg">
<g id="icon more">
<path id="&#229;&#189;&#162;&#231;&#138;&#182;&#231;&#187;&#147;&#229;&#144;&#136;" fill-rule="evenodd" clip-rule="evenodd" d="M2.5 6C3.32843 6 4 6.67157 4 7.5C4 8.32843 3.32843 9 2.5 9C1.67157 9 1 8.32843 1 7.5C1 6.67157 1.67157 6 2.5 6ZM8 6C8.82843 6 9.5 6.67157 9.5 7.5C9.5 8.32843 8.82843 9 8 9C7.17157 9 6.5 8.32843 6.5 7.5C6.5 6.67157 7.17157 6 8 6ZM15 7.5C15 6.67157 14.3284 6 13.5 6C12.6716 6 12 6.67157 12 7.5C12 8.32843 12.6716 9 13.5 9C14.3284 9 15 8.32843 15 7.5Z" fill="var(--fill-0, #C5C5C5)"/>
</g>
</svg>
