<svg preserveAspectRatio="none" width="100%" height="100%" overflow="visible" style="display: block;" viewBox="0 0 17.7002 15.6374" fill="none" xmlns="http://www.w3.org/2000/svg">
<g id="Group 47903">
<path id="Vector" d="M12.5627 13.7999H9.05645C8.48691 13.7999 8.0252 13.3382 8.0252 12.7686V11.0155C8.0252 10.7308 8.25605 10.4999 8.54083 10.4999H12.769C13.3385 10.4999 13.8002 10.0382 13.8002 9.46865V7.71552C13.8002 7.43075 14.0311 7.1999 14.3158 7.1999H15.5533C16.4076 7.1999 17.1002 7.89246 17.1002 8.74677V12.7687C17.1002 13.3382 16.6385 13.7999 16.069 13.7999H15.0377L13.8002 15.0374L12.5627 13.7999Z" stroke="var(--stroke-0, #2E3238)" stroke-width="1.2" stroke-linecap="round" stroke-linejoin="round"/>
<path id="Vector_2" d="M0.6 2.14688C0.6 1.29256 1.29256 0.6 2.14688 0.6H12.2531C13.1074 0.6 13.8 1.29256 13.8 2.14687V8.95312C13.8 9.80744 13.1074 10.5 12.2531 10.5H5.9625L4.3125 12.15L2.6625 10.5H2.14688C1.29256 10.5 0.6 9.80744 0.6 8.95313V2.14688Z" stroke="var(--stroke-0, #2E3238)" stroke-width="1.2" stroke-linecap="round" stroke-linejoin="round"/>
<path id="Vector_3" d="M7.11752 5.5498H7.53002M10.005 5.5498H10.4175M4.23002 5.5498H4.64252" stroke="var(--stroke-0, #2E3238)" stroke-width="1.3" stroke-linecap="round"/>
</g>
</svg>
