<svg preserveAspectRatio="none" width="100%" height="100%" overflow="visible" style="display: block;" viewBox="0 0 18 18" fill="none" xmlns="http://www.w3.org/2000/svg">
<g id="&#229;&#183;&#165;&#229;&#133;&#183;_tool 1">
<path id="Vector" d="M16.7836 7.03211C16.7836 10.3443 14.0986 13.0293 10.7864 13.0293C9.77352 13.0293 8.81927 12.7782 7.98251 12.3348L4.48702 15.8303C3.95981 16.3575 3.10504 16.3575 2.57783 15.8303L1.98819 15.2407C1.46098 14.7135 1.46098 13.8587 1.98819 13.3315L5.48368 9.836C5.04033 8.99924 4.7892 8.04499 4.7892 7.03211C4.7892 3.71995 7.47425 1.03491 10.7864 1.03491C11.7993 1.03491 12.7535 1.28602 13.5903 1.72938L10.7415 4.57822C10.2143 5.10543 10.2143 5.9602 10.7415 6.48741L11.3311 7.07705C11.8583 7.60426 12.7131 7.60426 13.2403 7.07705L16.0891 4.22822C16.5325 5.06498 16.7836 6.01923 16.7836 7.03211Z" stroke="var(--stroke-0, #2E3238)" stroke-width="1.2" stroke-linecap="round" stroke-linejoin="round"/>
</g>
</svg>
