<svg width="58" height="32" viewBox="0 0 58 32" fill="none" xmlns="http://www.w3.org/2000/svg">
<g clip-path="url(#clip0_7428_10168)">
<path d="M25.864 10.0171C24.9517 7.17909 21.9351 7.51202 21.9351 7.51202C22.6079 8.58202 23.3778 10.223 23.7798 11.9204L25.864 10.0164V10.0171Z" fill="#645BFF"/>
<path d="M23.8624 14.8641C22.9543 12.0038 19.9355 12.336 19.9355 12.336C20.6105 13.4067 21.3783 15.047 21.7754 16.7675L23.8624 14.8634V14.8641Z" fill="#645BFF"/>
<path d="M56.6601 7.51221H44.2528C42.0431 7.51221 41.6738 10.0961 41.6738 10.0961H54.1404C56.309 10.0961 56.6601 7.51221 56.6601 7.51221Z" fill="#645BFF"/>
<path d="M43.7298 15.4703C44.0885 15.0592 44.5736 14.6153 45.3658 14.1316C46.1881 13.629 47.0256 13.3743 47.8569 13.3743C49.5865 13.3743 50.9524 14.4854 51.7558 15.4696H55.0216C57.0213 15.4696 57.5141 12.8843 57.5141 12.8843H41.6107C39.7143 12.8843 39.0806 15.4696 39.0806 15.4696H43.7312L43.7298 15.4703Z" fill="#645BFF"/>
<path d="M23.3857 17.0622L17.9883 22.9964L20.3028 24.474C23.7159 20.104 23.3857 17.0615 23.3857 17.0615V17.0622Z" fill="#645BFF"/>
<path d="M54.0115 17.5589C52.8375 17.1736 52.0823 17.0522 51.6028 16.3933C51.0451 15.6269 48.9875 12.6424 45.6749 14.6658C43.1915 16.1832 44.057 17.1946 41.2895 18.4837C38.522 19.7736 38.5185 21.4487 39.4915 22.3973C40.4631 23.3465 43.8162 23.9182 46.0637 23.2809C48.3111 22.6423 49.2318 21.871 49.1899 20.3759C49.1508 18.987 46.8028 17.7495 45.4739 19.8022C45.2037 20.3362 45.6065 20.6188 45.6065 20.6188C45.6728 19.8399 46.1328 20.0612 46.1481 20.0695C46.5815 20.3145 46.978 20.7389 46.4769 21.3894C45.5946 22.5306 43.1308 22.3394 42.6945 21.8145C42.2722 21.3029 42.0021 20.1589 43.6242 19.1028C45.2442 18.0461 47.1071 16.7234 49.7413 17.9044C51.7717 18.8146 52.6693 19.8218 52.7893 20.7298C52.9101 21.6414 52.2498 22.4538 51.1659 22.9703C49.0035 24.0012 47.1155 24.2204 43.8483 24.7153C40.5804 25.2108 36.9041 27.2782 36.4058 28.5025C36.4058 28.5025 39.3045 25.6478 46.0706 25.735C52.8347 25.8216 56.2492 23.4107 56.4788 20.9546C56.6589 19.0065 55.2316 17.9609 54.0115 17.5603V17.5589Z" fill="#645BFF"/>
<path d="M10.8803 7.74993L9.54365 15.1261C9.13742 17.5209 8.72911 19.5764 8.44364 20.6932C7.89573 22.8332 6.75244 25.5748 6.75244 25.5748C6.75244 25.5748 10.2053 23.9178 11.1609 19.6881H15.1163L14.9153 20.837C14.7059 22.0319 14.4337 23.5158 12.889 23.5158H11.8512L11.5043 25.1421C11.5043 25.1421 12.7627 25.2014 13.7748 25.1421C14.7875 25.0828 15.4995 24.7638 15.8757 24.4183C16.254 24.0728 16.5471 23.6742 16.7544 23.2213C16.9638 22.769 17.1202 22.2385 17.227 21.6285L19.6734 7.64453L10.8803 7.74993ZM15.5393 17.2752H11.5894C11.759 16.4837 11.9098 15.6859 12.0361 14.8811H15.958L15.5393 17.2752ZM16.3796 12.4689H12.4598L12.8744 10.0944H16.7963L16.3796 12.4689Z" fill="#645BFF"/>
<path d="M37.1219 17.9023L38.2868 11.2429H34.2016C34.6762 10.5344 35.0231 9.99351 35.2374 9.62289H37.623C39.4545 9.62289 39.7505 7.51221 39.7505 7.51221H26.5392L25.2354 14.9568C24.5492 18.9534 23.3983 23.1287 21.6094 24.6922C22.1189 24.2462 25.8272 24.4744 27.5889 15.2953L28.5808 9.62289H32.7595C32.4929 10.1813 32.1998 10.7222 31.8829 11.2429H30.5169C30.5169 11.2429 29.3395 11.3266 29.0973 12.7093C28.8558 14.0913 27.9582 19.2159 27.9582 19.2159H31.2952L30.7731 22.1934C30.6824 22.6339 30.3564 22.8914 29.7903 22.9675C29.2718 22.9975 28.4642 22.9507 28.4642 22.9507C28.4642 22.9507 28.7476 22.6625 29.0714 21.605C29.4079 20.5057 29.2459 19.7568 29.2459 19.7568C27.1736 22.0517 25.4182 23.1734 25.4182 23.1734L26.9231 24.5868C27.5101 24.1687 28.0112 23.5978 28.3476 23.0792C28.4105 23.8651 28.0985 25.2848 28.0985 25.2848C28.0985 25.2848 30.2189 25.2785 30.8478 25.1898C31.4753 25.1026 31.9743 24.8569 32.3421 24.4549C32.7114 24.0521 32.9592 23.4945 33.0848 22.7769L33.7074 19.2152H35.6485C36.9111 19.2152 37.1219 17.9016 37.1219 17.9016V17.9023ZM34.8905 17.2943H30.5937L30.8059 16.0875H35.1026L34.8905 17.2943ZM35.4063 14.3545H31.1081L31.3168 13.1665H35.6143L35.4063 14.3545Z" fill="#645BFF"/>
<path d="M34.3628 19.9727C34.5931 21.4824 34.7844 23.0731 35.0308 24.9667L37.1742 23.8178C36.7541 20.3921 34.3628 19.9727 34.3628 19.9727Z" fill="#645BFF"/>
<path d="M9.32356 7.98291H4.14528C2.72699 7.98291 2.47223 9.44447 2.47223 9.44447L0 23.5673H5.44421C6.45139 23.5673 6.792 22.4478 6.792 22.4478L9.32356 7.98291ZM4.61781 21.3045H2.84635L3.61621 16.9058H5.38698L4.61781 21.3045ZM5.78273 14.6437H4.01127L4.78044 10.2437H6.5519L5.78203 14.6437H5.78273Z" fill="#645BFF"/>
</g>
<defs>
<clipPath id="clip0_7428_10168">
<rect width="57.5125" height="21" fill="white" transform="translate(0 7.5)"/>
</clipPath>
</defs>
</svg>
