<svg width="167" height="86" viewBox="0 0 167 86" fill="none" xmlns="http://www.w3.org/2000/svg">
<g clip-path="url(#clip0_2548_6052)">
<path d="M0 5.89412C0 2.63889 2.63889 0 5.89412 0H161.106C164.361 0 167 2.63889 167 5.89412V80.1059C167 83.3611 164.361 86 161.106 86H5.89412C2.63889 86 0 83.3611 0 80.1059V5.89412Z" fill="#EBF2FF"/>
<g clip-path="url(#clip1_2548_6052)">
<path d="M9.82324 15.4811C9.82324 11.9934 12.6506 9.16602 16.1384 9.16602H150.861C154.349 9.16602 157.176 11.9934 157.176 15.4811V86.0001H9.82324V15.4811Z" fill="white"/>
<path d="M19.8223 25.2716L19.8234 23.2823C19.8236 23.1443 19.9355 23.0324 20.0736 23.0323C20.907 23.0323 21.7405 23.0323 22.574 23.0323C22.8044 23.0323 22.8032 22.8279 22.8032 22.3414C22.8032 21.8549 21.5778 21.4451 21.5778 19.7348C21.5778 18.0245 22.8472 17.5216 23.9023 17.5216C24.9573 17.5216 26.1064 18.0245 26.1064 19.7348C26.1064 21.4451 24.8874 21.7171 24.8874 22.3414C24.8874 22.9657 24.8874 23.0323 25.0826 23.0323C25.9125 23.0323 26.7424 23.0323 27.5723 23.0323C27.7104 23.0323 27.8223 23.1442 27.8223 23.2823V25.2716H19.8223Z" stroke="#266EFF" stroke-width="0.85509" stroke-linejoin="round"/>
<path d="M19.8223 26.7711H27.8223" stroke="#266EFF" stroke-width="0.85509" stroke-linecap="round" stroke-linejoin="round"/>
<path d="M36.1542 22.8591V23.6151H37.8822V22.8591H36.1542ZM37.8822 24.4701H36.1542V24.9381H35.2362V20.4021H37.8822V19.6641H38.8182V20.4021H41.4912V24.9111H40.5732V24.4701H38.8182V26.2431H37.8822V24.4701ZM38.8182 23.6151H40.5732V22.8591H38.8182V23.6151ZM40.5732 22.0401V21.2661H38.8182V22.0401H40.5732ZM37.8822 21.2661H36.1542V22.0401H37.8822V21.2661ZM42.1752 18.4671V20.2131H41.2572V19.3221H35.3532V20.2581H34.4352V18.4671H37.7742C37.7022 18.2871 37.6212 18.1161 37.5402 17.9541L38.5392 17.7921C38.6112 17.9901 38.6832 18.2151 38.7552 18.4671H42.1752ZM45.3162 21.9681V26.2071H44.4072V22.2201C44.1552 22.9311 43.8582 23.5881 43.4982 24.2001L43.1022 23.2281C43.6782 22.4181 44.1012 21.4821 44.3712 20.4381H43.2642V19.5471H44.4072V17.8911H45.3162V19.5471H46.2792V20.4381H45.3162V20.8971C45.7122 21.3291 46.1262 21.8241 46.5402 22.3641L46.0092 23.1741C45.7392 22.6971 45.5142 22.2921 45.3162 21.9681ZM46.4232 18.7731H48.5112C48.3942 18.5031 48.2682 18.2511 48.1332 18.0261L49.0962 17.8641C49.2132 18.1341 49.3212 18.4401 49.4292 18.7731H51.3732V19.6281H48.9072C48.4932 20.3481 48.1242 20.8791 47.8002 21.2391C48.2592 21.2121 48.7182 21.1761 49.1682 21.1401C49.3842 20.8341 49.5732 20.5101 49.7532 20.1681L50.5092 20.5731C49.6092 22.3641 48.2952 23.5791 46.5582 24.2271L46.0452 23.4531C47.0082 23.1201 47.8272 22.6161 48.5022 21.9321L46.7562 22.0131L46.5672 21.2571C46.6482 21.2301 46.7022 21.2031 46.7382 21.1761C47.0532 20.9781 47.4582 20.4561 47.9442 19.6281H46.4232V18.7731ZM49.3482 24.5151C48.5112 25.2531 47.5392 25.8201 46.4412 26.2071L45.9192 25.4061C47.9982 24.7311 49.5552 23.4261 50.5812 21.5001L51.3642 21.9051C50.9502 22.6791 50.4732 23.3631 49.9332 23.9481C50.5272 24.4701 51.0492 25.0011 51.4812 25.5231L50.7972 26.2071C50.4372 25.6671 49.9602 25.1091 49.3482 24.5151ZM57.3132 22.2471C57.4212 21.1941 57.4932 20.2581 57.5472 19.4481L58.2672 19.5291C58.2132 20.2311 58.1502 20.8521 58.0962 21.3921H58.5282C58.6182 20.7621 58.6722 20.0871 58.6812 19.3761V18.9891H57.3312V18.1611H60.1662V18.9891H59.4552V19.3761C59.4462 20.0961 59.4012 20.7621 59.3112 21.3921H60.2472V22.2471H59.1672C59.1222 22.4451 59.0772 22.6341 59.0322 22.8141H59.4732V25.2171C59.4732 25.2801 59.5092 25.3251 59.5812 25.3431H59.6982C59.8242 25.3251 59.8962 25.2171 59.9052 25.0191C59.9232 24.8121 59.9322 24.5241 59.9322 24.1641L60.5622 24.4161C60.5622 25.1631 60.5082 25.6221 60.4092 25.7931C60.3102 25.9461 60.0852 26.0361 59.7342 26.0631H59.5542C58.9782 26.0631 58.6992 25.8291 58.6992 25.3701V23.8401C58.3212 24.8031 57.7992 25.5951 57.1422 26.2251L56.4582 25.6131C56.6382 25.4511 56.8092 25.2801 56.9622 25.1001C56.8992 24.9381 56.8362 24.7671 56.7642 24.6051C56.2152 24.9651 55.5582 25.3161 54.7932 25.6491L54.5772 24.8481C54.7392 24.7761 54.8202 24.6771 54.8202 24.5421V22.3911L54.4242 22.9851C54.2622 22.6341 54.1272 22.3371 54.0012 22.0851V26.2251H53.1552V22.3371C52.9572 22.9491 52.7322 23.5161 52.4712 24.0471L52.0842 23.0661C52.5792 22.2741 52.9392 21.3741 53.1552 20.3481V20.3211H52.2822V19.4571H53.1552V17.8911H54.0012V19.4571H54.5952V20.3211H54.0012V20.9781C54.2802 21.3471 54.5502 21.7341 54.8202 22.1481V18.1611H57.0882V22.6881H55.6302V24.3891C55.9002 24.2451 56.1702 24.0831 56.4402 23.9031C56.3322 23.6781 56.2152 23.4531 56.0982 23.2281L56.7192 22.8321C57.0342 23.3991 57.2952 23.9121 57.4932 24.3711C57.8712 23.7411 58.1592 23.0391 58.3572 22.2471H57.3132ZM55.6302 20.7801V21.9141H56.2962V20.7801H55.6302ZM56.2962 20.0061V18.9351H55.6302V20.0061H56.2962ZM61.3092 18.1611H69.3372V19.0071H66.7812V19.6011H68.8062V22.0311H65.1432L64.8192 22.5981H69.4452V23.4621H67.5822C67.4112 23.9121 67.1322 24.2991 66.7542 24.6411C67.6002 24.8931 68.4552 25.1811 69.3372 25.5141L68.7522 26.2881C67.8072 25.8921 66.8622 25.5321 65.9172 25.2261C65.0712 25.6581 63.6942 26.0001 61.7682 26.2611L61.4172 25.4151C62.7852 25.2711 63.8562 25.0731 64.6482 24.8301C63.9732 24.6321 63.3072 24.4611 62.6412 24.3081C62.8392 24.0201 63.0282 23.7411 63.2082 23.4621H61.1922V22.5981H63.7482C63.8562 22.4001 63.9732 22.2111 64.0812 22.0311H61.8402V19.6011H63.8652V19.0071H61.3092V18.1611ZM65.7462 24.3531C66.1422 24.1011 66.4302 23.8041 66.6102 23.4621H64.2882C64.1712 23.6331 64.0632 23.7861 63.9732 23.9301C64.5492 24.0471 65.1432 24.1911 65.7462 24.3531ZM65.8902 19.6011V19.0071H64.7562V19.6011H65.8902ZM67.9062 21.2391V20.3931H66.7812V21.2391H67.9062ZM65.8902 21.2391V20.3931H64.7562V21.2391H65.8902ZM63.8652 21.2391V20.3931H62.7402V21.2391H63.8652Z" fill="#333333"/>
<path d="M17.8232 39.5862C17.8232 37.261 19.7082 35.3761 22.0333 35.3761H144.966C147.291 35.3761 149.176 37.261 149.176 39.5862V49.166C149.176 51.4912 147.291 53.3761 144.966 53.3761H22.0333C19.7082 53.3761 17.8232 51.4912 17.8232 49.166V39.5862Z" fill="#F7F8FA"/>
<path d="M23.2932 40.1401C23.8332 40.5271 24.2832 40.9141 24.6522 41.3011L24.1932 41.7601C23.8602 41.3911 23.4102 41.0041 22.8342 40.5901L23.2932 40.1401ZM23.0142 42.3001C23.5902 42.7411 24.0672 43.1821 24.4632 43.6231L23.9952 44.0821C23.6532 43.6681 23.1672 43.2181 22.5462 42.7501L23.0142 42.3001ZM23.9052 44.8021L24.4722 45.0271C24.1122 46.1431 23.7162 47.1871 23.2662 48.1681L22.6722 47.9071C23.1492 46.8991 23.5632 45.8641 23.9052 44.8021ZM27.3432 40.0231H27.9732V40.5901H30.3672V41.1301H27.9732V41.7241H30.0252V42.2461H27.9732V42.8581H30.6192V43.3981H24.7242V42.8581H27.3432V42.2461H25.3812V41.7241H27.3432V41.1301H25.0122V40.5901H27.3432V40.0231ZM26.1552 45.6841V46.3231H29.1882V45.6841H26.1552ZM29.1882 45.1801V44.5141H26.1552V45.1801H29.1882ZM26.1552 46.8181V48.2761H25.5432V43.9831H29.8182V47.4841C29.8182 47.9701 29.5752 48.2221 29.0982 48.2221H28.2342L28.0722 47.6461L28.9092 47.6731C29.0892 47.6731 29.1882 47.5651 29.1882 47.3491V46.8181H26.1552ZM32.3922 41.4271H36.2712C36.5592 40.9771 36.8202 40.4821 37.0452 39.9601L37.6752 40.1851C37.4592 40.6441 37.2162 41.0581 36.9462 41.4271H38.6742V45.1261H35.8572V45.9811H39.5292V46.5931H35.8572V48.3031H35.2092V46.5931H31.5372V45.9811H35.2092V45.1261H32.3922V41.4271ZM38.0442 44.5501V43.5421H35.8572V44.5501H38.0442ZM35.2092 44.5501V43.5421H33.0222V44.5501H35.2092ZM33.0222 42.9841H35.2092V41.9941H33.0222V42.9841ZM35.8572 41.9941V42.9841H38.0442V41.9941H35.8572ZM33.9852 40.0051C34.2822 40.3471 34.5612 40.7341 34.8312 41.1481L34.2912 41.4181C34.0212 40.9861 33.7422 40.6081 33.4362 40.2661L33.9852 40.0051ZM43.7412 43.0561H48.4572V43.6231H46.3512V44.3341H48.3582V47.5561C48.3582 47.9701 48.1602 48.1771 47.7642 48.1771H47.0352L46.9002 47.6731L47.5662 47.6911C47.7282 47.6911 47.8092 47.5921 47.8092 47.3941V44.8561H46.3512V48.1411H45.7932V44.8561H44.3802V48.1951H43.8492V44.3341H45.7932V43.6231H43.7412V43.0561ZM44.8842 45.1711C45.1902 45.4231 45.4512 45.6751 45.6672 45.9271L45.3612 46.2331C45.1632 45.9991 44.9022 45.7381 44.5692 45.4681L44.8842 45.1711ZM46.8372 46.2781C47.1432 46.5301 47.3952 46.7821 47.6112 47.0341L47.3052 47.3401C47.1162 47.0971 46.8552 46.8451 46.5312 46.5751L46.8372 46.2781ZM44.8752 46.3771C45.1722 46.6291 45.4242 46.8901 45.6312 47.1511L45.3252 47.4571C45.1452 47.2051 44.8842 46.9441 44.5602 46.6741L44.8752 46.3771ZM46.8732 45.1801C47.1882 45.4141 47.4582 45.6481 47.6742 45.8911L47.3682 46.1971C47.1702 45.9721 46.9002 45.7291 46.5672 45.4771L46.8732 45.1801ZM41.1582 40.1581C41.6982 40.5631 42.1482 40.9681 42.5172 41.3641L42.0852 41.7961C41.7522 41.4091 41.3022 40.9951 40.7352 40.5541L41.1582 40.1581ZM40.8432 42.3451C41.3832 42.7501 41.8422 43.1551 42.2202 43.5601L41.7792 44.0011C41.4462 43.6051 40.9872 43.1911 40.4112 42.7501L40.8432 42.3451ZM41.5362 44.7571L42.0942 44.9821C41.7882 46.0981 41.4552 47.1601 41.0862 48.1501L40.4922 47.8891C40.8972 46.8721 41.2482 45.8281 41.5362 44.7571ZM47.6112 40.9231H43.5162V41.8051H47.6112V40.9231ZM43.5162 42.3541V43.7221C43.5072 45.5041 43.1652 47.0341 42.4902 48.3121L42.0132 47.8711C42.6072 46.8001 42.9132 45.4141 42.9222 43.7221V40.3651H48.2142V42.3541H43.5162ZM50.5992 41.5351H49.5282V40.9051H52.3092V41.5351H51.2652V45.6031C51.6522 45.4681 52.0212 45.3331 52.3722 45.1891V45.8371C51.5802 46.1701 50.6622 46.4761 49.6182 46.7551L49.4292 46.1161C49.8342 46.0171 50.2212 45.9181 50.5992 45.8101V41.5351ZM52.6512 40.4101H57.6372V41.0401H55.4862C55.4322 41.3821 55.3692 41.6971 55.2972 42.0031H57.2052V46.2331H56.5752V42.5971H53.6862V46.2331H53.0652V42.0031H54.6492C54.7392 41.6971 54.8022 41.3731 54.8472 41.0401H52.6512V40.4101ZM55.8642 46.2511C56.6022 46.7911 57.2322 47.3311 57.7362 47.8711L57.2682 48.3391C56.8182 47.8171 56.2062 47.2591 55.4322 46.6651L55.8642 46.2511ZM54.7662 43.1731H55.4142V44.7211C55.3782 45.6931 55.1262 46.4671 54.6402 47.0521C54.1632 47.5831 53.3892 48.0061 52.3092 48.3121L51.9582 47.7541C53.0022 47.4751 53.7402 47.0971 54.1542 46.6291C54.5322 46.1431 54.7392 45.5041 54.7662 44.7211V43.1731ZM58.5732 41.7871H59.6982V40.0321H60.3372V41.7871H61.2642V42.4081H60.3372V42.8671C60.6972 43.2631 61.0662 43.7131 61.4442 44.2171L61.0752 44.7661C60.7872 44.2531 60.5442 43.8301 60.3372 43.5061V48.2311H59.6982V43.8121C59.4102 44.7121 59.0502 45.5221 58.6002 46.2601L58.3212 45.5491C58.9512 44.6311 59.4102 43.5871 59.6802 42.4081H58.5732V41.7871ZM62.5872 42.6511C62.2452 43.0111 61.8942 43.3171 61.5162 43.5871L61.1652 43.0381C62.2272 42.2731 63.0552 41.2741 63.6312 40.0411H64.2252C64.7112 41.1751 65.5392 42.1651 66.7182 43.0201L66.3672 43.5691C65.9802 43.2901 65.6292 42.9931 65.3232 42.6781V43.2271H62.5872V42.6511ZM65.2782 42.6331C64.7112 42.0481 64.2612 41.4001 63.9282 40.6801C63.5322 41.4451 63.0912 42.0931 62.6052 42.6331H65.2782ZM61.3722 47.3761H64.4862C64.8552 46.4131 65.1792 45.2341 65.4582 43.8301L66.0792 43.9921C65.8272 45.2611 65.5032 46.3861 65.1252 47.3761H66.5292V48.0061H61.3722V47.3761ZM62.3802 44.0731C62.6322 44.8291 62.8482 45.7021 63.0372 46.6921L62.4702 46.8451C62.2902 45.9451 62.0742 45.0901 61.8222 44.2621L62.3802 44.0731ZM63.7662 43.7491C64.0002 44.4781 64.2072 45.3151 64.3872 46.2601L63.7932 46.4131C63.6402 45.5491 63.4422 44.7211 63.2082 43.9291L63.7662 43.7491ZM68.8602 43.3981H74.2422V46.7101H68.8602V43.3981ZM73.6122 46.1341V45.3421H69.4902V46.1341H73.6122ZM69.4902 44.7931H73.6122V43.9741H69.4902V44.7931ZM67.8522 40.8331H71.2362V40.0051H71.8662V40.8331H75.2502V41.4271H72.4872C73.1622 42.0841 74.2062 42.6061 75.6282 42.9841L75.3492 43.5691C73.7292 43.0201 72.5862 42.3091 71.9202 41.4271H71.8662V43.1101H71.2362V41.4271H71.1822C70.4802 42.2911 69.3372 43.0111 67.7622 43.5781L67.4202 43.0021C68.8602 42.5881 69.9312 42.0571 70.6332 41.4271H67.8522V40.8331ZM67.6722 47.4121H75.4032V48.0151H67.6722V47.4121Z" fill="#999999"/>
<path d="M110.651 44.3761C110.651 43.5042 111.358 42.7974 112.23 42.7974V42.7974C113.102 42.7974 113.809 43.5042 113.809 44.3761V44.3761C113.809 45.2481 113.102 45.9549 112.23 45.9549V45.9549C111.358 45.9549 110.651 45.2481 110.651 44.3761V44.3761Z" fill="#FF4C4C"/>
<path d="M124.158 40.3741V42.4891H119.001V43.0921C119.001 43.3981 119.154 43.5511 119.46 43.5511H124.212C124.401 43.5421 124.536 43.4791 124.608 43.3711C124.671 43.2721 124.716 43.0291 124.752 42.6511L125.337 42.8401C125.301 43.2541 125.238 43.5421 125.157 43.7221C125.031 43.9921 124.77 44.1271 124.392 44.1361H119.226C118.65 44.1361 118.362 43.8571 118.362 43.3171V40.3741H124.158ZM119.001 41.9041H123.528V40.9591H119.001V41.9041ZM117.363 45.4771H119.676C119.685 45.2341 119.694 44.9011 119.694 44.4781H120.342C120.342 44.9371 120.333 45.2701 120.324 45.4771H122.691V44.4871H123.339V45.4771H125.589V46.0621H123.339V48.2221H122.691V46.0621H120.243C120.018 47.1421 119.352 47.8801 118.254 48.2581L117.912 47.7001C118.866 47.4301 119.433 46.8811 119.613 46.0621H117.363V45.4771ZM130.134 44.6401H128.154V42.6601H132.798V44.6401H130.8V45.3601H133.662V46.9981C133.662 47.5381 133.383 47.8081 132.843 47.8081H132.123L131.952 47.1871L132.636 47.2141C132.888 47.2141 133.023 47.0881 133.023 46.8541V45.9541H130.8V48.2941H130.134V45.9541H127.956V47.8621H127.317V45.3601H130.134V44.6401ZM130.134 39.9781H130.8V41.3551H131.943C132.222 40.9591 132.465 40.5451 132.663 40.1041L133.266 40.3291C133.059 40.7251 132.843 41.0671 132.627 41.3551H134.211V43.1731H133.545V41.9671H127.389V43.1821H126.723V41.3551H128.19C128.019 41.0131 127.812 40.6891 127.578 40.3921L128.19 40.1671C128.424 40.5001 128.64 40.8961 128.829 41.3551H130.134V39.9781ZM132.177 44.0911V43.2091H128.784V44.0911H132.177ZM137.217 43.4791C137.397 43.4791 137.55 43.5421 137.676 43.6681C137.802 43.7941 137.874 43.9561 137.874 44.1361C137.874 44.3161 137.802 44.4691 137.676 44.5951C137.55 44.7211 137.397 44.7841 137.217 44.7841C137.037 44.7841 136.884 44.7211 136.758 44.5951C136.623 44.4691 136.56 44.3161 136.56 44.1361C136.56 43.9561 136.623 43.7941 136.758 43.6681C136.884 43.5421 137.037 43.4791 137.217 43.4791ZM142.257 40.8241C142.851 40.8241 143.337 40.9951 143.724 41.3371C144.102 41.6791 144.3 42.1381 144.3 42.6961C144.3 43.2541 144.084 43.7581 143.67 44.2081C143.445 44.4421 143.004 44.7931 142.338 45.2431C141.519 45.7921 141.051 46.2871 140.934 46.7191H144.309V47.3761H140.025C140.025 46.7911 140.232 46.2601 140.664 45.7831C140.916 45.4951 141.375 45.1081 142.059 44.6401C142.563 44.2801 142.896 44.0191 143.067 43.8391C143.391 43.4881 143.562 43.1011 143.562 42.6871C143.562 42.2911 143.445 41.9941 143.211 41.7781C142.977 41.5621 142.644 41.4541 142.23 41.4541C141.789 41.4541 141.447 41.5981 141.213 41.9041C140.961 42.1921 140.826 42.6241 140.817 43.1911H140.079C140.079 42.4711 140.286 41.8951 140.682 41.4721C141.078 41.0401 141.609 40.8241 142.257 40.8241Z" fill="#FF4C4C"/>
<path d="M17.8232 61.5862C17.8232 59.261 19.7082 57.3761 22.0333 57.3761H144.966C147.291 57.3761 149.176 59.261 149.176 61.5862V73.166C149.176 75.4912 147.291 77.3761 144.966 77.3761H22.0333C19.7082 77.3761 17.8232 75.4912 17.8232 73.166V61.5862Z" fill="#F7F8FA"/>
<path d="M26.6682 67.1541H30.1242V69.9531H26.6682V67.1541ZM29.5302 69.3861V67.7301H27.2442V69.3861H29.5302ZM22.7892 64.2381H24.1572V63.0141H24.7782V64.2381H26.1282V64.8141H24.7782V66.1461H26.1102V66.7401H24.9582V68.0091H26.1192V68.6031H24.9582V70.1691C25.0122 70.1961 25.0572 70.2141 25.1022 70.2321C25.6332 70.4121 26.8572 70.5111 28.7652 70.5111C29.5932 70.5021 30.2142 70.4931 30.6192 70.4751L30.5112 71.1231H28.9092C26.6682 71.1231 25.2642 70.9881 24.7062 70.7361C24.2202 70.5111 23.7792 70.1151 23.4012 69.5481C23.2752 70.1601 23.1132 70.7271 22.8972 71.2581L22.4292 70.8351C22.8252 69.7911 23.0502 68.6121 23.0862 67.3161L23.6442 67.3791C23.6262 67.8471 23.5902 68.2971 23.5362 68.7291C23.7702 69.1701 24.0402 69.5211 24.3462 69.7821V66.7401H22.6812V66.1461H24.1572V64.8141H22.7892V64.2381ZM27.6762 64.0581H26.4342V63.4641H30.2502C30.2502 64.9941 30.1602 65.9121 29.9892 66.2181C29.8272 66.5241 29.5392 66.6771 29.1252 66.6771C28.9452 66.6771 28.7382 66.6591 28.4862 66.6411L28.3242 66.0741L28.9812 66.1191C29.2602 66.1101 29.4312 65.9931 29.5032 65.7681C29.5752 65.5521 29.6202 64.9851 29.6292 64.0581H28.2792C28.1622 64.6971 28.0092 65.2011 27.8112 65.5791C27.5592 66.0201 27.1902 66.4161 26.7042 66.7581L26.2812 66.2271C26.7132 65.9391 27.0372 65.6241 27.2532 65.2821C27.4422 64.9671 27.5862 64.5621 27.6762 64.0581ZM31.7892 63.3831H34.5522V63.9051C34.2822 64.7151 33.9582 65.5521 33.5802 66.4341C34.1562 67.2261 34.4712 67.9461 34.5072 68.5941C34.5072 68.9811 34.4082 69.2601 34.2282 69.4311C33.9762 69.6381 33.5262 69.7461 32.8782 69.7551L32.6622 69.0981C32.8062 69.1161 32.9232 69.1341 33.0132 69.1341C33.3462 69.1161 33.5712 69.0711 33.6882 68.9991C33.7962 68.9181 33.8592 68.7831 33.8592 68.5941C33.8592 67.9821 33.5442 67.2891 32.9142 66.5331C33.3372 65.5971 33.6702 64.7511 33.9042 64.0041H32.4192V71.2851H31.7892V63.3831ZM35.6142 65.6331V66.6501H38.2692V65.6331H35.6142ZM38.2692 65.0391V64.0041H35.6142V65.0391H38.2692ZM36.6492 67.2441H35.6142V70.3221C36.1542 70.1601 36.6942 69.9531 37.2252 69.7101L37.3692 70.3131C36.7212 70.5921 35.9112 70.8621 34.9302 71.1231L34.7772 70.5651C34.9032 70.5201 34.9752 70.4481 34.9752 70.3581V63.3921H38.8992V67.2441H37.2342C37.3422 67.7751 37.5222 68.2701 37.7832 68.7201C38.2152 68.4771 38.6382 68.1171 39.0432 67.6311L39.4662 68.0541C39.0522 68.5401 38.5932 68.9181 38.0802 69.1791C38.4942 69.7461 39.0342 70.2321 39.7182 70.6371L39.3582 71.2041C37.8642 70.2501 36.9552 68.9271 36.6492 67.2441ZM41.5362 66.1461C41.2482 66.5691 40.9242 66.9741 40.5822 67.3521L40.3662 66.6681C41.2482 65.6061 41.8962 64.3911 42.2922 63.0231L42.9042 63.3021C42.7152 63.9051 42.4812 64.4811 42.2022 65.0301V71.2491H41.5362V66.1461ZM46.4052 66.1731H47.0352V71.1951H46.4052V66.1731ZM44.0922 66.2001H44.7132V67.5591C44.6952 69.2601 44.2542 70.5021 43.3902 71.2941L42.9042 70.8711C43.6782 70.1871 44.0742 69.0801 44.0922 67.5591V66.2001ZM45.2352 63.0681H45.8202C46.3782 64.2741 47.3502 65.3271 48.7182 66.2361L48.3492 66.7851C47.0892 65.9481 46.1442 64.9131 45.5232 63.6891C44.8032 65.0661 43.9032 66.1281 42.8142 66.8841L42.4542 66.3351C43.6602 65.4981 44.5872 64.4091 45.2352 63.0681ZM52.0662 65.0841C52.5882 65.7321 53.0742 66.3531 53.5152 66.9471C53.8752 66.2721 54.1632 65.5431 54.3792 64.7691L55.0182 64.8771C54.7482 65.8491 54.3882 66.7311 53.9382 67.5231C54.4872 68.2971 54.9552 69.0171 55.3422 69.6741L54.7572 70.0701C54.3972 69.4491 54.0012 68.8011 53.5512 68.1351C52.9932 68.9451 52.3362 69.6381 51.5622 70.2231L51.1302 69.6741C51.9312 69.0621 52.6062 68.3601 53.1462 67.5501C52.6602 66.8571 52.1202 66.1461 51.5352 65.4081L52.0662 65.0841ZM50.4642 63.3831H56.2872V66.9831C56.2872 68.4591 56.3322 69.4041 56.4402 69.8181C56.5392 70.2231 56.6562 70.4301 56.8002 70.4301C56.9172 70.4301 57.0162 70.0161 57.0972 69.1971L57.6732 69.4761C57.5652 70.1511 57.4482 70.6101 57.3222 70.8621C57.1872 71.0781 57.0342 71.1861 56.8722 71.1861C56.4402 71.1861 56.1342 70.8981 55.9362 70.3401C55.7202 69.7911 55.6212 68.6751 55.6212 66.9831V64.0131H51.1122V66.8751C51.0942 68.6211 50.7252 70.0881 50.0142 71.2761L49.4742 70.8351C50.1042 69.7821 50.4372 68.4591 50.4642 66.8751V63.3831ZM58.7982 63.4101H61.4622V63.9051C61.1922 64.7151 60.8772 65.5701 60.5172 66.4521C61.0752 67.2531 61.3722 67.9821 61.4172 68.6301C61.4172 68.9991 61.3272 69.2691 61.1472 69.4401C60.8952 69.6381 60.4722 69.7461 59.8692 69.7551L59.6622 69.1071C59.7972 69.1251 59.9142 69.1431 60.0042 69.1431C60.3102 69.1251 60.5262 69.0801 60.6342 69.0081C60.7332 68.9361 60.7872 68.8101 60.7872 68.6301C60.7872 68.0091 60.4812 67.3161 59.8782 66.5511C60.2832 65.6151 60.5982 64.7601 60.8232 64.0041H59.4282V71.2851H58.7982V63.4101ZM62.5242 65.6871C62.1822 66.0381 61.8222 66.3441 61.4442 66.6141L61.1202 66.1011C62.2002 65.3181 63.0372 64.3011 63.6222 63.0591H64.2072C64.6932 64.2111 65.5482 65.2101 66.7632 66.0741L66.4122 66.6141C66.0072 66.3261 65.6472 66.0291 65.3322 65.7051V66.2271H62.5242V65.6871ZM65.2602 65.6331C64.6932 65.0481 64.2432 64.4001 63.9102 63.6981C63.5142 64.4541 63.0732 65.0931 62.5782 65.6331H65.2602ZM61.2282 70.3401H64.3872C64.8102 69.3681 65.1792 68.1801 65.4852 66.7761L66.1152 66.9471C65.8182 68.2251 65.4582 69.3501 65.0352 70.3401H66.5652V70.9611H61.2282V70.3401ZM62.2722 67.1001C62.5782 67.8561 62.8572 68.7201 63.1092 69.6921L62.5422 69.8361C62.3262 68.9541 62.0472 68.0991 61.7142 67.2891L62.2722 67.1001ZM63.7032 66.7491C63.9642 67.4781 64.1982 68.3151 64.3962 69.2601L63.8382 69.4041C63.6582 68.5401 63.4242 67.7211 63.1452 66.9291L63.7032 66.7491Z" fill="#999999"/>
<path d="M111.651 67.3761C111.651 66.5042 112.358 65.7974 113.23 65.7974V65.7974C114.102 65.7974 114.809 66.5042 114.809 67.3761V67.3761C114.809 68.2481 114.102 68.9549 113.23 68.9549V68.9549C112.358 68.9549 111.651 68.2481 111.651 67.3761V67.3761Z" fill="#FF9902"/>
<path d="M118.624 63.4011H119.713V62.9961H120.253V63.4011H121.234V62.9961H121.774V63.4011H122.854V63.8781H121.774V64.2831H121.234V63.8781H120.253V64.2831H119.785C119.767 64.3551 119.74 64.4271 119.713 64.4991H122.566C122.566 65.5431 122.494 66.1821 122.368 66.4161C122.332 66.4791 122.287 66.5331 122.242 66.5691L122.593 66.5151C122.683 66.6861 122.764 66.8751 122.854 67.0911H126.355V67.5681H118.588V67.0911H122.242C122.17 66.9381 122.089 66.8031 122.017 66.6951C121.9 66.7311 121.774 66.7581 121.63 66.7671H121.261L121.189 66.5241H119.371V65.2911H121.288V66.3441H121.513C121.711 66.3261 121.837 66.2451 121.891 66.0831C121.936 65.9211 121.963 65.5341 121.972 64.9401H119.533C119.335 65.3361 119.074 65.6691 118.75 65.9391L118.399 65.5071C118.822 65.1651 119.11 64.7061 119.263 64.1301L119.713 64.2021V63.8781H118.624V63.4011ZM120.793 66.1641V65.6421H119.857V66.1641H120.793ZM123.493 64.8051C123.331 65.0301 123.142 65.2371 122.944 65.4171L122.584 64.9671C123.115 64.4631 123.475 63.7881 123.664 62.9421L124.258 63.0501C124.213 63.2301 124.168 63.3921 124.114 63.5541H126.256V64.0941H125.752C125.617 64.7241 125.365 65.2371 125.005 65.6421C125.41 65.8851 125.896 66.0921 126.454 66.2631L126.157 66.7851C125.527 66.5781 124.996 66.3261 124.582 66.0381C124.141 66.3621 123.61 66.6051 122.989 66.7491L122.746 66.2271C123.304 66.1011 123.763 65.9211 124.132 65.6691C123.844 65.3991 123.637 65.1111 123.493 64.8051ZM123.898 64.0941C123.862 64.1571 123.835 64.2111 123.817 64.2651C123.943 64.6611 124.186 65.0121 124.546 65.3181C124.861 64.9761 125.077 64.5621 125.185 64.0941H123.898ZM119.686 67.9911H125.329V68.3871H119.686V67.9911ZM119.686 68.8011H125.329V69.1971H119.686V68.8011ZM125.617 69.6381V71.3481H124.987V71.0781H120.046V71.3481H119.416V69.6381H125.617ZM120.046 70.6371H124.987V70.0701H120.046V70.6371ZM134.428 67.9551V71.2671H133.771V70.7901H129.217V71.2671H128.56V67.9551H134.428ZM129.217 70.1781H133.771V68.5761H129.217V70.1781ZM129.1 64.9131C128.794 65.3271 128.434 65.7141 128.011 66.0651L127.624 65.5521C128.434 64.9041 128.992 64.1031 129.28 63.1581L129.928 63.2301C129.811 63.6081 129.667 63.9591 129.487 64.2921H131.251V63.0141H131.908V64.2921H134.851V64.9131H131.908V66.3711H135.535V67.0101H127.399V66.3711H131.251V64.9131H129.1ZM138.217 66.4791C138.397 66.4791 138.55 66.5421 138.676 66.6681C138.802 66.7941 138.874 66.9561 138.874 67.1361C138.874 67.3161 138.802 67.4691 138.676 67.5951C138.55 67.7211 138.397 67.7841 138.217 67.7841C138.037 67.7841 137.884 67.7211 137.758 67.5951C137.623 67.4691 137.56 67.3161 137.56 67.1361C137.56 66.9561 137.623 66.7941 137.758 66.6681C137.884 66.5421 138.037 66.4791 138.217 66.4791ZM142.537 63.9501H143.113V70.3761H142.375V64.8501C141.97 65.2641 141.466 65.5521 140.863 65.7321V64.9941C141.151 64.9131 141.457 64.7871 141.763 64.6071C142.069 64.4091 142.321 64.1931 142.537 63.9501Z" fill="#FF9902"/>
<path d="M17.8232 85.5862C17.8232 83.261 19.7082 81.3761 22.0333 81.3761H144.966C147.291 81.3761 149.176 83.261 149.176 85.5862V92.3761C149.176 94.7013 147.291 96.5862 144.966 96.5862H22.0333C19.7082 96.5862 17.8232 94.7013 17.8232 92.3761V85.5862Z" fill="#F7F8FA"/>
<rect x="9.57812" y="71.1594" width="147.353" height="14.7353" fill="url(#paint0_linear_2548_6052)"/>
</g>
</g>
<path d="M5.89453 0.368164H161.105C164.157 0.368164 166.632 2.84275 166.632 5.89453V80.1055C166.632 83.1572 164.157 85.6318 161.105 85.6318H5.89453C2.84275 85.6318 0.368164 83.1572 0.368164 80.1055V5.89453C0.368164 2.84275 2.84275 0.368164 5.89453 0.368164Z" stroke="#EBF2FF" stroke-width="0.736765"/>
<defs>
<linearGradient id="paint0_linear_2548_6052" x1="62.2568" y1="85.8947" x2="62.2568" y2="71.1594" gradientUnits="userSpaceOnUse">
<stop stop-color="white"/>
<stop offset="1" stop-color="white" stop-opacity="0"/>
</linearGradient>
<clipPath id="clip0_2548_6052">
<path d="M0 5.89412C0 2.63889 2.63889 0 5.89412 0H161.106C164.361 0 167 2.63889 167 5.89412V80.1059C167 83.3611 164.361 86 161.106 86H5.89412C2.63889 86 0 83.3611 0 80.1059V5.89412Z" fill="white"/>
</clipPath>
<clipPath id="clip1_2548_6052">
<path d="M9.82324 15.4811C9.82324 11.9934 12.6506 9.16602 16.1384 9.16602H150.861C154.349 9.16602 157.176 11.9934 157.176 15.4811V86.0001H9.82324V15.4811Z" fill="white"/>
</clipPath>
</defs>
</svg>
