<svg width="167" height="86" viewBox="0 0 167 86" fill="none" xmlns="http://www.w3.org/2000/svg">
<g clip-path="url(#clip0_2548_6082)">
<mask id="path-1-inside-1_2548_6082" fill="white">
<path d="M0 8.84119C0 3.95834 3.95833 0 8.84117 0H158.159C163.042 0 167 3.95833 167 8.84117V76.6235C167 81.5064 163.042 85.4647 158.159 85.4647H8.84117C3.95832 85.4647 0 81.5064 0 76.6235V8.84119Z"/>
</mask>
<path d="M0 8.84119C0 3.95834 3.95833 0 8.84117 0H158.159C163.042 0 167 3.95833 167 8.84117V76.6235C167 81.5064 163.042 85.4647 158.159 85.4647H8.84117C3.95832 85.4647 0 81.5064 0 76.6235V8.84119Z" fill="#E6F9FF"/>
<g clip-path="url(#clip1_2548_6082)">
<path d="M10.0693 14.7354C10.0693 11.4802 12.7082 8.84131 15.9635 8.84131H150.791C154.454 8.84131 157.422 11.8101 157.422 15.4722V85.6753H10.0693V14.7354Z" fill="white"/>
<g clip-path="url(#clip2_2548_6082)">
<path d="M24.0684 26.9465C26.8298 26.9465 29.0684 24.708 29.0684 21.9465C29.0684 19.1851 26.8298 16.9465 24.0684 16.9465C21.3069 16.9465 19.0684 19.1851 19.0684 21.9465C19.0684 24.708 21.3069 26.9465 24.0684 26.9465Z" stroke="#2EB8E6" stroke-linejoin="round"/>
<path d="M22.5693 21.4468H25.5693" stroke="#2EB8E6" stroke-linecap="round" stroke-linejoin="round"/>
<path d="M22.5693 22.9463H25.5693" stroke="#2EB8E6" stroke-linecap="round" stroke-linejoin="round"/>
<path d="M24.0703 21.4468V24.4468" stroke="#2EB8E6" stroke-linecap="round" stroke-linejoin="round"/>
<path d="M25.5693 19.6967L24.0693 21.1967L22.5693 19.6967" stroke="#2EB8E6" stroke-linecap="round" stroke-linejoin="round"/>
</g>
<path d="M35.4913 19.2494H34.5283V18.3314H37.3903V19.2494H36.4453V22.9304C36.7873 22.8134 37.1023 22.6964 37.4083 22.5794V23.5154C36.6163 23.8394 35.7163 24.1454 34.6903 24.4244L34.4113 23.4974C34.7893 23.4074 35.1493 23.3084 35.4913 23.2184V19.2494ZM37.6423 17.8364H42.7183V18.7544H40.6393C40.6033 18.9884 40.5583 19.2224 40.5043 19.4384H42.3853V23.8394H41.4673V20.3024H38.8663V23.8394H37.9573V19.4384H39.5773C39.6313 19.2134 39.6763 18.9884 39.7123 18.7544H37.6423V17.8364ZM41.0443 23.7584C41.7463 24.2624 42.3313 24.7664 42.8173 25.2614L42.1423 25.9364C41.7373 25.4504 41.1613 24.9194 40.4143 24.3614L41.0443 23.7584ZM39.6763 20.7074H40.6123V22.2914C40.5583 23.2724 40.2883 24.0644 39.8023 24.6584C39.3253 25.1984 38.5513 25.6214 37.4713 25.9184L36.9583 25.1174C38.0023 24.8294 38.7133 24.4784 39.0823 24.0644C39.4333 23.6144 39.6313 23.0204 39.6763 22.2914V20.7074ZM50.7553 17.8994V25.8824H49.8103V25.3604H45.3463V25.9004H44.3923V17.8994H50.7553ZM45.3463 24.4514H49.8103V23.0474H45.3463V24.4514ZM45.3463 22.1924H49.8103V20.8874H45.3463V22.1924ZM45.3463 20.0234H49.8103V18.7994H45.3463V20.0234ZM58.7653 22.2194L59.0083 23.0834C58.2523 23.6594 57.3163 24.1634 56.1913 24.6134L55.8043 23.7224C56.9473 23.3084 57.9373 22.8044 58.7653 22.2194ZM57.1183 20.4734C57.6943 20.8604 58.1803 21.2474 58.5763 21.6254L57.9193 22.2824C57.5953 21.9044 57.1273 21.4904 56.5243 21.0584L57.1183 20.4734ZM56.6863 17.4764L57.6313 17.5934C57.5413 18.0254 57.4243 18.4394 57.2983 18.8354H60.4663C60.4663 22.0214 60.4213 23.9834 60.3403 24.7304C60.2503 25.4684 59.8183 25.8374 59.0533 25.8374C58.7833 25.8374 58.3153 25.8194 57.6673 25.7834L57.4333 24.8924C57.9913 24.9194 58.4773 24.9374 58.8913 24.9374C59.2153 24.9374 59.4043 24.7124 59.4583 24.2804C59.5033 23.8484 59.5303 22.3364 59.5483 19.7444H56.9293C56.6233 20.3744 56.2453 20.9504 55.8133 21.4544L55.1833 20.6354C55.9213 19.7714 56.4253 18.7184 56.6863 17.4764ZM52.4473 19.8434H53.3383V17.5934H54.2833V19.8434H55.1113V20.7614H54.2833V23.4074C54.6613 23.2994 55.0393 23.1734 55.4173 23.0384V24.0284C54.5353 24.3434 53.5813 24.6134 52.5733 24.8294L52.3213 23.8304C52.6633 23.7764 53.0053 23.7134 53.3383 23.6414V20.7614H52.4473V19.8434ZM62.4283 21.1394C62.1853 21.4634 61.9243 21.7784 61.6543 22.0844L61.3393 21.0764C62.1583 20.0684 62.7613 18.8804 63.1573 17.5124L64.0393 17.9264C63.8593 18.5024 63.6433 19.0604 63.3823 19.5824V25.8284H62.4283V21.1394ZM67.2523 20.7434H68.1613V25.8014H67.2523V20.7434ZM65.0023 20.7704H65.9113V22.0934C65.8933 23.8394 65.4523 25.1264 64.5973 25.9364L63.8863 25.3154C64.6153 24.6494 64.9843 23.5694 65.0023 22.0934V20.7704ZM66.1363 17.6024H66.9913C67.5313 18.7544 68.4673 19.7624 69.7993 20.6264L69.2683 21.4274C68.0533 20.6354 67.1533 19.6634 66.5593 18.5024C65.8843 19.7984 65.0293 20.8064 63.9853 21.5174L63.4633 20.7164C64.6153 19.9244 65.5063 18.8804 66.1363 17.6024ZM73.1743 17.7104L73.9843 18.2054C73.5703 18.9434 73.1473 19.5554 72.7243 20.0234C72.3103 20.4914 71.7163 21.0044 70.9243 21.5714L70.4113 20.7344C70.9693 20.4284 71.5093 19.9964 72.0133 19.4294C72.4183 18.9614 72.8053 18.3944 73.1743 17.7104ZM73.4173 21.9404H71.7973V21.0314H77.2693C77.2333 22.2014 77.1793 23.1374 77.0893 23.8574C76.9993 24.5774 76.8553 25.0724 76.6393 25.3604C76.4323 25.6304 76.0993 25.7834 75.6403 25.8104H73.9123L73.6603 24.8834C74.1913 24.9014 74.6953 24.9194 75.1633 24.9194C75.6043 24.9194 75.8923 24.7304 76.0363 24.3704C76.1803 23.9924 76.2793 23.1824 76.3153 21.9404H74.3713C74.1643 22.8584 73.8853 23.5874 73.5253 24.1364C73.0573 24.7934 72.3643 25.3874 71.4463 25.9094L70.8343 25.1264C71.6443 24.6944 72.2563 24.2174 72.6703 23.6954C72.9853 23.2454 73.2373 22.6604 73.4173 21.9404ZM75.9913 17.6024C76.4773 18.9434 77.3863 20.0054 78.7183 20.7794L78.0793 21.5264C76.6933 20.6354 75.7213 19.4834 75.1723 18.0614L75.9913 17.6024ZM81.6973 21.4994V25.8644H80.7703V21.7424C80.5003 22.4984 80.1583 23.1914 79.7533 23.8304L79.3483 22.7954C79.9693 22.0124 80.4283 21.1214 80.7163 20.1224H79.5643V19.2134H80.7703V17.5484H81.6973V19.2134H82.8133V20.1224H81.6973V20.4824C82.1113 20.8964 82.5163 21.3374 82.9213 21.8144L82.4083 22.5704C82.1383 22.1384 81.8953 21.7784 81.6973 21.4994ZM86.9713 17.5574L87.4303 18.4034C86.4313 18.7274 85.3153 18.9254 84.0823 18.9974V20.3294H87.6373V21.2384H86.4043V25.8644H85.4593V21.2384H84.0823C84.0103 23.1554 83.5423 24.6854 82.6873 25.8284L82.0213 25.1174C82.7413 24.1724 83.1283 22.8584 83.1823 21.1754V18.1964C84.6043 18.1604 85.8643 17.9534 86.9713 17.5574Z" fill="#333333"/>
<path d="M23.8588 37.4206C24.7228 37.4206 25.4308 37.6246 25.9588 38.0446C26.4748 38.4646 26.7388 39.0406 26.7388 39.7846C26.7388 40.7206 26.2588 41.3446 25.3108 41.6566C25.8148 41.8126 26.2108 42.0406 26.4748 42.3526C26.7628 42.6766 26.9068 43.0966 26.9068 43.6006C26.9068 44.3926 26.6308 45.0406 26.0788 45.5446C25.5028 46.0606 24.7468 46.3246 23.8108 46.3246C22.9228 46.3246 22.2028 46.0966 21.6628 45.6406C21.0628 45.1366 20.7268 44.3926 20.6548 43.4326H22.0828C22.1068 43.9846 22.2748 44.4166 22.6108 44.7166C22.9108 44.9926 23.3068 45.1366 23.7988 45.1366C24.3388 45.1366 24.7708 44.9806 25.0828 44.6806C25.3588 44.4046 25.5028 44.0686 25.5028 43.6606C25.5028 43.1686 25.3468 42.8086 25.0588 42.5806C24.7708 42.3406 24.3508 42.2326 23.7988 42.2326H23.1988V41.1766H23.7988C24.3028 41.1766 24.6868 41.0686 24.9508 40.8526C25.2028 40.6366 25.3348 40.3126 25.3348 39.8926C25.3348 39.4726 25.2148 39.1606 24.9868 38.9446C24.7348 38.7286 24.3628 38.6206 23.8708 38.6206C23.3668 38.6206 22.9828 38.7406 22.7068 38.9926C22.4188 39.2446 22.2508 39.6286 22.2028 40.1446H20.8228C20.8948 39.2806 21.2068 38.6086 21.7828 38.1286C22.3228 37.6486 23.0188 37.4206 23.8588 37.4206ZM29.0261 44.3446C29.3501 44.3446 29.6261 44.4766 29.8421 44.7406C30.0461 45.0046 30.1541 45.3526 30.1541 45.7726C30.1541 46.4086 29.9621 46.9606 29.6021 47.4406C29.2301 47.9086 28.7261 48.2326 28.1021 48.4126V47.6206C28.4261 47.5006 28.7021 47.3086 28.9301 47.0446C29.1341 46.7566 29.2421 46.4806 29.2421 46.1926C29.1701 46.2166 29.0741 46.2406 28.9421 46.2406C28.6781 46.2406 28.4621 46.1446 28.2821 45.9646C28.1021 45.7846 28.0181 45.5566 28.0181 45.2926C28.0181 45.0046 28.1141 44.7766 28.3061 44.6086C28.4861 44.4286 28.7261 44.3446 29.0261 44.3446ZM34.4068 37.4206C35.2348 37.4206 35.9188 37.6606 36.4588 38.1406C36.9868 38.6206 37.2508 39.2326 37.2508 40.0006C37.2508 40.7446 36.9628 41.4166 36.4108 42.0286C36.0748 42.3886 35.4748 42.8446 34.6348 43.4086C33.7588 43.9846 33.2308 44.4886 33.0388 44.9206H37.2628V46.1566H31.2868C31.2868 45.2806 31.5628 44.5246 32.1388 43.8766C32.4508 43.5166 33.1108 42.9886 34.1068 42.3046C34.6588 41.9206 35.0428 41.5966 35.2828 41.3446C35.6548 40.9246 35.8468 40.4686 35.8468 39.9886C35.8468 39.5206 35.7148 39.1726 35.4748 38.9446C35.2228 38.7166 34.8508 38.6086 34.3588 38.6086C33.8308 38.6086 33.4348 38.7886 33.1708 39.1486C32.9068 39.4846 32.7628 40.0006 32.7388 40.6726H31.3348C31.3468 39.7126 31.6228 38.9446 32.1748 38.3566C32.7388 37.7326 33.4828 37.4206 34.4068 37.4206ZM38.9741 37.5886H44.1941V38.8246H40.1021L39.8621 41.1766H39.8981C40.1621 40.9126 40.4621 40.7206 40.8101 40.6006C41.1221 40.4806 41.4701 40.4206 41.8541 40.4206C42.6581 40.4206 43.3181 40.6846 43.8221 41.2126C44.3261 41.7406 44.5901 42.4726 44.5901 43.3966C44.5901 44.2846 44.2541 45.0046 43.5821 45.5686C42.9581 46.0726 42.2261 46.3246 41.3741 46.3246C40.5941 46.3246 39.9221 46.1086 39.3701 45.6886C38.7461 45.2206 38.4101 44.5846 38.3501 43.7926H39.7301C39.7901 44.2606 39.9701 44.6086 40.2821 44.8366C40.5461 45.0286 40.9181 45.1366 41.3861 45.1366C41.8901 45.1366 42.3221 44.9806 42.6701 44.6686C43.0061 44.3566 43.1861 43.9366 43.1861 43.4086C43.1861 42.8326 43.0301 42.3766 42.7421 42.0526C42.4541 41.7166 42.0221 41.5606 41.4701 41.5606C41.0981 41.5606 40.7741 41.6206 40.5101 41.7526C40.2101 41.8966 39.9821 42.1126 39.8141 42.4126H38.5061L38.9741 37.5886ZM48.6654 37.4206C49.6614 37.4206 50.4414 37.8286 51.0054 38.6686C51.5334 39.4606 51.7974 40.5286 51.7974 41.8726C51.7974 43.2166 51.5334 44.2846 51.0054 45.0766C50.4414 45.9046 49.6614 46.3246 48.6654 46.3246C47.6574 46.3246 46.8774 45.9046 46.3254 45.0766C45.7974 44.2846 45.5334 43.2166 45.5334 41.8726C45.5334 40.5286 45.7974 39.4606 46.3254 38.6686C46.8774 37.8286 47.6574 37.4206 48.6654 37.4206ZM48.6654 38.6086C47.9814 38.6086 47.5014 38.9806 47.2254 39.7486C47.0334 40.2646 46.9374 40.9726 46.9374 41.8726C46.9374 42.7606 47.0334 43.4686 47.2254 43.9966C47.5014 44.7526 47.9814 45.1366 48.6654 45.1366C49.3374 45.1366 49.8174 44.7526 50.1054 43.9966C50.2974 43.4686 50.3934 42.7606 50.3934 41.8726C50.3934 40.9726 50.2974 40.2646 50.1054 39.7486C49.8174 38.9806 49.3374 38.6086 48.6654 38.6086Z" fill="#333333"/>
<path d="M54.1221 42.3508H58.4858V42.7929H54.1221V42.3508ZM53.6358 44.2075H59.0352V44.6495H57.2923V47.0051C57.2923 47.1819 57.3807 47.2766 57.5701 47.2766H58.2711C58.41 47.2766 58.5048 47.2261 58.5553 47.1314C58.6311 47.0177 58.6753 46.6767 58.7005 46.1083L59.1173 46.2409C59.0731 46.9293 58.991 47.3461 58.8647 47.4913C58.7574 47.6176 58.5869 47.6871 58.3595 47.6871H57.4438C57.046 47.6871 56.8502 47.4913 56.8502 47.0998V44.6495H55.7135V44.7442C55.6945 45.5652 55.524 46.2283 55.2083 46.7272C54.8925 47.1882 54.3873 47.5482 53.6863 47.8071L53.44 47.4219C54.1221 47.1692 54.5957 46.8409 54.8673 46.4241C55.1199 45.9946 55.2588 45.4326 55.2714 44.7442V44.6495H53.6358V44.2075ZM61.9655 41.9782H62.4138L60.1783 47.7881H59.7236L61.9655 41.9782ZM68.2048 41.8267C68.369 41.8267 68.5079 41.8709 68.6216 41.9719C68.729 42.0603 68.7858 42.1866 68.7858 42.3382C68.7858 42.4645 68.7353 42.5845 68.6469 42.6981C68.5774 42.7739 68.4764 42.8623 68.3437 42.9507C68.249 43.0139 68.1669 43.0707 68.0974 43.1339C68.028 43.1907 67.9648 43.2539 67.9143 43.3297H68.7921V43.5759H67.5733C67.5733 43.3865 67.6491 43.2223 67.7943 43.077C67.8385 43.0202 67.9648 42.9192 68.1732 42.7802C68.2806 42.6981 68.3564 42.635 68.4069 42.5845C68.47 42.5087 68.5079 42.4266 68.5079 42.3508C68.5079 42.2624 68.4764 42.1929 68.4258 42.1424C68.3753 42.0919 68.2995 42.0666 68.1985 42.0666C68.0911 42.0666 68.009 42.0982 67.9522 42.1677C67.889 42.2371 67.8575 42.3382 67.8575 42.4771H67.5796C67.5796 42.2877 67.6364 42.1361 67.7564 42.0098C67.8701 41.8835 68.0217 41.8267 68.2048 41.8267ZM64.7125 43.8033C65.2177 43.8033 65.5588 44.0054 65.7419 44.4222C65.8682 44.2075 66.0198 44.0496 66.1903 43.9548C66.3482 43.8538 66.5439 43.8033 66.7713 43.8033C67.1123 43.8033 67.3838 43.9106 67.5922 44.1254C67.8006 44.3464 67.908 44.6432 67.908 45.0158V47.1566H67.4028V45.0979C67.4028 44.8074 67.3396 44.5927 67.2196 44.4537C67.0933 44.3022 66.8849 44.2327 66.6071 44.2327C66.3924 44.2327 66.2155 44.3085 66.0703 44.4727C65.9187 44.6369 65.8493 44.8453 65.8493 45.1105V47.1566H65.3441V45.0979C65.3441 44.5169 65.0914 44.2327 64.5926 44.2327C64.3589 44.2327 64.1694 44.3211 64.0179 44.5106C63.8663 44.6874 63.7905 44.9084 63.7905 45.1674V47.1566H63.2853V43.8917H63.7905V44.3274C64.0368 43.9738 64.3463 43.8033 64.7125 43.8033Z" fill="#333333"/>
<path d="M73.1748 42.7889C73.1748 41.045 74.5885 39.6313 76.3324 39.6313H105.017C106.761 39.6313 108.175 41.045 108.175 42.7889V46.999C108.175 48.7429 106.761 50.1566 105.017 50.1566H76.3324C74.5885 50.1566 73.1748 48.7429 73.1748 46.999V42.7889Z" fill="#E6F9FF"/>
<path d="M80.44 41.1899H81.144V47.4539L82.2 46.5339L82.592 46.9019L80.792 48.8379L78.992 46.9019L79.384 46.5339L80.44 47.4539V41.1899ZM87.736 42.1819H88.592V45.9259H89.44V46.6699H88.592V47.8939H87.704V46.6699H84.944V45.7819L87.736 42.1819ZM87.68 43.3659L85.704 45.9259H87.704V43.3659H87.68ZM90.6849 46.6859C90.8609 46.6859 91.0049 46.7419 91.1329 46.8699C91.2529 46.9899 91.3169 47.1419 91.3169 47.3179C91.3169 47.4939 91.2529 47.6379 91.1329 47.7659C91.0049 47.8779 90.8609 47.9419 90.6849 47.9419C90.5089 47.9419 90.3569 47.8779 90.2449 47.7659C90.1169 47.6379 90.0609 47.4939 90.0609 47.3179C90.0609 47.1419 90.1169 46.9899 90.2449 46.8699C90.3569 46.7419 90.5089 46.6859 90.6849 46.6859ZM94.28 42.0699C94.832 42.0699 95.288 42.2299 95.648 42.5499C96 42.8699 96.176 43.2779 96.176 43.7899C96.176 44.2859 95.984 44.7339 95.616 45.1419C95.392 45.3819 94.992 45.6859 94.432 46.0619C93.848 46.4459 93.496 46.7819 93.368 47.0699H96.184V47.8939H92.2C92.2 47.3099 92.384 46.8059 92.768 46.3739C92.976 46.1339 93.416 45.7819 94.08 45.3259C94.448 45.0699 94.704 44.8539 94.864 44.6859C95.112 44.4059 95.24 44.1019 95.24 43.7819C95.24 43.4699 95.152 43.2379 94.992 43.0859C94.824 42.9339 94.576 42.8619 94.248 42.8619C93.896 42.8619 93.632 42.9819 93.456 43.2219C93.28 43.4459 93.184 43.7899 93.168 44.2379H92.232C92.24 43.5979 92.424 43.0859 92.792 42.6939C93.168 42.2779 93.664 42.0699 94.28 42.0699ZM102.645 44.7659C103.093 44.7659 103.437 44.9179 103.677 45.2379C103.885 45.5099 103.997 45.8779 103.997 46.3339C103.997 46.7819 103.885 47.1499 103.677 47.4299C103.437 47.7339 103.093 47.8939 102.645 47.8939C102.197 47.8939 101.845 47.7339 101.605 47.4299C101.381 47.1419 101.277 46.7819 101.277 46.3339C101.277 45.8779 101.381 45.5099 101.605 45.2379C101.845 44.9179 102.197 44.7659 102.645 44.7659ZM101.829 42.0699H102.525L99.3169 48.0059H98.6209L101.829 42.0699ZM98.5169 42.1819C98.9649 42.1819 99.3089 42.3339 99.5489 42.6539C99.7569 42.9259 99.8689 43.2939 99.8689 43.7499C99.8689 44.1979 99.7569 44.5659 99.5489 44.8459C99.3089 45.1499 98.9649 45.3099 98.5169 45.3099C98.0689 45.3099 97.7169 45.1499 97.4769 44.8459C97.2529 44.5579 97.1489 44.1979 97.1489 43.7499C97.1489 43.2939 97.2529 42.9259 97.4769 42.6539C97.7169 42.3339 98.0689 42.1819 98.5169 42.1819ZM102.645 45.3499C102.445 45.3499 102.301 45.4539 102.221 45.6619C102.157 45.8219 102.125 46.0459 102.125 46.3339C102.125 46.6139 102.157 46.8379 102.221 46.9979C102.301 47.2059 102.445 47.3099 102.645 47.3099C102.837 47.3099 102.973 47.1979 103.061 46.9819C103.117 46.8219 103.149 46.6059 103.149 46.3339C103.149 46.0459 103.117 45.8299 103.053 45.6699C102.973 45.4539 102.837 45.3499 102.645 45.3499ZM98.5169 42.7659C98.3169 42.7659 98.1729 42.8699 98.0929 43.0779C98.0289 43.2379 97.9969 43.4619 97.9969 43.7499C97.9969 44.0299 98.0289 44.2539 98.0929 44.4139C98.1729 44.6219 98.3169 44.7259 98.5169 44.7259C98.7089 44.7259 98.8449 44.6139 98.9329 44.3979C98.9889 44.2379 99.0209 44.0219 99.0209 43.7499C99.0209 43.4619 98.9889 43.2459 98.9249 43.0859C98.8449 42.8699 98.7089 42.7659 98.5169 42.7659Z" fill="#2EB8E6"/>
<path d="M30.0974 67.0414L20.6744 72.0454L20.6744 94.1485L146.187 94.1485L146.187 34.681L141.784 41.1056C127.224 62.3487 100.344 71.3459 75.6903 63.2286C60.5396 58.2402 44.0789 59.6168 30.0974 67.0414Z" fill="url(#paint0_linear_2548_6082)" fill-opacity="0.3"/>
<path d="M20.4865 71.6961C20.2949 71.7979 20.2236 72.0367 20.3274 72.2296C20.4312 72.4225 20.6706 72.4963 20.8622 72.3946L20.6744 72.0454L20.4865 71.6961ZM146.514 34.9067C146.636 34.7277 146.59 34.4816 146.409 34.357C146.229 34.2323 145.984 34.2763 145.861 34.4552L146.187 34.681L146.514 34.9067ZM75.6903 63.2286L75.5706 63.6035L75.6903 63.2286ZM141.784 41.1056L141.458 40.8799L141.784 41.1056ZM20.6744 72.0454L20.8622 72.3946L30.2853 67.3906L30.0974 67.0414L29.9095 66.6922L20.4865 71.6961L20.6744 72.0454ZM141.784 41.1056L142.11 41.3313L146.514 34.9067L146.187 34.681L145.861 34.4552L141.458 40.8799L141.784 41.1056ZM75.6903 63.2286L75.5706 63.6035C100.391 71.7756 127.452 62.7177 142.11 41.3313L141.784 41.1056L141.458 40.8799C126.996 61.9797 100.297 70.9162 75.81 62.8537L75.6903 63.2286ZM30.0974 67.0414L30.2853 67.3906C44.1724 60.016 60.5222 58.6488 75.5706 63.6035L75.6903 63.2286L75.81 62.8537C60.5571 57.8316 43.9853 59.2175 29.9095 66.6922L30.0974 67.0414Z" fill="#30C4F6"/>
<path d="M118.295 80.9918V30.7339" stroke="#CBCED3" stroke-width="0.52626" stroke-dasharray="1.05 1.05"/>
<circle cx="118.033" cy="60.4671" r="3.026" fill="white" stroke="#29A5CF" stroke-width="0.789391"/>
</g>
</g>
<path d="M8.84118 0V0.368382H158.159V0V-0.368382H8.84118V0ZM167 8.84118H166.632V76.6235H167H167.368V8.84118H167ZM158.159 85.4647V85.0963H8.84117V85.4647V85.8331H158.159V85.4647ZM0 76.6235H0.368382V8.84119H0H-0.368382V76.6235H0ZM8.84117 85.4647V85.0963C4.16178 85.0963 0.368382 81.3029 0.368382 76.6235H0H-0.368382C-0.368382 81.7098 3.75487 85.8331 8.84117 85.8331V85.4647ZM167 76.6235H166.632C166.632 81.3029 162.838 85.0963 158.159 85.0963V85.4647V85.8331C163.245 85.8331 167.368 81.7098 167.368 76.6235H167ZM158.159 0V0.368382C162.838 0.368382 166.632 4.16178 166.632 8.84118H167H167.368C167.368 3.75488 163.245 -0.368382 158.159 -0.368382V0ZM8.84118 0V-0.368382C3.75488 -0.368382 -0.368382 3.75489 -0.368382 8.84119H0H0.368382C0.368382 4.1618 4.16178 0.368382 8.84118 0.368382V0Z" fill="#E6F9FF" mask="url(#path-1-inside-1_2548_6082)"/>
<defs>
<linearGradient id="paint0_linear_2548_6082" x1="82.773" y1="58.3628" x2="83.8215" y2="83.1083" gradientUnits="userSpaceOnUse">
<stop stop-color="#6BDAFF"/>
<stop offset="1" stop-color="#6BDAFF" stop-opacity="0"/>
</linearGradient>
<clipPath id="clip0_2548_6082">
<path d="M0 8.84119C0 3.95834 3.95833 0 8.84117 0H158.159C163.042 0 167 3.95833 167 8.84117V76.6235C167 81.5064 163.042 85.4647 158.159 85.4647H8.84117C3.95832 85.4647 0 81.5064 0 76.6235V8.84119Z" fill="white"/>
</clipPath>
<clipPath id="clip1_2548_6082">
<path d="M10.0693 14.7354C10.0693 11.4802 12.7082 8.84131 15.9635 8.84131H150.791C154.454 8.84131 157.422 11.8101 157.422 15.4722V85.6753H10.0693V14.7354Z" fill="white"/>
</clipPath>
<clipPath id="clip2_2548_6082">
<rect width="12" height="12" fill="white" transform="translate(18.0693 15.9464)"/>
</clipPath>
</defs>
</svg>
