<svg width="167" height="86" viewBox="0 0 167 86" fill="none" xmlns="http://www.w3.org/2000/svg">
<g clip-path="url(#clip0_2548_6113)">
<mask id="path-1-inside-1_2548_6113" fill="white">
<path d="M0 8.84119C0 3.95834 3.95833 0 8.84117 0H158.159C163.042 0 167 3.95833 167 8.84117V76.6235C167 81.5064 163.042 85.4647 158.159 85.4647H8.84117C3.95832 85.4647 0 81.5064 0 76.6235V8.84119Z"/>
</mask>
<path d="M0 8.84119C0 3.95834 3.95833 0 8.84117 0H158.159C163.042 0 167 3.95833 167 8.84117V76.6235C167 81.5064 163.042 85.4647 158.159 85.4647H8.84117C3.95832 85.4647 0 81.5064 0 76.6235V8.84119Z" fill="#FFF4E6"/>
<g clip-path="url(#clip1_2548_6113)">
<path d="M10.0693 15.1564C10.0693 11.6687 12.8967 8.84131 16.3845 8.84131H151.107C154.595 8.84131 157.422 11.6687 157.422 15.1564V85.6753H10.0693V15.1564Z" fill="white"/>
<g clip-path="url(#clip2_2548_6113)">
<path d="M22.5764 18.3259C21.9652 18.5793 21.4153 18.9505 20.9547 19.411C20.0499 20.3159 19.4902 21.5659 19.4902 22.9466C19.4902 25.708 21.7288 27.9466 24.4902 27.9466C25.8709 27.9466 27.1209 27.3869 28.0258 26.4821C28.4863 26.0215 28.8575 25.4716 29.1109 24.8604" stroke="#FF9902" stroke-width="0.847059" stroke-linecap="round" stroke-linejoin="round"/>
<path d="M24.4893 22.9458H29.4893C29.4893 20.1844 27.2507 17.9458 24.4893 17.9458V22.9458Z" stroke="#FF9902" stroke-width="0.847059" stroke-linejoin="round"/>
</g>
<path d="M34.9483 19.5344H43.0573V20.4434H41.9413V26.3114C41.9413 26.9774 41.6173 27.3194 40.9873 27.3194H39.4663L39.2503 26.4104C39.7363 26.4464 40.2133 26.4644 40.6633 26.4644C40.8793 26.4644 40.9963 26.3294 40.9963 26.0774V20.4434H34.9483V19.5344ZM39.6283 21.5234V25.0514H36.8113V25.7714H35.9113V21.5234H39.6283ZM36.8113 24.2054H38.7373V22.3604H36.8113V24.2054ZM45.0643 23.9714C44.7763 24.2594 44.4613 24.5384 44.1283 24.8264L43.8313 23.8364C44.9473 22.9004 45.7033 21.9824 46.1083 21.0914H44.0383V20.1914H45.2623C45.1273 19.8584 44.9833 19.5344 44.8213 19.2284L45.7123 18.9764C45.8923 19.4174 46.0453 19.8224 46.1533 20.1914H47.0533V20.9834C46.8283 21.6134 46.4863 22.2434 46.0273 22.8644C46.4863 23.1524 46.9093 23.4674 47.3053 23.8274L46.7743 24.6374C46.5043 24.3404 46.2433 24.0884 45.9913 23.8724V27.3824H45.0643V23.9714ZM51.5443 19.3364V24.4394H50.5903V20.2364H48.4213V24.4394H47.4853V19.3364H51.5443ZM51.2383 27.2384H50.3383C49.7713 27.2384 49.4923 26.9324 49.4923 26.3204V25.0964C49.4023 25.3214 49.3123 25.5284 49.2133 25.7174C48.7723 26.4734 48.0703 27.0494 47.0983 27.4634L46.5853 26.6354C47.5303 26.2214 48.1693 25.6994 48.5023 25.0784C48.8263 24.4034 49.0063 23.5304 49.0423 22.4684V20.7764H49.9423V22.4684C49.9153 23.1974 49.8343 23.8454 49.6993 24.4124H50.4103V26.1224C50.4103 26.2934 50.4733 26.3834 50.6173 26.3834H51.0673C51.1483 26.3834 51.2113 26.3384 51.2563 26.2484C51.3013 26.1404 51.3373 25.8524 51.3553 25.3664L52.2283 25.6454C52.1653 26.4194 52.0573 26.8874 51.9133 27.0314C51.7603 27.1664 51.5353 27.2384 51.2383 27.2384ZM55.4503 18.9674L56.3323 19.3814C56.0353 20.1104 55.6393 20.8034 55.1533 21.4604V27.4004H54.2173V22.5584C53.8663 22.9094 53.4883 23.2514 53.0923 23.5844L52.7863 22.6034C53.9833 21.5774 54.8743 20.3624 55.4503 18.9674ZM59.7793 27.2384H58.1053C57.3493 27.2384 56.9713 26.8604 56.9713 26.1134V23.6744C56.6653 23.8364 56.3503 23.9894 56.0353 24.1424L55.6123 23.2514C56.0893 23.0354 56.5393 22.8104 56.9713 22.5764V19.1204H57.9073V22.0004C58.7623 21.4244 59.5183 20.7764 60.1753 20.0564L60.8323 20.8034C59.9683 21.6854 58.9963 22.4594 57.9073 23.1344V25.9784C57.9073 26.2214 58.0423 26.3474 58.3213 26.3474H59.6173C59.8153 26.3474 59.9593 26.2754 60.0493 26.1494C60.1393 26.0144 60.1933 25.5464 60.2113 24.7454L61.0753 25.0424C61.0123 26.0774 60.8953 26.7074 60.7243 26.9234C60.5533 27.1304 60.2383 27.2384 59.7793 27.2384ZM65.0083 22.5314V23.4674C64.7023 23.6114 64.3873 23.7554 64.0813 23.8904V26.4284C64.0813 27.0404 63.7753 27.3554 63.1813 27.3554H62.3263L62.1103 26.4554C62.3713 26.4914 62.6143 26.5184 62.8483 26.5184C63.0463 26.5184 63.1543 26.4104 63.1543 26.1944V24.2594C62.7763 24.4034 62.3893 24.5294 62.0113 24.6464L61.7773 23.7194C62.2453 23.6204 62.7043 23.4944 63.1543 23.3414V21.5054H61.9573V20.6144H63.1543V19.0844H64.0813V20.6144H64.9903V21.5054H64.0813V22.9814C64.3873 22.8374 64.7023 22.6934 65.0083 22.5314ZM66.2233 23.4134V27.3914H65.3323V19.3454H69.5623C69.5623 20.4254 69.4993 21.1544 69.3823 21.5144C69.2563 21.8564 68.8873 22.0274 68.2753 22.0274H67.5913L67.3393 21.2264C67.4743 21.2264 67.6453 21.2354 67.8523 21.2354C68.0593 21.2354 68.2123 21.2264 68.3203 21.2084C68.4103 21.1814 68.4913 21.1274 68.5453 21.0374C68.5993 20.9204 68.6443 20.6414 68.6623 20.1914H66.2233V22.5584H69.6163V23.3684C69.4813 24.2774 69.2023 25.0604 68.7793 25.7084C69.1843 26.0594 69.6613 26.3834 70.2103 26.6804L69.5803 27.4094C69.0673 27.0854 68.6263 26.7434 68.2483 26.3834C67.8343 26.8064 67.3483 27.1484 66.7903 27.4184L66.3403 26.5904C66.8443 26.3474 67.2673 26.0414 67.6093 25.6814C67.0513 24.9794 66.7003 24.2234 66.5653 23.4134H66.2233ZM67.3933 23.4134C67.5103 23.9894 67.7533 24.5204 68.1223 25.0064C68.4013 24.5384 68.6083 24.0074 68.7343 23.4134H67.3933ZM78.0673 23.9264V27.3824H77.1133V26.9594H72.9193V27.3824H71.9653V23.9264H78.0673ZM72.9193 26.0774H77.1133V24.8084H72.9193V26.0774ZM72.6763 21.1184C72.3703 21.5234 72.0103 21.8924 71.6143 22.2254L71.0563 21.4874C71.8483 20.8484 72.3793 20.0654 72.6583 19.1474L73.5943 19.2554C73.4953 19.5974 73.3693 19.9124 73.2253 20.2184H74.6293V19.0484H75.5743V20.2184H78.4093V21.1184H75.5743V22.2794H79.1023V23.1974H70.8763V22.2794H74.6293V21.1184H72.6763Z" fill="#333333"/>
<path d="M43.4893 35.2615C46.8033 35.2615 50.0702 36.0458 53.0231 37.5503C55.9759 39.0549 58.5307 41.2369 60.4786 43.918C62.4265 46.5991 63.7123 49.7031 64.2307 52.9763C64.7491 56.2496 64.4855 59.599 63.4614 62.7508C62.4374 65.9026 60.6819 68.7673 58.3385 71.1107C55.9951 73.4541 53.1304 75.2096 49.9786 76.2337C46.8268 77.2577 43.4774 77.5214 40.2041 77.0029C36.9309 76.4845 33.8269 75.1988 31.1458 73.2508L35.5397 67.203C37.2664 68.4576 39.2655 69.2856 41.3736 69.6195C43.4816 69.9534 45.6387 69.7836 47.6686 69.1241C49.6984 68.4645 51.5434 67.3339 53.0525 65.8248C54.5617 64.3156 55.6923 62.4706 56.3518 60.4408C57.0114 58.4109 57.1812 56.2538 56.8473 54.1458C56.5134 52.0377 55.6853 50.0386 54.4308 48.312C53.1763 46.5853 51.5309 45.18 49.6293 44.211C47.7276 43.2421 45.6236 42.7369 43.4893 42.7369L43.4893 35.2615Z" fill="#FFE7C5"/>
<path d="M31.1458 73.2508C27.558 70.6441 24.8875 66.9685 23.5171 62.7508C22.1467 58.5331 22.1467 53.9898 23.5171 49.7721C24.8875 45.5544 27.558 41.8788 31.1458 39.2721C34.7336 36.6654 39.0545 35.2615 43.4893 35.2615L43.4893 42.5249C40.5884 42.5249 37.7619 43.4432 35.4151 45.1483C33.0682 46.8534 31.3214 49.2577 30.425 52.0166C29.5285 54.7755 29.5285 57.7474 30.425 60.5063C31.3214 63.2652 33.0682 65.6695 35.4151 67.3746L31.1458 73.2508Z" fill="#FEA522"/>
<rect opacity="0.4" x="72.4893" y="35.2615" width="76.5126" height="10" rx="2" fill="#FFEFD2"/>
<rect opacity="0.4" x="72.4893" y="51.2615" width="76.5126" height="10" rx="2" fill="#FFEFD2"/>
<rect opacity="0.4" x="72.4893" y="67.2615" width="35.255" height="10" rx="2" fill="#FFEFD2"/>
<path d="M38.4853 51.2731H39.7693V56.8891H41.0413V58.0051H39.7693V59.8411H38.4373V58.0051H34.2973V56.6731L38.4853 51.2731ZM38.4013 53.0491L35.4373 56.8891H38.4373V53.0491H38.4013ZM44.8646 51.1051C45.8606 51.1051 46.6406 51.5131 47.2046 52.3531C47.7326 53.1451 47.9966 54.2131 47.9966 55.5571C47.9966 56.9011 47.7326 57.9691 47.2046 58.7611C46.6406 59.5891 45.8606 60.0091 44.8646 60.0091C43.8566 60.0091 43.0766 59.5891 42.5246 58.7611C41.9966 57.9691 41.7326 56.9011 41.7326 55.5571C41.7326 54.2131 41.9966 53.1451 42.5246 52.3531C43.0766 51.5131 43.8566 51.1051 44.8646 51.1051ZM44.8646 52.2931C44.1806 52.2931 43.7006 52.6651 43.4246 53.4331C43.2326 53.9491 43.1366 54.6571 43.1366 55.5571C43.1366 56.4451 43.2326 57.1531 43.4246 57.6811C43.7006 58.4371 44.1806 58.8211 44.8646 58.8211C45.5366 58.8211 46.0166 58.4371 46.3046 57.6811C46.4966 57.1531 46.5926 56.4451 46.5926 55.5571C46.5926 54.6571 46.4966 53.9491 46.3046 53.4331C46.0166 52.6651 45.5366 52.2931 44.8646 52.2931ZM53.2405 57.3719C53.5942 57.3719 53.8657 57.4918 54.0552 57.7444C54.2194 57.9592 54.3078 58.2497 54.3078 58.6096C54.3078 58.9633 54.2194 59.2538 54.0552 59.4748C53.8657 59.7148 53.5942 59.8411 53.2405 59.8411C52.8869 59.8411 52.609 59.7148 52.4195 59.4748C52.2427 59.2474 52.1606 58.9633 52.1606 58.6096C52.1606 58.2497 52.2427 57.9592 52.4195 57.7444C52.609 57.4918 52.8869 57.3719 53.2405 57.3719ZM52.5964 55.2437H53.1458L50.6134 59.9295H50.064L52.5964 55.2437ZM49.9819 55.3321C50.3356 55.3321 50.6071 55.4521 50.7966 55.7047C50.9608 55.9194 51.0492 56.2099 51.0492 56.5698C51.0492 56.9235 50.9608 57.214 50.7966 57.435C50.6071 57.675 50.3356 57.8013 49.9819 57.8013C49.6283 57.8013 49.3504 57.675 49.1609 57.435C48.9841 57.2077 48.902 56.9235 48.902 56.5698C48.902 56.2099 48.9841 55.9194 49.1609 55.7047C49.3504 55.4521 49.6283 55.3321 49.9819 55.3321ZM53.2405 57.8329C53.0826 57.8329 52.969 57.915 52.9058 58.0791C52.8553 58.2054 52.83 58.3823 52.83 58.6096C52.83 58.8306 52.8553 59.0075 52.9058 59.1338C52.969 59.298 53.0826 59.3801 53.2405 59.3801C53.3921 59.3801 53.4994 59.2916 53.5689 59.1211C53.6131 58.9948 53.6384 58.8243 53.6384 58.6096C53.6384 58.3823 53.6131 58.2118 53.5626 58.0855C53.4994 57.915 53.3921 57.8329 53.2405 57.8329ZM49.9819 55.7931C49.824 55.7931 49.7104 55.8752 49.6472 56.0394C49.5967 56.1657 49.5714 56.3425 49.5714 56.5698C49.5714 56.7909 49.5967 56.9677 49.6472 57.094C49.7104 57.2582 49.824 57.3403 49.9819 57.3403C50.1335 57.3403 50.2408 57.2519 50.3103 57.0814C50.3545 56.9551 50.3798 56.7845 50.3798 56.5698C50.3798 56.3425 50.3545 56.172 50.304 56.0457C50.2408 55.8752 50.1335 55.7931 49.9819 55.7931Z" fill="#333333"/>
<path d="M18.4893 85.6816C18.4893 83.3565 20.3742 81.4716 22.6993 81.4716H144.792C147.117 81.4716 149.002 83.3565 149.002 85.6816V92.4716C149.002 94.7967 147.117 96.6816 144.792 96.6816H22.6993C20.3742 96.6816 18.4893 94.7967 18.4893 92.4716V85.6816Z" fill="#F7F8FA"/>
<rect x="9.82422" y="70.8347" width="147.353" height="14.7353" fill="url(#paint0_linear_2548_6113)"/>
</g>
</g>
<path d="M8.84118 0V0.368382H158.159V0V-0.368382H8.84118V0ZM167 8.84118H166.632V76.6235H167H167.368V8.84118H167ZM158.159 85.4647V85.0963H8.84117V85.4647V85.8331H158.159V85.4647ZM0 76.6235H0.368382V8.84119H0H-0.368382V76.6235H0ZM8.84117 85.4647V85.0963C4.16178 85.0963 0.368382 81.3029 0.368382 76.6235H0H-0.368382C-0.368382 81.7098 3.75487 85.8331 8.84117 85.8331V85.4647ZM167 76.6235H166.632C166.632 81.3029 162.838 85.0963 158.159 85.0963V85.4647V85.8331C163.245 85.8331 167.368 81.7098 167.368 76.6235H167ZM158.159 0V0.368382C162.838 0.368382 166.632 4.16178 166.632 8.84118H167H167.368C167.368 3.75488 163.245 -0.368382 158.159 -0.368382V0ZM8.84118 0V-0.368382C3.75488 -0.368382 -0.368382 3.75489 -0.368382 8.84119H0H0.368382C0.368382 4.1618 4.16178 0.368382 8.84118 0.368382V0Z" fill="#FFEFD2" mask="url(#path-1-inside-1_2548_6113)"/>
<defs>
<linearGradient id="paint0_linear_2548_6113" x1="62.5029" y1="85.57" x2="62.5029" y2="70.8347" gradientUnits="userSpaceOnUse">
<stop stop-color="white"/>
<stop offset="1" stop-color="white" stop-opacity="0"/>
</linearGradient>
<clipPath id="clip0_2548_6113">
<path d="M0 8.84119C0 3.95834 3.95833 0 8.84117 0H158.159C163.042 0 167 3.95833 167 8.84117V76.6235C167 81.5064 163.042 85.4647 158.159 85.4647H8.84117C3.95832 85.4647 0 81.5064 0 76.6235V8.84119Z" fill="white"/>
</clipPath>
<clipPath id="clip1_2548_6113">
<path d="M10.0693 15.1564C10.0693 11.6687 12.8967 8.84131 16.3845 8.84131H151.107C154.595 8.84131 157.422 11.6687 157.422 15.1564V85.6753H10.0693V15.1564Z" fill="white"/>
</clipPath>
<clipPath id="clip2_2548_6113">
<rect width="12" height="12" fill="white" transform="translate(18.4893 16.9464)"/>
</clipPath>
</defs>
</svg>
