<svg width="142" height="28" viewBox="0 0 142 28" fill="none" xmlns="http://www.w3.org/2000/svg">
<path d="M23.889 2.38066V27.5226C22.5665 27.5226 21.2857 27.3973 20.0328 27.5504C18.4875 27.7453 17.6244 27.0771 16.7334 25.9077C13.2113 21.2719 9.57788 16.7336 5.97225 12.1534C5.88873 12.056 5.8052 11.9585 5.6103 11.7358V27.4669H0V2.31105C1.22508 2.31105 2.43624 2.4085 3.61955 2.28321C5.12305 2.11615 6.09755 2.63124 7.03028 3.87024C10.5245 8.49212 14.158 13.0166 17.7358 17.5828C17.8611 17.7359 17.9864 17.9029 18.223 18.1814V2.38066H23.9029H23.889Z" fill="url(#paint0_linear_1741_3725)"/>
<path d="M73.5185 27.4809C73.5185 27.105 73.5185 26.7987 73.5185 26.5064C73.5185 23.4715 73.5185 20.4227 73.5185 17.3879C73.5185 17.0399 73.4906 16.6918 73.4489 16.3438C73.1983 14.7289 72.2516 13.7962 70.7342 13.6431C69.2307 13.5038 67.8525 14.3391 67.3931 15.8009C67.1703 16.4969 67.059 17.2487 67.0451 17.9865C67.0033 20.7012 67.0311 23.4158 67.0311 26.1305C67.0311 26.5621 67.0311 26.9936 67.0311 27.4809H61.741C61.741 27.1885 61.741 26.9379 61.741 26.6873C61.741 23.6664 61.741 20.6594 61.7271 17.6385C61.7271 17.0816 61.6853 16.5248 61.5601 15.9818C61.1842 14.4783 60.1401 13.6291 58.6923 13.6152C57.2027 13.6013 55.9637 14.4783 55.5739 15.9122C55.4068 16.5526 55.3094 17.2348 55.3094 17.903C55.2815 20.8265 55.3094 23.7499 55.2955 26.6734C55.2955 26.924 55.2676 27.1746 55.2537 27.4669H50.1585V9.20215H55.2676V11.2347C56.7015 9.32744 58.6366 8.65922 60.8501 8.74274C63.0914 8.84019 64.8455 9.82861 66.001 11.8611C66.1123 11.7358 66.1959 11.6662 66.2515 11.5688C68.2841 8.54785 72.4883 7.99099 75.4535 9.59194C76.9431 10.3994 77.8759 11.6801 78.3353 13.2672C78.5858 14.1442 78.7668 15.0909 78.7807 15.9958C78.8225 19.6571 78.7947 23.3323 78.7807 26.9936C78.7807 27.1328 78.7529 27.2581 78.739 27.4391H73.4906L73.5185 27.4809Z" fill="url(#paint1_linear_1741_3725)"/>
<path d="M127.115 11.0258V9.20212H132.225V27.4808H127.143V25.5179C126.976 25.6154 126.893 25.6293 126.837 25.685C125.542 27.2999 123.802 27.9124 121.811 27.9542C117.593 28.0516 113.974 25.2813 113.027 21.1605C112.136 17.2347 112.735 13.6291 115.881 10.8588C118.415 8.61742 121.436 8.15801 124.596 9.34133C125.487 9.67544 126.238 10.4272 127.115 11.0258ZM117.9 18.2788C117.9 20.9935 119.96 23.0538 122.633 23.0538C125.18 23.0538 127.157 20.9935 127.157 18.4041C127.157 15.5781 125.264 13.6152 122.577 13.6291C119.918 13.6291 117.9 15.6477 117.913 18.2927L117.9 18.2788Z" fill="url(#paint2_linear_1741_3725)"/>
<path d="M96.2936 11.2346V9.20211H101.333V27.4808H96.3215V25.5875C96.1962 25.5875 96.1266 25.5597 96.1127 25.5736C93.8574 28.2604 90.9618 28.4414 87.9408 27.4391C84.2795 26.2279 82.4001 23.4019 81.9129 19.7127C81.4117 15.8426 82.6229 12.5432 85.8944 10.2184C88.5951 8.29722 92.4653 8.25546 94.9293 10.0235C95.3748 10.3437 95.7646 10.7474 96.3076 11.2346H96.2936ZM91.7274 13.6291C89.152 13.6291 87.1612 15.6198 87.1473 18.2231C87.1473 20.9517 89.1381 23.0399 91.7553 23.0538C94.3586 23.0538 96.3215 21.0213 96.3215 18.2788C96.3215 15.6198 94.3725 13.643 91.7274 13.6291Z" fill="url(#paint3_linear_1741_3725)"/>
<path d="M37.2674 27.982C33.3973 27.8288 30.3346 26.3949 28.4831 22.9981C26.7151 19.7405 26.7568 16.4133 28.7337 13.2671C30.8636 9.89814 34.0794 8.53385 38.0053 8.79836C40.6642 8.97934 42.9473 10.0234 44.6875 12.0838C47.1377 14.9655 47.7224 18.2649 46.4416 21.787C45.1747 25.2255 42.5436 27.1606 38.9519 27.801C38.3533 27.9124 37.7547 27.9402 37.2674 27.982ZM41.6805 18.3345C41.6805 15.6477 39.7176 13.6151 37.1421 13.6291C34.5667 13.6291 32.6038 15.6616 32.6038 18.3484C32.6038 21.0074 34.5667 23.0538 37.1421 23.0538C39.7037 23.0538 41.6805 20.9934 41.6805 18.3345Z" fill="url(#paint4_linear_1741_3725)"/>
<path d="M136.053 9.18814H141.023V27.4669H136.053V9.18814Z" fill="url(#paint5_linear_1741_3725)"/>
<path d="M110.688 24.5713C110.688 26.4507 109.31 27.8707 107.487 27.8707C105.746 27.8707 104.382 26.4089 104.396 24.5435C104.396 22.6919 105.788 21.2302 107.528 21.2302C109.31 21.2302 110.688 22.6919 110.688 24.5713Z" fill="url(#paint6_linear_1741_3725)"/>
<path d="M141.775 3.25769C141.775 5.05354 140.341 6.50136 138.573 6.48744C136.861 6.47352 135.427 5.01178 135.454 3.3273C135.482 1.46184 136.916 -0.0138236 138.67 9.76919e-05C140.383 9.76919e-05 141.775 1.47576 141.761 3.25769H141.775Z" fill="url(#paint7_linear_1741_3725)"/>
<defs>
<linearGradient id="paint0_linear_1741_3725" x1="141.387" y1="24.5" x2="20.4554" y2="3.77015" gradientUnits="userSpaceOnUse">
<stop stop-color="#8477FF"/>
<stop offset="1" stop-color="#5AA8FF"/>
</linearGradient>
<linearGradient id="paint1_linear_1741_3725" x1="141.387" y1="24.5" x2="20.4554" y2="3.77015" gradientUnits="userSpaceOnUse">
<stop stop-color="#8477FF"/>
<stop offset="1" stop-color="#5AA8FF"/>
</linearGradient>
<linearGradient id="paint2_linear_1741_3725" x1="141.387" y1="24.5" x2="20.4554" y2="3.77015" gradientUnits="userSpaceOnUse">
<stop stop-color="#8477FF"/>
<stop offset="1" stop-color="#5AA8FF"/>
</linearGradient>
<linearGradient id="paint3_linear_1741_3725" x1="141.387" y1="24.5" x2="20.4554" y2="3.77015" gradientUnits="userSpaceOnUse">
<stop stop-color="#8477FF"/>
<stop offset="1" stop-color="#5AA8FF"/>
</linearGradient>
<linearGradient id="paint4_linear_1741_3725" x1="141.387" y1="24.5" x2="20.4554" y2="3.77015" gradientUnits="userSpaceOnUse">
<stop stop-color="#8477FF"/>
<stop offset="1" stop-color="#5AA8FF"/>
</linearGradient>
<linearGradient id="paint5_linear_1741_3725" x1="141.387" y1="24.5" x2="20.4554" y2="3.77015" gradientUnits="userSpaceOnUse">
<stop stop-color="#8477FF"/>
<stop offset="1" stop-color="#5AA8FF"/>
</linearGradient>
<linearGradient id="paint6_linear_1741_3725" x1="141.387" y1="24.5" x2="20.4554" y2="3.77015" gradientUnits="userSpaceOnUse">
<stop stop-color="#8477FF"/>
<stop offset="1" stop-color="#5AA8FF"/>
</linearGradient>
<linearGradient id="paint7_linear_1741_3725" x1="141.387" y1="24.5" x2="20.4554" y2="3.77015" gradientUnits="userSpaceOnUse">
<stop stop-color="#8477FF"/>
<stop offset="1" stop-color="#5AA8FF"/>
</linearGradient>
</defs>
</svg>
