<svg preserveAspectRatio="none" width="100%" height="100%" overflow="visible" style="display: block;" viewBox="0 0 7 6.65" fill="none" xmlns="http://www.w3.org/2000/svg">
<path id="Vector" d="M0.179079 6.14277C0.428747 6.38591 0.825278 6.38591 1.07465 6.14277L3.56516 3.66532C3.69053 3.5331 3.76047 3.3575 3.76049 3.1749C3.77158 3.08861 3.76266 3.00091 3.73443 2.91866C3.7062 2.8364 3.65943 2.76181 3.59776 2.70072L1.10696 0.182253C0.986996 0.0653683 0.826442 0 0.659322 0C0.492202 0 0.331648 0.0653683 0.211683 0.182253C0.0938984 0.30825 0.0295726 0.475557 0.0325099 0.648471C0.0304287 0.73172 0.0452412 0.814523 0.0760449 0.891836C0.106849 0.969148 0.152998 1.03935 0.211683 1.09817L2.24662 3.15041L0.179079 5.22715C0.120448 5.28599 0.074352 5.3562 0.0435992 5.43351C0.0128464 5.51082 -0.00191976 5.59362 0.000199757 5.67684C-0.00273751 5.84976 0.0610009 6.01677 0.179079 6.14277ZM4.3873 6.65H6.34881C6.52151 6.65 6.68715 6.58108 6.80927 6.4584C6.93139 6.33571 7 6.16932 7 5.99582C7 5.82232 6.93139 5.65593 6.80927 5.53324C6.68715 5.41056 6.52151 5.34164 6.34881 5.34164H4.3873C4.21459 5.34164 4.04896 5.41056 3.92684 5.53324C3.80472 5.65593 3.73611 5.82232 3.73611 5.99582C3.73611 6.16932 3.80472 6.33571 3.92684 6.4584C4.04896 6.58108 4.21459 6.65 4.3873 6.65Z" fill="var(--fill-0, white)"/>
</svg>
