<svg preserveAspectRatio="none" width="100%" height="100%" overflow="visible" style="display: block;" viewBox="0 0 25.0211 23.3157" fill="none" xmlns="http://www.w3.org/2000/svg">
<g id="&#229;&#175;&#185;&#232;&#175;&#157;">
<g id="Vector" filter="url(#filter0_d_19922_104914)">
<path d="M4.95973 13.7191V15.793C4.95973 16.0021 5.06426 16.1581 5.22031 16.2626L5.22218 16.2638C5.32671 16.3157 5.37823 16.3157 5.48239 16.3157C5.58693 16.3157 5.69146 16.2634 5.79599 16.2111L5.79786 16.21L9.29225 13.7061L4.9433 13.7031C4.94648 13.703 4.94961 13.7039 4.95228 13.7056C4.95495 13.7073 4.95702 13.7098 4.95823 13.7128C4.95935 13.7146 4.95973 13.7169 4.95973 13.7191ZM16.772 2.7312H3.5825C3.4184 2.7312 3.2559 2.76354 3.10429 2.82636C2.95269 2.88919 2.81495 2.98127 2.69894 3.09734C2.58294 3.21342 2.49094 3.35121 2.42821 3.50286C2.36547 3.6545 2.33324 3.81702 2.33333 3.98112V12.4532C2.33333 12.7845 2.46494 13.1022 2.69921 13.3365C2.93347 13.5707 3.2512 13.7023 3.5825 13.7023H16.7723C17.1036 13.7022 17.4212 13.5706 17.6554 13.3363C17.8896 13.1021 18.0211 12.7844 18.0211 12.4532V3.98112C18.0213 3.817 17.9891 3.65446 17.9264 3.5028C17.8637 3.35113 17.7717 3.21332 17.6556 3.09723C17.5396 2.98115 17.4019 2.88907 17.2502 2.82626C17.0986 2.76346 16.9361 2.73116 16.772 2.7312ZM11.7503 10.103C11.7249 10.3707 11.5233 10.5451 11.2302 10.5451H6.54863C6.23317 10.5451 5.9793 10.2882 6.0073 9.98804C6.03269 9.72036 6.23429 9.54602 6.52735 9.54602H11.2074C11.5233 9.54602 11.7775 9.8025 11.7503 10.103ZM14.3614 6.44586C14.3363 6.71317 14.1344 6.88789 13.8417 6.88789H6.54826C6.23279 6.88789 5.97893 6.63104 6.00693 6.3305C6.03231 6.0632 6.23391 5.88848 6.52698 5.88848H13.82C14.1351 5.88848 14.3894 6.14533 14.3614 6.44586ZM17.3846 2.7088C17.3637 2.70395 17.3473 2.70694 17.3518 2.7103C17.3715 2.71216 17.3913 2.71403 17.4107 2.7144L17.3846 2.7088Z" fill="url(#paint0_linear_19922_104914)"/>
</g>
<path id="Vector_2" opacity="0.5" d="M19.7509 0.000188013C19.7509 8.48787e-05 19.7508 1.27157e-06 19.7507 1.27157e-06H6.25194C6.08786 1.26424e-06 5.9254 0.0323245 5.77382 0.0951246C5.62223 0.157925 5.48451 0.249971 5.36851 0.366007C5.25251 0.482043 5.1605 0.619794 5.09775 0.771394C5.03499 0.922993 5.00272 1.08547 5.00277 1.24955C5.00277 1.50315 5.20836 1.70874 5.46197 1.70874H17.0558C17.2667 1.70874 17.4668 1.70874 17.6778 1.7528C18.4819 1.91968 19.0367 2.67754 19.0386 3.48133C19.0404 4.11039 19.0386 4.73946 19.0386 5.3689V10.4806C19.0386 10.874 19.3575 11.1929 19.7509 11.1929C19.9149 11.1929 20.0773 11.1607 20.2288 11.098C20.3803 11.0353 20.518 10.9433 20.634 10.8274C20.75 10.7115 20.8421 10.5738 20.9049 10.4223C20.9677 10.2708 21 10.1085 21.0001 9.94446V1.24955C21.0001 0.918245 20.8685 0.600513 20.6342 0.366248C20.4 0.132027 20.0823 0.000424273 19.7511 0.000374769C19.751 0.000374754 19.7509 0.000291148 19.7509 0.000188013Z" fill="var(--fill-0, #2C5CF7)"/>
</g>
<defs>
<filter id="filter0_d_19922_104914" x="-7.9468e-08" y="0.372925" width="25.0211" height="22.9427" filterUnits="userSpaceOnUse" color-interpolation-filters="sRGB">
<feFlood flood-opacity="0" result="BackgroundImageFix"/>
<feColorMatrix in="SourceAlpha" type="matrix" values="0 0 0 0 0 0 0 0 0 0 0 0 0 0 0 0 0 0 127 0" result="hardAlpha"/>
<feOffset dx="2.33333" dy="2.33333"/>
<feGaussianBlur stdDeviation="2.33333"/>
<feColorMatrix type="matrix" values="0 0 0 0 0.172549 0 0 0 0 0.360784 0 0 0 0 0.968627 0 0 0 0.3 0"/>
<feBlend mode="normal" in2="BackgroundImageFix" result="effect1_dropShadow_19922_104914"/>
<feBlend mode="normal" in="SourceGraphic" in2="effect1_dropShadow_19922_104914" result="shape"/>
</filter>
<linearGradient id="paint0_linear_19922_104914" x1="25.865" y1="9.51096" x2="12.3919" y2="-6.01973" gradientUnits="userSpaceOnUse">
<stop stop-color="#2C5CF7"/>
<stop offset="1" stop-color="#80A6FF"/>
</linearGradient>
</defs>
</svg>
