<svg preserveAspectRatio="none" width="100%" height="100%" overflow="visible" style="display: block;" viewBox="0 0 25.6663 25.6663" fill="none" xmlns="http://www.w3.org/2000/svg">
<g id="&#229;&#189;&#162;&#231;&#138;&#182;" filter="url(#filter0_d_19922_104910)">
<path d="M9.33333 6.58529C7.64659 7.08725 6.41634 8.65054 6.41634 10.5003C6.41652 12.7553 8.24527 14.5833 10.5003 14.5833C12.3498 14.5831 13.9124 13.3528 14.4144 11.6663H18.5833C18.0172 15.6238 14.6143 18.6661 10.5003 18.6663C5.99011 18.6663 2.33351 15.0105 2.33333 10.5003C2.33333 6.38607 5.3756 2.98239 9.33333 2.41634V6.58529ZM10.5003 2.33333C14.9652 2.33359 18.5931 5.91688 18.6654 10.3646L18.6663 10.5003H11.6663C11.0221 10.5002 10.5003 9.97761 10.5003 9.33333V2.33333Z" fill="url(#paint0_linear_19922_104910)"/>
</g>
<defs>
<filter id="filter0_d_19922_104910" x="0" y="0" width="25.6663" height="25.6663" filterUnits="userSpaceOnUse" color-interpolation-filters="sRGB">
<feFlood flood-opacity="0" result="BackgroundImageFix"/>
<feColorMatrix in="SourceAlpha" type="matrix" values="0 0 0 0 0 0 0 0 0 0 0 0 0 0 0 0 0 0 127 0" result="hardAlpha"/>
<feOffset dx="2.33333" dy="2.33333"/>
<feGaussianBlur stdDeviation="2.33333"/>
<feColorMatrix type="matrix" values="0 0 0 0 1 0 0 0 0 0.466667 0 0 0 0 0.2 0 0 0 0.3 0"/>
<feBlend mode="normal" in2="BackgroundImageFix" result="effect1_dropShadow_19922_104910"/>
<feBlend mode="normal" in="SourceGraphic" in2="effect1_dropShadow_19922_104910" result="shape"/>
</filter>
<linearGradient id="paint0_linear_19922_104910" x1="26.8328" y1="10.4998" x2="10.4998" y2="-5.83317" gradientUnits="userSpaceOnUse">
<stop stop-color="#FF7733"/>
<stop offset="1" stop-color="#FFB685"/>
</linearGradient>
</defs>
</svg>
