<svg width="47" height="38" viewBox="0 0 47 38" fill="none" xmlns="http://www.w3.org/2000/svg">
<g clip-path="url(#clip0_1131_878)">
<path d="M38.5058 15.5068C38.7741 15.3687 38.8157 15.3985 38.9091 15.6982C39.3736 17.1814 39.4274 18.7027 39.3252 20.2372C39.197 22.1636 38.7242 24.0021 37.9091 25.7528C36.986 27.736 35.6955 29.443 34.0371 30.8691C32.2282 32.4246 30.168 33.4933 27.8408 34.0351C26.848 34.2663 25.8399 34.3717 24.9013 34.3818C23.0036 34.3717 21.2641 34.0321 19.6836 33.0927C18.1482 32.1804 17.1403 30.8703 16.8076 29.0917C16.5426 27.6727 16.8683 26.3563 17.5791 25.1259C18.478 23.5698 19.85 22.5617 21.4541 21.8339C23.1231 21.0768 24.8784 20.7989 26.6972 20.9638C28.392 21.1178 29.9795 21.5998 31.3584 22.6415C32.0277 23.1473 32.5514 23.7813 32.9716 24.5058C33.0171 24.5842 33.1295 24.6245 33.2109 24.6825C33.2401 24.5842 33.3098 24.4778 33.2929 24.3886C32.9791 22.7597 33.3107 21.237 34.0586 19.7909C35.0552 17.8636 36.5956 16.49 38.5058 15.5068ZM22.8086 3.69132C27.4779 3.26603 31.49 4.72087 34.8134 8.03507C35.9811 9.19941 36.8978 10.5456 37.6152 12.0292C37.6327 12.0658 37.656 12.1 37.6855 12.1503L38.248 11.8583C38.8035 11.5628 39.3322 11.2438 39.7705 10.788C39.8608 10.6938 39.9439 10.5879 40.0097 10.4755C40.2117 10.1308 40.1279 9.82818 39.7802 9.62784C39.3433 9.37622 38.8561 9.33663 38.3691 9.31534C38.0153 9.29991 37.6598 9.30881 37.3056 9.31632C37.1587 9.31924 37.0656 9.26631 36.9775 9.14445C36.7576 8.84065 36.5172 8.55192 36.2881 8.2548C36.155 8.08249 36.2038 7.95011 36.4218 7.92374C38.3012 7.69753 40.1822 7.60668 42.0478 8.01945C42.5172 8.12335 42.9858 8.2908 43.4131 8.51066C44.3367 8.98561 44.5421 9.78144 44.0283 10.6796C43.5792 11.4641 42.9275 12.06 42.2031 12.5712C41.0904 13.3563 39.8917 13.9892 38.5761 14.3603C36.7447 14.8768 34.9252 14.7256 33.1396 14.1357C31.7035 13.6611 30.4029 12.939 29.3603 11.8163C29.1012 11.5371 28.8815 11.2214 28.6445 10.9218C28.6104 10.8785 28.5855 10.8239 28.5439 10.7909C28.5043 10.7601 28.4393 10.7263 28.4013 10.7392C28.3684 10.7504 28.3381 10.8271 28.3398 10.873C28.3478 11.0811 28.3715 11.2888 28.3828 11.497C28.4899 13.4651 27.8246 15.1695 26.5947 16.6728C25.3885 18.1472 23.8506 19.2015 22.1816 20.0741C19.7376 21.3525 17.1366 22.2037 14.4638 22.8485C11.7853 23.495 9.07303 23.8808 6.31149 23.8349C5.19133 23.8161 4.07186 23.7423 3.00094 23.37C2.71589 23.2707 2.43328 23.1331 2.18454 22.9628C1.5185 22.5063 1.33973 21.871 1.63278 21.1181C1.84353 20.5768 2.19587 20.1279 2.59274 19.7148C3.57896 18.6885 4.73065 17.8739 5.95309 17.161C6.63664 16.7625 7.35121 16.4164 8.0527 16.0487C8.11354 16.0171 8.18093 15.9909 8.24801 15.9804C8.41997 15.9537 8.50255 16.0287 8.47751 16.2011C8.41451 16.6341 8.34889 17.0673 8.26755 17.497C8.25377 17.5692 8.16719 17.6389 8.09958 17.6894C7.55509 18.0962 6.99304 18.4803 6.46774 18.9101C6.26087 19.0794 6.10282 19.3314 5.97848 19.5741C5.77656 19.9684 5.87186 20.3266 6.26169 20.537C6.55426 20.6948 6.89026 20.8046 7.21872 20.8564C7.89549 20.9627 8.57557 20.9083 9.25192 20.7978C9.42678 20.7694 9.44426 20.6944 9.42966 20.5487C9.31572 19.416 9.31055 18.2812 9.47165 17.1552C10.1691 12.2913 12.5083 8.4509 16.6748 5.79191C18.5419 4.60046 20.6042 3.89208 22.8086 3.69132Z" fill="url(#paint0_linear_1131_878)"/>
</g>
<defs>
<linearGradient id="paint0_linear_1131_878" x1="33.0714" y1="32.9995" x2="19.5714" y2="7.99952" gradientUnits="userSpaceOnUse">
<stop stop-color="#8477FF"/>
<stop offset="1" stop-color="#5AA8FF"/>
</linearGradient>
<clipPath id="clip0_1131_878">
<rect width="42.8069" height="30.7619" fill="white" transform="translate(1.49683 3.61902)"/>
</clipPath>
</defs>
</svg>
