<svg preserveAspectRatio="none" width="100%" height="100%" overflow="visible" style="display: block;" viewBox="0 0 18.9422 18" fill="none" xmlns="http://www.w3.org/2000/svg">
<g id="Group 1">
<path id="Union" d="M7.93077 1.38276C8.06623 0.704421 9.03168 0.704421 9.1671 1.38276L9.87413 4.92768C10.1951 6.53201 11.4492 7.7888 13.0509 8.1103L16.5899 8.81733C17.2672 8.95299 17.2672 9.92093 16.5899 10.0566L13.0509 10.7646C11.4493 11.0862 10.1951 12.342 9.87413 13.9462L9.1671 17.4912C9.03168 18.1694 8.06623 18.1694 7.93077 17.4912L7.22374 13.9462C6.90274 12.342 5.64861 11.0861 4.04698 10.7646L0.507919 10.0566C-0.169306 9.92093 -0.169306 8.95299 0.507919 8.81733L4.04698 8.1103C5.64872 7.78882 6.90275 6.53202 7.22374 4.92768L7.93077 1.38276ZM15.3536 0.249947C15.4213 -0.0833158 15.8953 -0.0833158 15.9601 0.249947L16.0196 0.541939C16.2582 1.74513 17.2002 2.68586 18.4015 2.92768L18.6925 2.98628C19.0252 3.05413 19.0252 3.52978 18.6925 3.59467L18.4015 3.65327C17.2003 3.89212 16.2612 4.83585 16.0196 6.03901L15.9601 6.331C15.8923 6.66429 15.4184 6.66429 15.3536 6.331L15.295 6.03901C15.0565 4.83592 14.1143 3.89522 12.9132 3.65327L12.6212 3.59467C12.2885 3.52682 12.2885 3.05117 12.6212 2.98628L12.9132 2.92768C14.1143 2.68863 15.0536 1.74505 15.295 0.541939L15.3536 0.249947Z" fill="url(#paint0_linear_1101_97020)"/>
</g>
<defs>
<linearGradient id="paint0_linear_1101_97020" x1="0.691351" y1="0.805397" x2="17.6659" y2="19.5356" gradientUnits="userSpaceOnUse">
<stop stop-color="#27D9FC"/>
<stop offset="1" stop-color="#4259EC"/>
</linearGradient>
</defs>
</svg>
