<svg preserveAspectRatio="none" width="100%" height="100%" overflow="visible" style="display: block;" viewBox="0 0 28 28" fill="none" xmlns="http://www.w3.org/2000/svg">
<g id="Group 47646">
<g id="&#229;&#189;&#162;&#231;&#138;&#182;" filter="url(#filter0_d_19922_104827)">
<path fill-rule="evenodd" clip-rule="evenodd" d="M11.6667 2.33333C12.0103 2.33333 12.2889 2.61191 12.2889 2.95556L12.2891 3.28938C16.5354 3.60039 19.905 7.0681 20.061 11.3557L20.3778 11.3556C20.7214 11.3556 21 11.6341 21 11.9778C21 12.3214 20.7214 12.6 20.3778 12.6L20.0154 12.6003C19.5734 16.5967 16.3278 19.7482 12.2891 20.044L12.2889 20.3778C12.2889 20.7214 12.0103 21 11.6667 21C11.323 21 11.0444 20.7214 11.0444 20.3778L11.0446 20.044C7.00566 19.7483 3.7599 16.5969 3.31796 12.6003L2.95556 12.6C2.61191 12.6 2.33333 12.3214 2.33333 11.9778C2.33333 11.6341 2.61191 11.3556 2.95556 11.3556L3.27231 11.3557C3.42833 7.06799 6.79807 3.60022 11.0446 3.28935L11.0444 2.95556C11.0444 2.61191 11.323 2.33333 11.6667 2.33333ZM12.2881 4.53777L12.2888 4.51115C12.2888 4.85479 12.0102 5.13337 11.6666 5.13337C11.332 5.13337 11.059 4.86922 11.045 4.53806C7.52446 4.84052 4.7321 7.69305 4.52355 11.2401L4.51758 11.3559L4.55748 11.3573C4.87944 11.3811 5.13327 11.6498 5.13327 11.9778C5.13327 12.3012 4.88651 12.567 4.57099 12.5972C5.00059 15.9071 7.69269 18.5074 11.0454 18.7957L11.0444 18.8223C11.0444 18.4786 11.323 18.2 11.6666 18.2C12.0012 18.2 12.2741 18.4641 12.2882 18.7952C15.6407 18.5072 18.3326 15.907 18.7623 12.5967C18.4467 12.567 18.1999 12.3012 18.1999 11.9778C18.1999 11.6366 18.4746 11.3595 18.815 11.3556C18.6617 7.75547 15.8472 4.84397 12.2881 4.53777ZM11.6664 5.44442C15.1028 5.44442 17.8886 8.2302 17.8886 11.6666C17.8886 15.1031 15.1028 17.8889 11.6664 17.8889C8.22996 17.8889 5.44417 15.1031 5.44417 11.6666C5.44417 8.2302 8.22996 5.44442 11.6664 5.44442Z" fill="url(#paint0_linear_19922_104827)"/>
</g>
<path id="&#232;&#183;&#175;&#229;&#190;&#132; 13" fill-rule="evenodd" clip-rule="evenodd" d="M12.2112 8.79311V10.8435C12.2112 10.9809 12.3227 11.0923 12.4601 11.0923H13.3928C13.5303 11.0923 13.6417 11.2038 13.6417 11.3412C13.6417 11.3883 13.6284 11.4344 13.6032 11.4742L11.5816 14.6732C11.5082 14.7894 11.3545 14.8241 11.2383 14.7507C11.1661 14.7051 11.1223 14.6257 11.1223 14.5403V12.4899C11.1223 12.3525 11.0109 12.2411 10.8734 12.2411H9.9407C9.80324 12.2411 9.69181 12.1296 9.69181 11.9922C9.69181 11.9451 9.70516 11.899 9.7303 11.8592L11.7519 8.66015C11.8254 8.54395 11.9791 8.50928 12.0953 8.58271C12.1675 8.62832 12.2112 8.70774 12.2112 8.79311Z" fill="var(--fill-0, white)"/>
</g>
<defs>
<filter id="filter0_d_19922_104827" x="0" y="0" width="28" height="28" filterUnits="userSpaceOnUse" color-interpolation-filters="sRGB">
<feFlood flood-opacity="0" result="BackgroundImageFix"/>
<feColorMatrix in="SourceAlpha" type="matrix" values="0 0 0 0 0 0 0 0 0 0 0 0 0 0 0 0 0 0 127 0" result="hardAlpha"/>
<feOffset dx="2.33333" dy="2.33333"/>
<feGaussianBlur stdDeviation="2.33333"/>
<feColorMatrix type="matrix" values="0 0 0 0 1 0 0 0 0 0.25098 0 0 0 0 0.25098 0 0 0 0.3 0"/>
<feBlend mode="normal" in2="BackgroundImageFix" result="effect1_dropShadow_19922_104827"/>
<feBlend mode="normal" in="SourceGraphic" in2="effect1_dropShadow_19922_104827" result="shape"/>
</filter>
<linearGradient id="paint0_linear_19922_104827" x1="30.3333" y1="11.6667" x2="11.6667" y2="-7" gradientUnits="userSpaceOnUse">
<stop stop-color="#FF4040"/>
<stop offset="1" stop-color="#FF9991"/>
</linearGradient>
</defs>
</svg>
