<svg preserveAspectRatio="none" width="100%" height="100%" overflow="visible" style="display: block;" viewBox="0 0 26.2714 25.6666" fill="none" xmlns="http://www.w3.org/2000/svg">
<g id="Group 47650">
<g id="&#229;&#189;&#162;&#231;&#138;&#182;&#231;&#187;&#147;&#229;&#144;&#136;" filter="url(#filter0_d_19922_104808)">
<path d="M5.35775 12.6177C7.02822 12.6177 8.38311 13.9716 8.38314 15.6421C8.38314 17.3126 7.02824 18.6665 5.35775 18.6665C3.68742 18.6663 2.33333 17.3125 2.33333 15.6421C2.33336 13.9717 3.68744 12.6179 5.35775 12.6177ZM14.1077 10.479C15.289 9.2978 17.2049 9.2978 18.3861 10.479C19.5455 11.6388 19.566 13.5056 18.4486 14.6909L18.3861 14.7564L15.3607 17.7808C14.1795 18.9619 12.2645 18.9619 11.0833 17.7808C9.92388 16.6211 9.9027 14.7543 11.0199 13.5689L11.0833 13.5034L14.1077 10.479ZM11.0833 3.21924C12.2645 2.03803 14.1804 2.03803 15.3617 3.21924C16.5213 4.37899 16.5417 6.2467 15.4242 7.43214L15.3617 7.49659L11.1263 11.7319C9.94508 12.9127 8.03004 12.9129 6.84896 11.7319C5.68928 10.5723 5.6681 8.70452 6.78548 7.51905L6.84896 7.45362L11.0833 3.21924Z" fill="url(#paint0_linear_19922_104808)"/>
</g>
<path id="&#229;&#189;&#162;&#231;&#138;&#182;&#231;&#187;&#147;&#229;&#144;&#136;_2" d="M5.35758 14.1301C6.19275 14.1301 6.87016 14.8066 6.87028 15.6418C6.87028 16.477 6.19283 17.1545 5.35758 17.1545C4.52255 17.1542 3.84587 16.4769 3.84587 15.6418C3.84599 14.8068 4.52263 14.1303 5.35758 14.1301ZM13.2218 14.1301C14.057 14.1301 14.7344 14.8066 14.7345 15.6418C14.7345 16.477 14.0571 17.1545 13.2218 17.1545C12.3867 17.1544 11.7101 16.477 11.7101 15.6418C11.7102 14.8067 12.3867 14.1301 13.2218 14.1301ZM8.98747 8.08025C9.82271 8.08025 10.5002 8.7577 10.5002 9.59294C10.5 10.428 9.82261 11.1047 8.98747 11.1047C8.15254 11.1044 7.47592 10.4279 7.47575 9.59294C7.47575 8.75785 8.15244 8.0805 8.98747 8.08025Z" fill="var(--fill-0, white)"/>
</g>
<defs>
<filter id="filter0_d_19922_104808" x="0" y="0" width="26.2714" height="25.6666" filterUnits="userSpaceOnUse" color-interpolation-filters="sRGB">
<feFlood flood-opacity="0" result="BackgroundImageFix"/>
<feColorMatrix in="SourceAlpha" type="matrix" values="0 0 0 0 0 0 0 0 0 0 0 0 0 0 0 0 0 0 127 0" result="hardAlpha"/>
<feOffset dx="2.33333" dy="2.33333"/>
<feGaussianBlur stdDeviation="2.33333"/>
<feColorMatrix type="matrix" values="0 0 0 0 0.0745098 0 0 0 0 0.74902 0 0 0 0 0.52549 0 0 0 0.3 0"/>
<feBlend mode="normal" in2="BackgroundImageFix" result="effect1_dropShadow_19922_104808"/>
<feBlend mode="normal" in="SourceGraphic" in2="effect1_dropShadow_19922_104808" result="shape"/>
</filter>
<linearGradient id="paint0_linear_19922_104808" x1="27.7407" y1="10.5" x2="11.4182" y2="-6.42707" gradientUnits="userSpaceOnUse">
<stop stop-color="#13BFA2"/>
<stop offset="1" stop-color="#5BD9BB"/>
</linearGradient>
</defs>
</svg>
