<svg width="42" height="17" viewBox="0 0 42 17" fill="none" xmlns="http://www.w3.org/2000/svg">
<path fill-rule="evenodd" clip-rule="evenodd" d="M22.7998 4.79922L22.9384 4.19922H25.7998L25.6614 4.79922H22.7998ZM22.2002 7.20156L22.3405 6.60156H25.2002L25.0596 7.20156H22.2002ZM24.7627 2.77117C25.1086 2.24427 25.3602 1.84298 25.5172 1.56781H27.2523C28.5858 1.56781 28.8001 0 28.8001 0H19.1871L18.2391 5.52895C17.7392 8.497 16.9021 11.5984 15.6001 12.7589C15.9714 12.4282 18.6698 12.598 19.9513 5.78076L20.6735 1.56781H23.7139C23.5193 1.98283 23.3064 2.38429 23.0757 2.77117H22.0819C22.0819 2.77117 21.2244 2.83323 21.0484 3.8599C20.8724 4.88623 20.2199 8.69278 20.2199 8.69278H22.6471L22.2685 10.9044C22.2028 11.2308 21.9648 11.4221 21.5528 11.4783C21.1764 11.5014 20.588 11.4666 20.588 11.4666C20.588 11.4666 20.633 11.4198 20.6388 11.408C21.1978 10.2878 21.1569 9.09491 21.1569 9.09491C20.1792 9.8454 19.2716 10.7339 18.3722 11.6324L19.4675 12.6819C19.8303 12.2997 20.1754 11.9261 20.5032 11.5621C20.5494 12.1456 20.3228 13.2 20.3228 13.2C20.3228 13.2 21.8653 13.1955 22.322 13.1297C22.779 13.0644 23.1414 12.8827 23.4098 12.5842C23.6783 12.2852 23.8582 11.8702 23.9495 11.3378L24.4029 8.69278H25.8154C26.7347 8.69278 26.8875 7.71669 26.8875 7.71669L27.7355 2.77117H24.7627ZM27.0002 12.373C26.7311 9.90428 25.2002 9.60156 25.2002 9.60156C25.3477 10.69 25.4704 11.8362 25.6282 13.2016L27.0002 12.373ZM3 5.39844L3.54508 2.39844H4.8L4.25476 5.39844H3ZM1.7998 10.1992L2.34521 7.19922H3.5998L3.05448 10.1992H1.7998ZM2.93522 0.601562C1.93029 0.601562 1.7495 1.67088 1.7495 1.67088L0 12.0016H3.85387C4.56666 12.0016 4.80852 11.1825 4.80852 11.1825L6.6 0.601562H2.93522ZM14.9972 12.5992C17.6814 8.56271 17.391 7.19922 17.391 7.19922L13.2002 11.5226L14.9972 12.5992ZM9 3.60078L9.28753 1.80078H12L11.7126 3.60078H9ZM8.3999 7.19844C8.51684 6.60333 8.61945 6.0033 8.70727 5.39844H11.3999L11.1122 7.19844H8.3999ZM7.64284 1.17643L6.8733 5.63579C6.57154 7.439 6.2682 8.98767 6.05608 9.82906C5.64911 11.441 4.7998 13.1802 4.7998 13.1802C4.7998 13.1802 7.19541 12.2575 7.90522 9.07141H11.0141L10.8645 9.93709C10.7093 10.8368 10.5062 11.9545 9.35904 11.9545H8.58765L8.32987 13.1802C8.32987 13.1802 9.2653 13.2248 10.0176 13.1802C10.7695 13.1352 11.2979 12.8952 11.578 12.6349C11.8586 12.3747 12.0763 12.0736 12.231 11.7333C12.3855 11.3927 12.5024 10.9927 12.5817 10.5339L14.3998 0H8.92961C7.81827 0 7.64284 1.17643 7.64284 1.17643ZM30.6001 1.8H39.5848C41.1468 1.8 41.4001 0 41.4001 0H32.459C30.8662 0 30.6001 1.8 30.6001 1.8ZM33.3014 5.06718C33.8901 4.71737 34.4898 4.54015 35.0846 4.54015C36.3234 4.54023 37.3015 5.31327 37.8763 5.99922H40.2152C41.6483 5.99922 41.9998 4.19922 41.9998 4.19922H30.612C29.2535 4.19922 28.7998 5.99922 28.7998 5.99922H32.1306C32.387 5.7134 32.7345 5.40396 33.3014 5.06718ZM16.2002 0.00813092C16.7145 0.734787 17.3017 1.84765 17.6082 3L19.2002 1.70784C18.5032 -0.217457 16.2002 0.00813092 16.2002 0.00813092ZM33.6443 5.88779C31.8644 7.0185 32.485 7.7725 30.5012 8.73279C28.5175 9.69351 28.5148 10.9424 29.2122 11.6491C29.9093 12.3564 32.1382 12.7827 33.7485 12.3073C35.3584 11.8319 35.8816 11.0987 35.9586 10.1243C36.0396 9.09211 34.2778 8.18534 33.3258 9.7151C33.3258 9.7151 34.6755 10.0484 34.0442 10.8985C33.4127 11.7487 31.82 11.6059 31.5081 11.2147C31.2042 10.833 31.012 9.98081 32.1739 9.19361C33.3359 8.40642 34.8684 7.29286 36.6704 8.35021C38.4719 9.40739 39.1303 11.3075 37.5795 12.076C36.0291 12.8445 34.6772 13.0074 32.3344 13.376C29.9918 13.7448 27.1842 15.3218 27 16.1984C27 16.1984 29.0778 14.0709 33.9269 14.1355C38.7762 14.2005 41.2237 12.4037 41.3873 10.5732C41.5168 9.12152 40.6301 8.17047 39.7557 7.87191C38.9145 7.58469 38.3643 7.84804 38.0213 7.35756C37.6219 6.78658 36.0181 4.37954 33.6443 5.88779ZM14.3999 3.61115C14.9152 4.47881 15.5027 5.80721 15.8057 7.20156L17.3999 5.65915C16.7061 3.34178 14.3999 3.61115 14.3999 3.61115Z" fill="white"/>
</svg>
