<svg width="24" height="24" viewBox="0 0 24 24" fill="none" xmlns="http://www.w3.org/2000/svg">
<path fill-rule="evenodd" clip-rule="evenodd" d="M9.36906 4.3073C11.4115 4.16852 14.7339 4.66957 16.6445 5.40496C18.6037 6.15944 19.9513 7.96338 20.1015 10.0358C20.2182 11.6471 19.8897 13.8134 19.3027 15.318C18.6816 16.9075 17.3413 18.0859 15.7216 18.5358C14.3501 18.9166 13.1818 19.8072 11.9462 20.4792C11.5294 20.7058 11.0613 20.7808 10.6142 20.7145C10.163 20.6476 9.7329 20.4368 9.39836 20.0944C8.41622 19.088 7.56516 17.8902 6.36711 17.1218C4.9525 16.2158 4.02111 14.694 3.89836 12.9919C3.78174 11.3806 4.11013 9.21522 4.69719 7.71062C5.45389 5.77568 7.27341 4.45048 9.36906 4.3073ZM12.7343 6.4909C11.6363 6.32448 10.5697 6.26106 9.80949 6.31414C8.40871 6.41278 7.17521 7.32308 6.66691 8.63445C6.21799 9.79184 5.9551 11.5296 6.04191 12.7663C6.14012 14.1684 7.04943 15.4024 8.3593 15.9108C9.07035 16.1858 10.1079 16.4397 11.206 16.6061C12.304 16.7725 13.3705 16.8369 14.1308 16.7839C15.5315 16.6852 16.765 15.7748 17.2734 14.4636C17.7224 13.3062 17.9852 11.5688 17.8984 10.3307C17.8001 8.92874 16.8908 7.69459 15.581 7.18621C14.8699 6.90993 13.8324 6.65732 12.7343 6.4909Z" fill="white"/>
<rect x="13.8457" y="9.34277" width="1.79042" height="3.32507" rx="0.895211" transform="rotate(8 13.8457 9.34277)" fill="white"/>
<rect x="9.03271" y="8.66602" width="1.79042" height="3.32507" rx="0.895211" transform="rotate(8 9.03271 8.66602)" fill="white"/>
</svg>
