<svg width="167" height="86" viewBox="0 0 167 86" fill="none" xmlns="http://www.w3.org/2000/svg">
<g clip-path="url(#clip0_2548_6029)">
<mask id="path-1-inside-1_2548_6029" fill="white">
<path d="M0 8.84117C0 3.95832 3.95833 0 8.84118 0H158.159C163.042 0 167 3.95833 167 8.84118V77.1588C167 82.0417 163.042 86 158.159 86H8.84117C3.95832 86 0 82.0417 0 77.1588V8.84117Z"/>
</mask>
<path d="M0 8.84117C0 3.95832 3.95833 0 8.84118 0H158.159C163.042 0 167 3.95833 167 8.84118V77.1588C167 82.0417 163.042 86 158.159 86H8.84117C3.95832 86 0 82.0417 0 77.1588V8.84117Z" fill="#F4F0FF"/>
<g clip-path="url(#clip1_2548_6029)">
<path d="M10 17.3C10 13.8206 12.8206 11 16.3 11H150.7C154.179 11 157 13.8206 157 17.3V87.65H10V17.3Z" fill="white"/>
<g clip-path="url(#clip2_2548_6029)">
<path fill-rule="evenodd" clip-rule="evenodd" d="M20.775 28.975C20.2779 28.975 19.875 28.5721 19.875 28.075V20.275C19.875 19.7779 20.2779 19.375 20.775 19.375H25.0522C25.2909 19.375 25.5198 19.4698 25.6886 19.6386L27.7114 21.6614C27.8802 21.8302 27.975 22.0591 27.975 22.2978V28.075C27.975 28.5721 27.5721 28.975 27.075 28.975H20.775Z" stroke="#885BD2" stroke-width="0.857143" stroke-linejoin="round"/>
<path d="M25.125 19.225V21.325C25.125 21.822 25.5279 22.225 26.025 22.225H28.125" stroke="#885BD2" stroke-width="0.857143" stroke-linejoin="round"/>
<path d="M21.6748 24.325H26.1748" stroke="#885BD2" stroke-width="0.857143" stroke-linecap="round"/>
<path d="M21.6748 26.575H23.7748" stroke="#885BD2" stroke-width="0.857143" stroke-linecap="round"/>
</g>
<path d="M34.612 20.008H37.303V20.71C37.096 21.475 36.853 22.285 36.574 23.131C36.988 23.968 37.213 24.688 37.249 25.3C37.249 25.732 37.168 26.047 37.015 26.236C36.763 26.47 36.34 26.587 35.746 26.596L35.53 25.948V28.045H34.612V20.008ZM35.53 25.66C35.692 25.678 35.836 25.696 35.944 25.696C36.106 25.678 36.223 25.651 36.277 25.597C36.331 25.543 36.358 25.444 36.358 25.3C36.358 24.697 36.133 24.022 35.683 23.275C35.989 22.375 36.232 21.574 36.412 20.854H35.53V25.66ZM37.825 23.383C37.636 23.671 37.438 23.941 37.231 24.211L36.925 23.239C37.609 22.213 38.113 21.007 38.446 19.621L39.328 20.035C39.166 20.62 38.968 21.187 38.734 21.727V28.054H37.825V23.383ZM39.04 21.556H40.993V19.747H41.929V21.556H42.622V22.474H41.929V26.983C41.929 27.658 41.632 28 41.047 28H40.048L39.832 27.1C40.138 27.136 40.435 27.154 40.723 27.154C40.903 27.154 40.993 27.019 40.993 26.749V22.474H39.04V21.556ZM39.823 23.266C40.147 23.914 40.462 24.616 40.768 25.39L39.976 25.786C39.697 24.994 39.391 24.274 39.067 23.626L39.823 23.266ZM45.214 19.621L46.096 20.044C45.871 20.746 45.583 21.403 45.223 22.033V28.036H44.296V23.401C44.062 23.689 43.819 23.968 43.567 24.238L43.252 23.23C44.134 22.213 44.791 21.007 45.214 19.621ZM46.735 20.305L47.653 20.422C47.59 20.8 47.509 21.169 47.41 21.52H48.391V19.747H49.336V21.52H51.289V22.438H49.336V24.283H51.631V25.192H49.336V28.009H48.391V25.192H45.88V24.283H48.391V22.438H47.104C46.879 22.996 46.609 23.509 46.294 23.968L45.691 23.185C46.204 22.402 46.555 21.439 46.735 20.305ZM57.409 24.706C57.265 24.976 57.094 25.219 56.896 25.426L56.356 24.76C56.734 24.355 56.995 23.815 57.121 23.149L57.886 23.284C57.841 23.5 57.796 23.689 57.742 23.869H58.336V23.122H59.254V23.869H60.451V24.706H59.254V25.543H60.64V26.398H59.254V28.063H58.336V26.398H56.428V25.543H58.336V24.706H57.409ZM57.562 20.989H56.482V20.161H60.406C60.397 21.457 60.307 22.24 60.127 22.501C59.947 22.753 59.65 22.888 59.218 22.888C59.002 22.888 58.75 22.87 58.453 22.843L58.237 22.069C58.552 22.096 58.813 22.114 59.02 22.132C59.227 22.123 59.362 22.06 59.416 21.943C59.461 21.826 59.488 21.511 59.506 20.989H58.435C58.345 21.367 58.219 21.7 58.057 22.006C57.814 22.393 57.463 22.744 56.995 23.059L56.437 22.357C56.815 22.159 57.094 21.916 57.283 21.628C57.4 21.448 57.49 21.232 57.562 20.989ZM53.602 24.229V25.174H54.16V24.229H53.602ZM53.557 25.957C53.467 26.803 53.269 27.523 52.954 28.108L52.324 27.532C52.639 26.902 52.801 26.11 52.81 25.138V22.393L52.36 21.853C52.846 21.34 53.269 20.611 53.638 19.675L54.493 19.873C54.439 20.017 54.376 20.161 54.322 20.305H55.816V20.944C55.654 21.259 55.501 21.538 55.339 21.772H56.257V27.235C56.257 27.721 55.987 27.964 55.465 27.964H55.06L54.898 27.388V27.874H54.16V25.957H53.557ZM54.385 21.772C54.529 21.565 54.673 21.331 54.817 21.07H53.953C53.818 21.322 53.674 21.556 53.53 21.772H54.385ZM54.898 27.199C55.015 27.217 55.123 27.235 55.213 27.235C55.375 27.235 55.465 27.145 55.465 26.965V25.957H54.898V27.199ZM55.465 25.174V24.229H54.898V25.174H55.465ZM55.465 23.455V22.573H54.898V23.455H55.465ZM54.16 22.573H53.602V23.455H54.16V22.573ZM63.628 23.653V28.018H62.701V23.896C62.431 24.652 62.089 25.345 61.684 25.984L61.279 24.949C61.9 24.166 62.359 23.275 62.647 22.276H61.495V21.367H62.701V19.702H63.628V21.367H64.744V22.276H63.628V22.636C64.042 23.05 64.447 23.491 64.852 23.968L64.339 24.724C64.069 24.292 63.826 23.932 63.628 23.653ZM68.902 19.711L69.361 20.557C68.362 20.881 67.246 21.079 66.013 21.151V22.483H69.568V23.392H68.335V28.018H67.39V23.392H66.013C65.941 25.309 65.473 26.839 64.618 27.982L63.952 27.271C64.672 26.326 65.059 25.012 65.113 23.329V20.35C66.535 20.314 67.795 20.107 68.902 19.711Z" fill="#333333"/>
<mask id="path-10-inside-2_2548_6029" fill="white">
<path d="M18 41.4C18 39.0804 19.8804 37.2 22.2 37.2H67.859C70.1786 37.2 72.059 39.0804 72.059 41.4V88.65H18V41.4Z"/>
</mask>
<path d="M72.8467 87.5759V88.6501H71.2715V87.5759H72.8467ZM18.7871 87.5759V88.6501H17.2129V87.5759H18.7871ZM18.7871 83.281V85.4285H17.2129V83.281H18.7871ZM72.8467 83.281V85.4285H71.2715V83.281H72.8467ZM18.7871 78.9851V81.1326H17.2129V78.9851H18.7871ZM72.8467 78.9851V81.1326H71.2715V78.9851H72.8467ZM18.7871 74.6902V76.8376H17.2129V74.6902H18.7871ZM72.8467 74.6902V76.8376H71.2715V74.6902H72.8467ZM18.7871 70.3943V72.5417H17.2129V70.3943H18.7871ZM72.8467 70.3943V72.5417H71.2715V70.3943H72.8467ZM18.7871 66.0984V68.2468H17.2129V66.0984H18.7871ZM72.8467 66.0984V68.2468H71.2715V66.0984H72.8467ZM18.7871 61.8035V63.9509H17.2129V61.8035H18.7871ZM72.8467 61.8035V63.9509H71.2715V61.8035H72.8467ZM18.7871 57.5076V59.656H17.2129V57.5076H18.7871ZM72.8467 57.5076V59.656H71.2715V57.5076H72.8467ZM18.7871 53.2126V55.3601H17.2129V53.2126H18.7871ZM72.8467 53.2126V55.3601H71.2715V53.2126H72.8467ZM18.7871 48.9167V51.0652H17.2129V48.9167H18.7871ZM72.8467 48.9167V51.0652H71.2715V48.9167H72.8467ZM18.7871 44.6218V46.7693H17.2129V44.6218H18.7871ZM72.8467 44.6218V46.7693H71.2715V44.6218H72.8467ZM18.7871 42.4734H17.2129V41.4001C17.2129 41.2735 17.2182 41.1477 17.2275 41.0232C17.2348 40.9257 17.245 40.829 17.2578 40.7332C17.2716 40.6303 17.2877 40.5283 17.3076 40.4275L18.0801 40.5798L18.8525 40.7332C18.8412 40.7905 18.8317 40.8485 18.8232 40.907C18.7999 41.068 18.7871 41.2327 18.7871 41.4001V42.4734ZM72.8467 42.4734H71.2715V41.4001C71.2715 41.2265 71.2582 41.0563 71.2334 40.8904C71.2255 40.8375 71.2154 40.7852 71.2051 40.7332L71.9795 40.5798L72.1475 40.5466L72.75 40.4275C72.8122 40.7421 72.8467 41.0673 72.8467 41.4001V42.4734ZM19.8662 37.907L20.0303 38.1521L20.3047 38.5613C20.2356 38.6075 20.1689 38.6577 20.1035 38.7087C19.94 38.8363 19.7881 38.9778 19.6504 39.1326C19.5461 39.2497 19.4489 39.3739 19.3613 39.5046L19.0342 39.2849L18.707 39.0662L18.0527 38.6287C18.1389 38.5 18.2317 38.3755 18.3291 38.2556C18.3737 38.2008 18.4199 38.1474 18.4668 38.0945C18.748 37.7771 19.0678 37.4948 19.4209 37.2576C19.4234 37.2559 19.4262 37.2544 19.4287 37.2527L19.8662 37.907ZM70.6299 37.2527C70.769 37.3458 70.9035 37.4452 71.0322 37.5515C71.4067 37.8606 71.7349 38.224 72.0059 38.6287L71.3516 39.0662L71.0244 39.2859L71.0234 39.2849L70.6973 39.5046C70.572 39.3176 70.4283 39.1436 70.2695 38.9851C70.1707 38.8865 70.0653 38.7947 69.9551 38.7087C69.8898 38.6578 69.8239 38.6075 69.7549 38.5613L70.1924 37.907L70.2148 37.8728L70.6299 37.2527ZM23.2373 36.4128V37.9871H22.2002L22.0244 37.9919C21.9934 37.9935 21.9625 37.9954 21.9316 37.9978C21.9062 37.9998 21.8807 38.0011 21.8555 38.0037C21.843 38.0049 21.8307 38.0072 21.8184 38.0085C21.7219 38.0192 21.6268 38.034 21.5332 38.0525L21.3799 37.28L21.2275 36.5076C21.5427 36.4452 21.8681 36.4128 22.2002 36.4128H23.2373ZM67.8594 36.4128C68.1912 36.4129 68.5161 36.4453 68.8311 36.5076L68.6787 37.28L68.6162 37.5984L68.5254 38.0525C68.4356 38.0347 68.3444 38.0201 68.252 38.0095C68.2347 38.0075 68.2175 38.0054 68.2002 38.0037C68.1794 38.0016 68.1586 38.0005 68.1377 37.9988C68.0459 37.9914 67.9531 37.9871 67.8594 37.9871H66.8213V36.4128H67.8594ZM27.3887 36.4128V37.9871H25.3135V36.4128H27.3887ZM31.5391 36.4128V37.9871H29.4639V36.4128H31.5391ZM35.6904 36.4128V37.9871H33.6143V36.4128H35.6904ZM39.8408 36.4128V37.9871H37.7656V36.4128H39.8408ZM43.9922 36.4128V37.9871H41.916V36.4128H43.9922ZM48.1426 36.4128V37.9871H46.0674V36.4128H48.1426ZM52.293 36.4128V37.9871H50.2178V36.4128H52.293ZM56.4443 36.4128V37.9871H54.3691V36.4128H56.4443ZM60.5947 36.4128V37.9871H58.5195V36.4128H60.5947ZM64.7461 36.4128V37.9871H62.6709V36.4128H64.7461Z" fill="url(#paint0_linear_2548_6029)" mask="url(#path-10-inside-2_2548_6029)"/>
<g opacity="0.5">
<path d="M25.0879 43.0374C25.0879 42.4575 25.558 41.9874 26.1379 41.9874H63.4525C64.0324 41.9874 64.5025 42.4575 64.5025 43.0374V44.0874C64.5025 44.6673 64.0324 45.1374 63.4525 45.1374H26.1379C25.558 45.1374 25.0879 44.6673 25.0879 44.0874V43.0374Z" fill="url(#paint1_linear_2548_6029)"/>
<path d="M25.0879 49.7352C25.0879 49.1553 25.558 48.6852 26.1379 48.6852H63.4525C64.0324 48.6852 64.5025 49.1553 64.5025 49.7352V50.7852C64.5025 51.3651 64.0324 51.8352 63.4525 51.8352H26.1379C25.558 51.8352 25.0879 51.3651 25.0879 50.7852V49.7352Z" fill="url(#paint2_linear_2548_6029)"/>
<path d="M25.0879 56.4329C25.0879 55.853 25.558 55.3829 26.1379 55.3829H63.4525C64.0324 55.3829 64.5025 55.853 64.5025 56.4329V57.4829C64.5025 58.0628 64.0324 58.5329 63.4525 58.5329H26.1379C25.558 58.5329 25.0879 58.0628 25.0879 57.4829V56.4329Z" fill="url(#paint3_linear_2548_6029)"/>
<path d="M25.0879 63.1307C25.0879 62.5508 25.558 62.0807 26.1379 62.0807H63.4525C64.0324 62.0807 64.5025 62.5508 64.5025 63.1307V64.1807C64.5025 64.7606 64.0324 65.2307 63.4525 65.2307H26.1379C25.558 65.2307 25.0879 64.7606 25.0879 64.1807V63.1307Z" fill="url(#paint4_linear_2548_6029)"/>
<path d="M25.0879 69.8285C25.0879 69.2486 25.558 68.7785 26.1379 68.7785H63.4525C64.0324 68.7785 64.5025 69.2486 64.5025 69.8285V70.8785C64.5025 71.4584 64.0324 71.9285 63.4525 71.9285H26.1379C25.558 71.9285 25.0879 71.4584 25.0879 70.8785V69.8285Z" fill="url(#paint5_linear_2548_6029)"/>
<path d="M25.0879 76.5262C25.0879 75.9463 25.558 75.4762 26.1379 75.4762H45.0379C45.6178 75.4762 46.0879 75.9463 46.0879 76.5262V77.5762C46.0879 78.1561 45.6178 78.6262 45.0379 78.6262H26.1379C25.558 78.6262 25.0879 78.1561 25.0879 77.5762V76.5262Z" fill="url(#paint6_linear_2548_6029)"/>
</g>
<path d="M82.3051 65.5499L84.8247 63.0294L82.3047 60.5099" stroke="#6A3AC7" stroke-width="0.63" stroke-linecap="round" stroke-linejoin="round"/>
<mask id="mask0_2548_6029" style="mask-type:alpha" maskUnits="userSpaceOnUse" x="94" y="36" width="56" height="49">
<rect x="94.0996" y="36.0999" width="55" height="48" fill="url(#paint7_linear_2548_6029)"/>
</mask>
<g mask="url(#mask0_2548_6029)">
<path opacity="0.5" d="M96.75 68.9626H146.101C147.115 68.9628 147.937 69.785 147.938 70.7996V77.1003C147.937 78.1149 147.115 78.9371 146.101 78.9373H96.75C95.7355 78.937 94.9133 78.1149 94.9131 77.1003V70.7996C94.9133 69.785 95.7355 68.9629 96.75 68.9626ZM96.75 53.2126H146.101C147.115 53.2128 147.937 54.035 147.938 55.0496V61.3503C147.937 62.3649 147.115 63.1871 146.101 63.1873H96.75C95.7355 63.187 94.9133 62.3649 94.9131 61.3503V55.0496C94.9133 54.035 95.7355 53.2129 96.75 53.2126ZM96.75 37.4626H146.101C147.115 37.4628 147.937 38.285 147.938 39.2996V45.6003C147.937 46.6149 147.115 47.4371 146.101 47.4373H96.75C95.7355 47.437 94.9133 46.6149 94.9131 45.6003V39.2996C94.9133 38.285 95.7355 37.4629 96.75 37.4626Z" fill="#E2D1F4" stroke="#A67FDD" stroke-width="0.525"/>
</g>
</g>
</g>
<path d="M8.84118 0V0.368382H158.159V0V-0.368382H8.84118V0ZM167 8.84118H166.632V77.1588H167H167.368V8.84118H167ZM158.159 86V85.6316H8.84117V86V86.3684H158.159V86ZM0 77.1588H0.368382V8.84117H0H-0.368382V77.1588H0ZM8.84117 86V85.6316C4.16178 85.6316 0.368382 81.8382 0.368382 77.1588H0H-0.368382C-0.368382 82.2451 3.75487 86.3684 8.84117 86.3684V86ZM167 77.1588H166.632C166.632 81.8382 162.838 85.6316 158.159 85.6316V86V86.3684C163.245 86.3684 167.368 82.2451 167.368 77.1588H167ZM158.159 0V0.368382C162.838 0.368382 166.632 4.16178 166.632 8.84118H167H167.368C167.368 3.75488 163.245 -0.368382 158.159 -0.368382V0ZM8.84118 0V-0.368382C3.75488 -0.368382 -0.368382 3.75487 -0.368382 8.84117H0H0.368382C0.368382 4.16178 4.16178 0.368382 8.84118 0.368382V0Z" fill="#F3EDF9" mask="url(#path-1-inside-1_2548_6029)"/>
<defs>
<linearGradient id="paint0_linear_2548_6029" x1="45.0095" y1="52.1625" x2="45.0291" y2="88.65" gradientUnits="userSpaceOnUse">
<stop stop-color="#E2D1F4"/>
<stop offset="1" stop-color="#E2D1F4" stop-opacity="0"/>
</linearGradient>
<linearGradient id="paint1_linear_2548_6029" x1="44.7754" y1="55.9758" x2="44.7754" y2="85.3758" gradientUnits="userSpaceOnUse">
<stop stop-color="#E2D1F4"/>
<stop offset="1" stop-color="#E2D1F4" stop-opacity="0"/>
</linearGradient>
<linearGradient id="paint2_linear_2548_6029" x1="44.7754" y1="55.9758" x2="44.7754" y2="85.3758" gradientUnits="userSpaceOnUse">
<stop stop-color="#E2D1F4"/>
<stop offset="1" stop-color="#E2D1F4" stop-opacity="0"/>
</linearGradient>
<linearGradient id="paint3_linear_2548_6029" x1="44.7754" y1="55.9758" x2="44.7754" y2="85.3758" gradientUnits="userSpaceOnUse">
<stop stop-color="#E2D1F4"/>
<stop offset="1" stop-color="#E2D1F4" stop-opacity="0"/>
</linearGradient>
<linearGradient id="paint4_linear_2548_6029" x1="44.7754" y1="55.9758" x2="44.7754" y2="85.3758" gradientUnits="userSpaceOnUse">
<stop stop-color="#E2D1F4"/>
<stop offset="1" stop-color="#E2D1F4" stop-opacity="0"/>
</linearGradient>
<linearGradient id="paint5_linear_2548_6029" x1="44.7754" y1="55.9758" x2="44.7754" y2="85.3758" gradientUnits="userSpaceOnUse">
<stop stop-color="#E2D1F4"/>
<stop offset="1" stop-color="#E2D1F4" stop-opacity="0"/>
</linearGradient>
<linearGradient id="paint6_linear_2548_6029" x1="44.7754" y1="55.9758" x2="44.7754" y2="85.3758" gradientUnits="userSpaceOnUse">
<stop stop-color="#E2D1F4"/>
<stop offset="1" stop-color="#E2D1F4" stop-opacity="0"/>
</linearGradient>
<linearGradient id="paint7_linear_2548_6029" x1="121.265" y1="55.0018" x2="121.265" y2="80.684" gradientUnits="userSpaceOnUse">
<stop stop-color="#D9D9D9"/>
<stop offset="0.950365" stop-color="#D9D9D9" stop-opacity="0"/>
</linearGradient>
<clipPath id="clip0_2548_6029">
<path d="M0 8.84117C0 3.95832 3.95833 0 8.84118 0H158.159C163.042 0 167 3.95833 167 8.84118V77.1588C167 82.0417 163.042 86 158.159 86H8.84117C3.95832 86 0 82.0417 0 77.1588V8.84117Z" fill="white"/>
</clipPath>
<clipPath id="clip1_2548_6029">
<path d="M10 17.3C10 13.8206 12.8206 11 16.3 11H150.7C154.179 11 157 13.8206 157 17.3V87.65H10V17.3Z" fill="white"/>
</clipPath>
<clipPath id="clip2_2548_6029">
<rect width="12" height="12" fill="white" transform="translate(18 18.1)"/>
</clipPath>
</defs>
</svg>
