<svg width="167" height="86" viewBox="0 0 167 86" fill="none" xmlns="http://www.w3.org/2000/svg">
<g clip-path="url(#clip0_2548_6113)">
<mask id="path-1-inside-1_2548_6113" fill="white">
<path d="M0 8.84119C0 3.95834 3.95833 0 8.84118 0H158.159C163.042 0 167 3.95833 167 8.84118V76.6235C167 81.5064 163.042 85.4647 158.159 85.4647H8.84117C3.95832 85.4647 0 81.5064 0 76.6235V8.84119Z"/>
</mask>
<path d="M0 8.84119C0 3.95834 3.95833 0 8.84118 0H158.159C163.042 0 167 3.95833 167 8.84118V76.6235C167 81.5064 163.042 85.4647 158.159 85.4647H8.84117C3.95832 85.4647 0 81.5064 0 76.6235V8.84119Z" fill="#FFF4E6"/>
<g clip-path="url(#clip1_2548_6113)">
<path d="M10.0693 15.1564C10.0693 11.6687 12.8967 8.84131 16.3845 8.84131H151.107C154.595 8.84131 157.422 11.6687 157.422 15.1564V85.6753H10.0693V15.1564Z" fill="white"/>
<g clip-path="url(#clip2_2548_6113)">
<path d="M22.5764 18.3259C21.9652 18.5793 21.4153 18.9505 20.9547 19.411C20.0499 20.3159 19.4902 21.5659 19.4902 22.9466C19.4902 25.708 21.7288 27.9466 24.4902 27.9466C25.8709 27.9466 27.1209 27.3869 28.0258 26.4821C28.4863 26.0215 28.8575 25.4716 29.1109 24.8604" stroke="#FF9902" stroke-width="0.847059" stroke-linecap="round" stroke-linejoin="round"/>
<path d="M24.4893 22.9458H29.4893C29.4893 20.1844 27.2507 17.9458 24.4893 17.9458V22.9458Z" stroke="#FF9902" stroke-width="0.847059" stroke-linejoin="round"/>
</g>
<path d="M39.9883 24.5654H38.3593V23.6564H42.5893V24.5654H40.9423V26.1764H42.9943V27.0944H37.9543V26.1764H39.9883V24.5654ZM40.7893 22.0634C40.1593 22.5854 39.3673 23.0354 38.4223 23.3954L37.8193 22.6214C39.4033 22.0544 40.5013 21.2714 41.1313 20.2634H38.2603V19.3634H42.2653V20.1014C42.0583 20.5964 41.7703 21.0554 41.4103 21.4694C42.0853 21.9014 42.6703 22.3244 43.1563 22.7474L42.4633 23.4404C42.0493 22.9994 41.4913 22.5404 40.7893 22.0634ZM37.9093 25.2044V26.0774C37.0453 26.5274 36.0733 26.8964 34.9843 27.1664L34.8583 26.2574C36.0193 25.9964 37.0363 25.6454 37.9093 25.2044ZM36.2983 19.0034L37.1983 19.3544C36.7843 20.4074 36.3613 21.2714 35.9293 21.9374C36.2353 21.9014 36.5323 21.8654 36.8203 21.8204C36.9733 21.5234 37.1353 21.2084 37.3063 20.8664L38.1703 21.1904C37.4503 22.5404 36.8383 23.5304 36.3343 24.1694C36.8563 24.0344 37.3873 23.8634 37.9273 23.6564V24.5024C36.9643 24.8624 36.0553 25.1054 35.1913 25.2314L34.9483 24.3854C35.1103 24.3134 35.2543 24.2234 35.3713 24.1154C35.6323 23.8454 35.9653 23.3594 36.3613 22.6664C35.9473 22.7204 35.5153 22.7834 35.0653 22.8464L34.8403 21.9914C34.9843 21.9284 35.1103 21.8114 35.2273 21.6494C35.6413 20.8394 35.9923 19.9574 36.2983 19.0034ZM45.6403 22.3064H50.3923V24.2774H45.6403V22.3064ZM49.5283 23.5844V23.0084H46.5043V23.5844H49.5283ZM51.2293 24.7004V27.3914H50.3203V27.0584H45.7483V27.3914H44.8303V24.7004H51.2293ZM45.7483 26.2664H50.3203V25.4744H45.7483V26.2664ZM44.0833 19.5884H46.0003V19.0664H46.9363V19.5884H49.0423V19.0664H49.9783V19.5884H51.8953V20.4074H49.9783V20.8394H49.0423V20.4074H46.9363V20.8394H46.0003V20.4074H44.0833V19.5884ZM51.7423 21.0734V22.9184H50.8423V21.8654H45.1363V22.9634H44.2363V21.0734H51.7423ZM56.0083 22.5314V23.4674C55.7023 23.6114 55.3873 23.7554 55.0813 23.8904V26.4284C55.0813 27.0404 54.7753 27.3554 54.1813 27.3554H53.3263L53.1103 26.4554C53.3713 26.4914 53.6143 26.5184 53.8483 26.5184C54.0463 26.5184 54.1543 26.4104 54.1543 26.1944V24.2594C53.7763 24.4034 53.3893 24.5294 53.0113 24.6464L52.7773 23.7194C53.2453 23.6204 53.7043 23.4944 54.1543 23.3414V21.5054H52.9573V20.6144H54.1543V19.0844H55.0813V20.6144H55.9903V21.5054H55.0813V22.9814C55.3873 22.8374 55.7023 22.6934 56.0083 22.5314ZM57.2233 23.4134V27.3914H56.3323V19.3454H60.5623C60.5623 20.4254 60.4993 21.1544 60.3823 21.5144C60.2563 21.8564 59.8873 22.0274 59.2753 22.0274H58.5913L58.3393 21.2264C58.4743 21.2264 58.6453 21.2354 58.8523 21.2354C59.0593 21.2354 59.2123 21.2264 59.3203 21.2084C59.4103 21.1814 59.4913 21.1274 59.5453 21.0374C59.5993 20.9204 59.6443 20.6414 59.6623 20.1914H57.2233V22.5584H60.6163V23.3684C60.4813 24.2774 60.2023 25.0604 59.7793 25.7084C60.1843 26.0594 60.6613 26.3834 61.2103 26.6804L60.5803 27.4094C60.0673 27.0854 59.6263 26.7434 59.2483 26.3834C58.8343 26.8064 58.3483 27.1484 57.7903 27.4184L57.3403 26.5904C57.8443 26.3474 58.2673 26.0414 58.6093 25.6814C58.0513 24.9794 57.7003 24.2234 57.5653 23.4134H57.2233ZM58.3933 23.4134C58.5103 23.9894 58.7533 24.5204 59.1223 25.0064C59.4013 24.5384 59.6083 24.0074 59.7343 23.4134H58.3933ZM69.0673 23.9264V27.3824H68.1133V26.9594H63.9193V27.3824H62.9653V23.9264H69.0673ZM63.9193 26.0774H68.1133V24.8084H63.9193V26.0774ZM63.6763 21.1184C63.3703 21.5234 63.0103 21.8924 62.6143 22.2254L62.0563 21.4874C62.8483 20.8484 63.3793 20.0654 63.6583 19.1474L64.5943 19.2554C64.4953 19.5974 64.3693 19.9124 64.2253 20.2184H65.6293V19.0484H66.5743V20.2184H69.4093V21.1184H66.5743V22.2794H70.1023V23.1974H61.8763V22.2794H65.6293V21.1184H63.6763Z" fill="#333333"/>
<path d="M39.4893 35.2615C42.8033 35.2615 46.0702 36.0458 49.0231 37.5503C51.9759 39.0549 54.5307 41.2369 56.4786 43.918C58.4265 46.5991 59.7123 49.7031 60.2307 52.9763C60.7491 56.2496 60.4855 59.599 59.4614 62.7508C58.4374 65.9026 56.6819 68.7673 54.3385 71.1107C51.9951 73.4541 49.1304 75.2096 45.9786 76.2337C42.8268 77.2577 39.4774 77.5214 36.2041 77.0029C32.9309 76.4845 29.8269 75.1988 27.1458 73.2508L31.5397 67.203C33.2664 68.4576 35.2655 69.2856 37.3736 69.6195C39.4816 69.9534 41.6387 69.7836 43.6686 69.1241C45.6984 68.4645 47.5434 67.3339 49.0525 65.8248C50.5617 64.3156 51.6923 62.4706 52.3518 60.4408C53.0114 58.4109 53.1812 56.2538 52.8473 54.1458C52.5134 52.0377 51.6853 50.0386 50.4308 48.312C49.1763 46.5853 47.5309 45.18 45.6293 44.211C43.7276 43.2421 41.6236 42.7369 39.4893 42.7369V35.2615Z" fill="#FFE7C5"/>
<path d="M27.1458 73.2508C23.558 70.6441 20.8875 66.9685 19.5171 62.7508C18.1467 58.5331 18.1467 53.9898 19.5171 49.7721C20.8875 45.5544 23.558 41.8788 27.1458 39.2721C30.7336 36.6654 35.0545 35.2615 39.4893 35.2615V42.5249C36.5884 42.5249 33.7619 43.4432 31.4151 45.1483C29.0682 46.8534 27.3214 49.2577 26.425 52.0166C25.5285 54.7755 25.5285 57.7474 26.425 60.5063C27.3214 63.2652 29.0682 65.6695 31.4151 67.3746L27.1458 73.2508Z" fill="#FEA522"/>
<rect opacity="0.4" x="68.4893" y="35.2615" width="80.5126" height="10" rx="2" fill="#FFEFD2"/>
<rect opacity="0.4" x="68.4893" y="51.2615" width="80.5126" height="10" rx="2" fill="#FFEFD2"/>
<rect opacity="0.4" x="68.4893" y="67.2615" width="35.255" height="10" rx="2" fill="#FFEFD2"/>
<path d="M34.4853 51.2731H35.7693V56.8891H37.0413V58.0051H35.7693V59.8411H34.4373V58.0051H30.2973V56.6731L34.4853 51.2731ZM34.4013 53.0491L31.4373 56.8891H34.4373V53.0491H34.4013ZM40.8646 51.1051C41.8606 51.1051 42.6406 51.5131 43.2046 52.3531C43.7326 53.1451 43.9966 54.2131 43.9966 55.5571C43.9966 56.9011 43.7326 57.9691 43.2046 58.7611C42.6406 59.5891 41.8606 60.0091 40.8646 60.0091C39.8566 60.0091 39.0766 59.5891 38.5246 58.7611C37.9966 57.9691 37.7326 56.9011 37.7326 55.5571C37.7326 54.2131 37.9966 53.1451 38.5246 52.3531C39.0766 51.5131 39.8566 51.1051 40.8646 51.1051ZM40.8646 52.2931C40.1806 52.2931 39.7006 52.6651 39.4246 53.4331C39.2326 53.9491 39.1366 54.6571 39.1366 55.5571C39.1366 56.4451 39.2326 57.1531 39.4246 57.6811C39.7006 58.4371 40.1806 58.8211 40.8646 58.8211C41.5366 58.8211 42.0166 58.4371 42.3046 57.6811C42.4966 57.1531 42.5926 56.4451 42.5926 55.5571C42.5926 54.6571 42.4966 53.9491 42.3046 53.4331C42.0166 52.6651 41.5366 52.2931 40.8646 52.2931ZM49.2405 57.3719C49.5942 57.3719 49.8657 57.4918 50.0552 57.7444C50.2194 57.9592 50.3078 58.2497 50.3078 58.6096C50.3078 58.9633 50.2194 59.2538 50.0552 59.4748C49.8657 59.7148 49.5942 59.8411 49.2405 59.8411C48.8869 59.8411 48.609 59.7148 48.4195 59.4748C48.2427 59.2474 48.1606 58.9633 48.1606 58.6096C48.1606 58.2497 48.2427 57.9592 48.4195 57.7444C48.609 57.4918 48.8869 57.3719 49.2405 57.3719ZM48.5964 55.2437H49.1458L46.6134 59.9295H46.064L48.5964 55.2437ZM45.9819 55.3321C46.3356 55.3321 46.6071 55.4521 46.7966 55.7047C46.9608 55.9194 47.0492 56.2099 47.0492 56.5698C47.0492 56.9235 46.9608 57.214 46.7966 57.435C46.6071 57.675 46.3356 57.8013 45.9819 57.8013C45.6283 57.8013 45.3504 57.675 45.1609 57.435C44.9841 57.2077 44.902 56.9235 44.902 56.5698C44.902 56.2099 44.9841 55.9194 45.1609 55.7047C45.3504 55.4521 45.6283 55.3321 45.9819 55.3321ZM49.2405 57.8329C49.0826 57.8329 48.969 57.915 48.9058 58.0791C48.8553 58.2054 48.83 58.3823 48.83 58.6096C48.83 58.8306 48.8553 59.0075 48.9058 59.1338C48.969 59.298 49.0826 59.3801 49.2405 59.3801C49.3921 59.3801 49.4994 59.2916 49.5689 59.1211C49.6131 58.9948 49.6384 58.8243 49.6384 58.6096C49.6384 58.3823 49.6131 58.2118 49.5626 58.0855C49.4994 57.915 49.3921 57.8329 49.2405 57.8329ZM45.9819 55.7931C45.824 55.7931 45.7104 55.8752 45.6472 56.0394C45.5967 56.1657 45.5714 56.3425 45.5714 56.5698C45.5714 56.7909 45.5967 56.9677 45.6472 57.094C45.7104 57.2582 45.824 57.3403 45.9819 57.3403C46.1335 57.3403 46.2408 57.2519 46.3103 57.0814C46.3545 56.9551 46.3798 56.7845 46.3798 56.5698C46.3798 56.3425 46.3545 56.172 46.304 56.0457C46.2408 55.8752 46.1335 55.7931 45.9819 55.7931Z" fill="#333333"/>
<path d="M18.4893 85.6816C18.4893 83.3565 20.3742 81.4716 22.6993 81.4716H144.792C147.117 81.4716 149.002 83.3565 149.002 85.6816V92.4716C149.002 94.7967 147.117 96.6816 144.792 96.6816H22.6993C20.3742 96.6816 18.4893 94.7967 18.4893 92.4716V85.6816Z" fill="#F7F8FA"/>
<rect x="9.82422" y="70.8347" width="147.353" height="14.7353" fill="url(#paint0_linear_2548_6113)"/>
</g>
</g>
<path d="M8.84118 0V0.368382H158.159V0V-0.368382H8.84118V0ZM167 8.84118H166.632V76.6235H167H167.368V8.84118H167ZM158.159 85.4647V85.0963H8.84117V85.4647V85.8331H158.159V85.4647ZM0 76.6235H0.368382V8.84119H0H-0.368382V76.6235H0ZM8.84117 85.4647V85.0963C4.16178 85.0963 0.368382 81.3029 0.368382 76.6235H0H-0.368382C-0.368382 81.7098 3.75487 85.8331 8.84117 85.8331V85.4647ZM167 76.6235H166.632C166.632 81.3029 162.838 85.0963 158.159 85.0963V85.4647V85.8331C163.245 85.8331 167.368 81.7098 167.368 76.6235H167ZM158.159 0V0.368382C162.838 0.368382 166.632 4.16178 166.632 8.84118H167H167.368C167.368 3.75488 163.245 -0.368382 158.159 -0.368382V0ZM8.84118 0V-0.368382C3.75488 -0.368382 -0.368382 3.75489 -0.368382 8.84119H0H0.368382C0.368382 4.1618 4.16178 0.368382 8.84118 0.368382V0Z" fill="#FFEFD2" mask="url(#path-1-inside-1_2548_6113)"/>
<defs>
<linearGradient id="paint0_linear_2548_6113" x1="62.5029" y1="85.57" x2="62.5029" y2="70.8347" gradientUnits="userSpaceOnUse">
<stop stop-color="white"/>
<stop offset="1" stop-color="white" stop-opacity="0"/>
</linearGradient>
<clipPath id="clip0_2548_6113">
<path d="M0 8.84119C0 3.95834 3.95833 0 8.84118 0H158.159C163.042 0 167 3.95833 167 8.84118V76.6235C167 81.5064 163.042 85.4647 158.159 85.4647H8.84117C3.95832 85.4647 0 81.5064 0 76.6235V8.84119Z" fill="white"/>
</clipPath>
<clipPath id="clip1_2548_6113">
<path d="M10.0693 15.1564C10.0693 11.6687 12.8967 8.84131 16.3845 8.84131H151.107C154.595 8.84131 157.422 11.6687 157.422 15.1564V85.6753H10.0693V15.1564Z" fill="white"/>
</clipPath>
<clipPath id="clip2_2548_6113">
<rect width="12" height="12" fill="white" transform="translate(18.4893 16.9464)"/>
</clipPath>
</defs>
</svg>
