<svg preserveAspectRatio="none" width="100%" height="100%" overflow="visible" style="display: block;" viewBox="0 0 24.5 23.1212" fill="none" xmlns="http://www.w3.org/2000/svg">
<g id="Group 47644">
<rect id="&#231;&#159;&#169;&#229;&#189;&#162;" x="15.2937" y="14.7424" width="1.10303" height="1.37879" fill="var(--fill-0, #14BFBF)"/>
<g id="&#232;&#183;&#175;&#229;&#190;&#132;" filter="url(#filter0_d_19922_104899)">
<path fill-rule="evenodd" clip-rule="evenodd" d="M15.2939 16.1212H4.53939C3.32102 16.1212 2.33333 15.1335 2.33333 13.9152V3.98788C2.33333 3.0741 3.0741 2.33333 3.98788 2.33333H13.6394C14.5532 2.33333 15.2939 3.0741 15.2939 3.98788V10.0545H16.397C17.0062 10.0545 17.5 10.5484 17.5 11.1576V15.0182C17.5 15.6274 17.0062 16.1212 16.397 16.1212C15.7878 16.1212 15.2939 15.6274 15.2939 15.0182V16.1212Z" fill="url(#paint0_linear_19922_104899)"/>
</g>
<path id="&#231;&#159;&#169;&#229;&#189;&#162;_2" d="M15.2937 10.0545H17.4998V14.9545C17.4998 15.5989 16.9774 16.1212 16.3331 16.1212H15.2937V10.0545Z" fill="var(--fill-0, #7C9BFA)"/>
<rect id="&#231;&#159;&#169;&#229;&#189;&#162;_3" opacity="0.5" x="4.81535" y="12.2606" width="7.72121" height="1.10303" rx="0.551515" fill="var(--fill-0, white)"/>
<rect id="&#231;&#159;&#169;&#229;&#189;&#162;_4" opacity="0.5" x="4.81535" y="9.77879" width="7.72121" height="1.10303" rx="0.551515" fill="var(--fill-0, white)"/>
<rect id="&#231;&#159;&#169;&#229;&#189;&#162;_5" x="9.22738" y="7.29697" width="3.30909" height="1.10303" rx="0.551515" fill="var(--fill-0, white)"/>
<path id="&#231;&#159;&#169;&#229;&#189;&#162; (Stroke)" fill-rule="evenodd" clip-rule="evenodd" d="M5.91838 6.19395V7.29698H7.02141V6.19395H5.91838ZM5.64262 5.09092C5.18573 5.09092 4.81535 5.4613 4.81535 5.91819V7.57273C4.81535 8.02962 5.18573 8.40001 5.64262 8.40001H7.29717C7.75406 8.40001 8.12444 8.02962 8.12444 7.57273V5.91819C8.12444 5.4613 7.75406 5.09092 7.29717 5.09092H5.64262Z" fill="var(--fill-0, white)"/>
</g>
<defs>
<filter id="filter0_d_19922_104899" x="0" y="0" width="24.5" height="23.1212" filterUnits="userSpaceOnUse" color-interpolation-filters="sRGB">
<feFlood flood-opacity="0" result="BackgroundImageFix"/>
<feColorMatrix in="SourceAlpha" type="matrix" values="0 0 0 0 0 0 0 0 0 0 0 0 0 0 0 0 0 0 127 0" result="hardAlpha"/>
<feOffset dx="2.33333" dy="2.33333"/>
<feGaussianBlur stdDeviation="2.33333"/>
<feColorMatrix type="matrix" values="0 0 0 0 0.172549 0 0 0 0 0.360784 0 0 0 0 0.968627 0 0 0 0.3 0"/>
<feBlend mode="normal" in2="BackgroundImageFix" result="effect1_dropShadow_19922_104899"/>
<feBlend mode="normal" in="SourceGraphic" in2="effect1_dropShadow_19922_104899" result="shape"/>
</filter>
<linearGradient id="paint0_linear_19922_104899" x1="25.0833" y1="9.22727" x2="11.3578" y2="-5.87077" gradientUnits="userSpaceOnUse">
<stop stop-color="#2C5CF7"/>
<stop offset="1" stop-color="#80A6FF"/>
</linearGradient>
</defs>
</svg>
