<svg width="18" height="18" viewBox="0 0 18 18" fill="none" xmlns="http://www.w3.org/2000/svg">
<path fill-rule="evenodd" clip-rule="evenodd" d="M14 3C14.5523 3 15 3.44772 15 4V13C15 13.5523 14.5523 14 14 14H6.749L3 17L2.999 14H1C0.447715 14 0 13.5523 0 13V4C0 3.44772 0.447715 3 1 3H14ZM14 4H1V13H4V15L6.999 13H14V4ZM17 0C17.5523 0 18 0.447715 18 1V10C18 10.5523 17.5523 11 17 11H16V10H17V1H4L3.999 2H3V1C3 0.447715 3.44772 0 4 0H17ZM11.5 9C11.7761 9 12 9.22386 12 9.5C12 9.77614 11.7761 10 11.5 10H3.5C3.22386 10 3 9.77614 3 9.5C3 9.22386 3.22386 9 3.5 9H11.5ZM11.5 7C11.7761 7 12 7.22386 12 7.5C12 7.77614 11.7761 8 11.5 8H3.5C3.22386 8 3 7.77614 3 7.5C3 7.22386 3.22386 7 3.5 7H11.5Z" fill="#666666"/>
</svg>
