<svg width="18" height="18" viewBox="0 0 18 18" fill="none" xmlns="http://www.w3.org/2000/svg">
<path fill-rule="evenodd" clip-rule="evenodd" d="M9 0C13.9706 0 18 4.02944 18 9C18 13.9706 13.9706 18 9 18C4.02944 18 0 13.9706 0 9C0 4.02944 4.02944 0 9 0ZM9 1C4.58172 1 1 4.58172 1 9C1 13.4183 4.58172 17 9 17C13.4183 17 17 13.4183 17 9C17 4.58172 13.4183 1 9 1Z" fill="#666666"/>
<path d="M14.2531 5.06066C14.4484 4.8654 14.4484 4.54882 14.2531 4.35355C14.0578 4.15829 13.7412 4.15829 13.546 4.35355L4.35359 13.5459C4.15833 13.7412 4.15833 14.0578 4.35359 14.253C4.54886 14.4483 4.86544 14.4483 5.0607 14.253L14.2531 5.06066Z" fill="#666666"/>
</svg>
