<svg width="16" height="16" viewBox="0 0 16 16" fill="none" xmlns="http://www.w3.org/2000/svg">
<path d="M10.6799 0.182406C10.7259 -0.0608024 11.0742 -0.0608019 11.1202 0.182407L11.329 1.28603C11.5003 2.19149 12.2085 2.89973 13.114 3.07104L14.2176 3.27985C14.4608 3.32586 14.4608 3.67414 14.2176 3.72015L13.114 3.92896C12.2085 4.10027 11.5003 4.80851 11.329 5.71397L11.1202 6.81759C11.0742 7.0608 10.7259 7.0608 10.6799 6.81759L10.4711 5.71397C10.2997 4.8085 9.59152 4.10027 8.68606 3.92896L7.58243 3.72015C7.33922 3.67414 7.33922 3.32586 7.58243 3.27985L8.68606 3.07104C9.59152 2.89973 10.2997 2.19149 10.4711 1.28603L10.6799 0.182406Z" fill="#645BFF"/>
<path d="M6.24846 1.07471C3.2662 1.57504 0.993774 4.16871 0.993774 7.29315C0.993774 10.7756 3.8169 13.5988 7.2994 13.5988C10.4197 13.5988 13.0107 11.3323 13.5158 8.35589" stroke="#645BFF" stroke-width="1.2" stroke-linecap="round"/>
<path d="M14.582 15.4243C14.8163 15.6586 15.1962 15.6586 15.4305 15.4243C15.6648 15.19 15.6648 14.8101 15.4305 14.5758L15.0062 15.0001L14.582 15.4243ZM11.7366 11.7305L11.3124 12.1547L14.582 15.4243L15.0062 15.0001L15.4305 14.5758L12.1609 11.3062L11.7366 11.7305Z" fill="#645BFF"/>
</svg>
