<svg preserveAspectRatio="none" width="100%" height="100%" overflow="visible" style="display: block;" viewBox="0 0 25.6663 24.661" fill="none" xmlns="http://www.w3.org/2000/svg">
<g id="Group 47648">
<g id="&#232;&#183;&#175;&#229;&#190;&#132;" filter="url(#filter0_d_19922_104823)">
<path fill-rule="evenodd" clip-rule="evenodd" d="M11.9761 2.80767L12.0451 2.85891L18.3366 7.6985C18.7064 7.98298 18.7756 8.51339 18.4911 8.8832C18.2176 9.2388 17.7166 9.31644 17.3497 9.06899L17.3064 9.03773L16.695 8.56743L16.6951 15.9714C16.6951 16.9045 15.9386 17.661 15.0055 17.661H5.9942C5.06105 17.661 4.30459 16.9045 4.30459 15.9714L4.30455 8.56743L3.69327 9.03773C3.32345 9.3222 2.79304 9.25302 2.50857 8.8832C2.23503 8.52761 2.28848 8.02354 2.62176 7.7324L2.66309 7.6985L8.95457 2.85891C9.84279 2.17566 11.0709 2.15858 11.9761 2.80767Z" fill="url(#paint0_linear_19922_104823)"/>
</g>
<path id="&#232;&#183;&#175;&#229;&#190;&#132; 25" d="M12.6359 9.38901C12.8558 9.16907 13.2124 9.16907 13.4324 9.38901C13.6407 9.59738 13.6517 9.9284 13.4653 10.1497L13.4324 10.1855L10.0587 13.5591C9.85037 13.7675 9.51935 13.7785 9.29807 13.592L9.26225 13.5591L7.56706 11.8639C7.34711 11.644 7.34711 11.2874 7.56706 11.0675C7.77543 10.8591 8.10645 10.8481 8.32772 11.0346L8.36355 11.0675L9.66055 12.3643L12.6359 9.38901Z" fill="var(--fill-0, white)"/>
</g>
<defs>
<filter id="filter0_d_19922_104823" x="9.01292e-10" y="1.21934e-08" width="25.6663" height="24.661" filterUnits="userSpaceOnUse" color-interpolation-filters="sRGB">
<feFlood flood-opacity="0" result="BackgroundImageFix"/>
<feColorMatrix in="SourceAlpha" type="matrix" values="0 0 0 0 0 0 0 0 0 0 0 0 0 0 0 0 0 0 127 0" result="hardAlpha"/>
<feOffset dx="2.33333" dy="2.33333"/>
<feGaussianBlur stdDeviation="2.33333"/>
<feColorMatrix type="matrix" values="0 0 0 0 0.172549 0 0 0 0 0.360784 0 0 0 0 0.968627 0 0 0 0.3 0"/>
<feBlend mode="normal" in2="BackgroundImageFix" result="effect1_dropShadow_19922_104823"/>
<feBlend mode="normal" in="SourceGraphic" in2="effect1_dropShadow_19922_104823" result="shape"/>
</filter>
<linearGradient id="paint0_linear_19922_104823" x1="26.1523" y1="9.99715" x2="10.8289" y2="-4.97062" gradientUnits="userSpaceOnUse">
<stop stop-color="#2C5CF7"/>
<stop offset="1" stop-color="#80A6FF"/>
</linearGradient>
</defs>
</svg>
