<svg preserveAspectRatio="none" width="100%" height="100%" overflow="visible" style="display: block;" viewBox="0 0 26.5033 25.6671" fill="none" xmlns="http://www.w3.org/2000/svg">
<g id="&#230;&#159;&#165;&#232;&#175;&#162;">
<g id="Vector" filter="url(#filter0_d_19922_105049)">
<path d="M19.3448 17.5241L17.6359 15.8074C18.1956 15.1602 18.5168 14.341 18.5462 13.4859C18.5755 12.6308 18.3112 11.7914 17.7973 11.1074C17.2833 10.4234 16.5507 9.93598 15.7212 9.72622C14.8917 9.51645 14.0154 9.59699 13.2381 9.95444C12.4607 10.3119 11.8292 10.9247 11.4485 11.6909C11.0678 12.4572 10.961 13.3307 11.1457 14.1661C11.3304 15.0015 11.7956 15.7485 12.4639 16.2828C13.1321 16.8171 13.9631 17.1065 14.8187 17.1029C15.5545 17.1034 16.274 16.8862 16.8866 16.4788L18.6347 18.2347C18.7174 18.3188 18.827 18.3715 18.9444 18.3836C19.0619 18.3956 19.1799 18.3663 19.278 18.3007C19.3762 18.2351 19.4483 18.1373 19.4821 18.0242C19.5159 17.9111 19.5091 17.7897 19.4629 17.681C19.4373 17.6195 19.3999 17.5637 19.3527 17.5167L19.3448 17.5245V17.5241ZM14.8191 16.2991C14.2349 16.3023 13.663 16.132 13.1758 15.8097C12.6886 15.4875 12.308 15.0279 12.0823 14.4891C11.8566 13.9504 11.7959 13.3567 11.9079 12.7834C12.02 12.2102 12.2997 11.683 12.7116 11.2689C13.1236 10.8548 13.6492 10.5722 14.2219 10.4571C14.7946 10.3421 15.3885 10.3996 15.9285 10.6224C16.4684 10.8453 16.9301 11.2234 17.2549 11.7089C17.5797 12.1944 17.7531 12.7654 17.753 13.3495C17.755 14.1298 17.447 14.8788 16.8967 15.432C16.3464 15.9851 15.599 16.297 14.8187 16.2991H14.8191ZM17.3314 6.15492C17.3314 6.04569 17.1521 5.98308 17.0193 5.91298L9.95777 2.37811C9.90251 2.34871 9.84087 2.33333 9.77827 2.33333C9.71567 2.33333 9.65403 2.34871 9.59877 2.37811L3.59787 5.39779C3.52564 5.43421 3.46494 5.48997 3.42253 5.55885C3.38012 5.62773 3.35766 5.70704 3.35766 5.78793C3.35766 5.86882 3.38012 5.94812 3.42253 6.017C3.46494 6.08589 3.52564 6.14164 3.59787 6.17806L9.94995 9.94704C10.1324 10.0532 10.3396 10.1092 10.5507 10.1092C10.7618 10.1092 10.9691 10.0532 11.1515 9.94704L16.3799 7.00529V8.85473C16.3799 8.95819 16.421 9.05742 16.4941 9.1306C16.5673 9.20379 16.6665 9.24495 16.7699 9.24504H16.8717C16.9751 9.24495 17.0743 9.20379 17.1474 9.1306C17.2205 9.05742 17.2616 8.95819 17.2616 8.85473V6.22502C17.2653 6.21641 17.2672 6.20715 17.2672 6.1978C17.2672 6.18845 17.2653 6.17919 17.2616 6.17058L17.3317 6.15492H17.3314ZM12.4783 16.7517C12.4524 16.7048 12.4173 16.6637 12.3751 16.6307C12.3329 16.5977 12.2845 16.5736 12.2328 16.5598C12.181 16.546 12.1271 16.5427 12.074 16.5503C12.021 16.5578 11.9701 16.576 11.9243 16.6037L10.3634 17.5245L10.1997 17.6102V11.8509C10.2026 11.6588 10.1534 11.4696 10.0572 11.3033C9.96101 11.137 9.82151 10.9999 9.65356 10.9066L2.91866 6.94268C2.85951 6.90845 2.79239 6.89036 2.72405 6.89024C2.6557 6.89011 2.58852 6.90795 2.52924 6.94197C2.46997 6.97598 2.42067 7.02498 2.38629 7.08406C2.35191 7.14313 2.33367 7.2102 2.33337 7.27854V14.0284C2.3324 14.0969 2.34911 14.1645 2.38189 14.2246C2.41468 14.2848 2.46243 14.3355 2.52053 14.3718C2.52053 14.3718 9.40345 18.5542 9.54399 18.6015C9.62156 18.6445 9.7088 18.6671 9.7975 18.6671C9.8862 18.6671 9.97344 18.6445 10.051 18.6015L12.3217 17.3057C12.3698 17.2821 12.4124 17.2487 12.4468 17.2077C12.4812 17.1666 12.5065 17.1188 12.5213 17.0673C12.536 17.0158 12.5397 16.9618 12.5323 16.9088C12.5248 16.8558 12.5063 16.8049 12.4779 16.7595V16.7517H12.4783ZM7.30424 11.6345C7.24936 11.7224 7.1624 11.7854 7.06182 11.8101C6.96125 11.8349 6.85498 11.8195 6.76557 11.7672L4.42476 10.3547C4.33488 10.2997 4.27045 10.2114 4.24557 10.109C4.2207 10.0067 4.23741 9.89862 4.29205 9.80855C4.34693 9.7207 4.43389 9.6577 4.53446 9.63293C4.63504 9.60815 4.74131 9.62354 4.83072 9.67584L7.17187 11.088C7.26178 11.143 7.32621 11.2315 7.35103 11.3339C7.37584 11.4363 7.35901 11.5445 7.30424 11.6345Z" fill="url(#paint0_linear_19922_105049)"/>
</g>
<path id="Vector_2" d="M14.8185 16.2991C14.2344 16.3022 13.6625 16.1318 13.1754 15.8096C12.6882 15.4873 12.3076 15.0277 12.082 14.4889C11.8563 13.9501 11.7957 13.3565 11.9078 12.7832C12.0198 12.21 12.2996 11.6829 12.7115 11.2688C13.1235 10.8547 13.6491 10.5722 14.2218 10.4571C14.7945 10.3421 15.3884 10.3996 15.9283 10.6225C16.4683 10.8453 16.9299 11.2235 17.2547 11.7089C17.5795 12.1944 17.7528 12.7654 17.7528 13.3495C17.7548 14.1298 17.4468 14.8788 16.8965 15.432C16.3462 15.9851 15.5988 16.297 14.8185 16.2991Z" fill="var(--fill-0, white)"/>
</g>
<defs>
<filter id="filter0_d_19922_105049" x="0" y="0" width="26.5033" height="25.6671" filterUnits="userSpaceOnUse" color-interpolation-filters="sRGB">
<feFlood flood-opacity="0" result="BackgroundImageFix"/>
<feColorMatrix in="SourceAlpha" type="matrix" values="0 0 0 0 0 0 0 0 0 0 0 0 0 0 0 0 0 0 127 0" result="hardAlpha"/>
<feOffset dx="2.33333" dy="2.33333"/>
<feGaussianBlur stdDeviation="2.33333"/>
<feColorMatrix type="matrix" values="0 0 0 0 1 0 0 0 0 0.466667 0 0 0 0 0.2 0 0 0 0.3 0"/>
<feBlend mode="normal" in2="BackgroundImageFix" result="effect1_dropShadow_19922_105049"/>
<feBlend mode="normal" in="SourceGraphic" in2="effect1_dropShadow_19922_105049" result="shape"/>
</filter>
<linearGradient id="paint0_linear_19922_105049" x1="28.0882" y1="10.5002" x2="11.7748" y2="-6.64835" gradientUnits="userSpaceOnUse">
<stop stop-color="#FF7733"/>
<stop offset="1" stop-color="#FFB685"/>
</linearGradient>
</defs>
</svg>
