<svg width="227" height="116" viewBox="0 0 227 116" fill="none" xmlns="http://www.w3.org/2000/svg">
<g clip-path="url(#clip0_7424_7448)">
<mask id="path-1-inside-1_7424_7448" fill="white">
<path d="M0 0H226.667V116H0V0Z"/>
</mask>
<path d="M0 0H226.667V116H0V0Z" fill="#EDFDF7"/>
<g clip-path="url(#clip1_7424_7448)">
<mask id="path-3-inside-2_7424_7448" fill="white">
<path d="M12.333 20.5714C12.333 15.8376 16.1706 12 20.9044 12H203.762C208.495 12 212.333 15.8376 212.333 20.5714V116.286H12.333V20.5714Z"/>
</mask>
<path d="M12.333 20.5714C12.333 15.8376 16.1706 12 20.9044 12H203.762C208.495 12 212.333 15.8376 212.333 20.5714V116.286H12.333V20.5714Z" fill="white"/>
<path d="M30.666 29.501H27.5708V35.2153H30.666V29.501Z" stroke="#13A374" stroke-width="0.952381" stroke-linecap="round" stroke-linejoin="round"/>
<path d="M33.7617 26.6436H30.6665V35.215H33.7617V26.6436Z" stroke="#13A374" stroke-width="0.952381" stroke-linejoin="round"/>
<path d="M36.857 31.4053H33.7617V35.2148H36.857V31.4053Z" stroke="#13A374" stroke-width="0.952381" stroke-linecap="round" stroke-linejoin="round"/>
<path d="M43.6759 27.703C43.5216 27.9259 43.3502 28.1144 43.1788 28.2859H44.2931C44.3274 28.0973 44.3531 27.9087 44.3702 27.703H43.6759ZM44.0359 29.1001H42.5016V28.2859H42.8788L42.4588 27.763C42.8531 27.4201 43.1959 26.9316 43.4959 26.2973L44.3016 26.4773C44.2416 26.6316 44.1816 26.7859 44.1131 26.923H46.4188V27.703H45.2102C45.1931 27.9087 45.1759 28.0973 45.1502 28.2859H46.6588V29.1001H44.9702L44.9445 29.1773C45.5788 29.503 46.1102 29.8201 46.5474 30.1459L46.0416 30.6516H49.3331V34.3459H48.4245V34.0287H44.4645V34.3459H43.5645V30.8573C43.3588 30.9773 43.1445 31.0973 42.9216 31.2087L42.3216 30.4801C43.1959 30.0944 43.7702 29.6316 44.0359 29.1001ZM44.4645 33.2401H48.4245V32.743H44.4645V33.2401ZM44.4645 31.9716H48.4245V31.4401H44.4645V31.9716ZM43.8645 30.6516H45.7674C45.4588 30.3773 45.0902 30.1116 44.6531 29.8373C44.4559 30.1287 44.1902 30.403 43.8645 30.6516ZM46.8902 26.9487H49.9588V30.2316H46.8902V26.9487ZM49.0845 29.4516V27.7373H47.7645V29.4516H49.0845ZM52.3074 31.4573V32.0144H53.9874V31.4573H52.3074ZM53.9874 30.7201V30.1287H52.3074V30.7201H53.9874ZM52.3074 32.7516V34.3373H51.4416V29.3573H54.8531V33.3344C54.8531 33.9601 54.5616 34.2773 53.9788 34.2773H53.3188L53.0959 33.4459L53.6959 33.4887C53.8845 33.4887 53.9874 33.3687 53.9874 33.1459V32.7516H52.3074ZM57.7502 30.2144H56.3531C55.7274 30.2144 55.4188 29.863 55.4188 29.1687V26.4259H56.3016V27.403C57.1588 27.2659 57.8616 27.1287 58.4102 26.983L58.7016 27.7716C57.9988 27.9259 57.2016 28.0716 56.3016 28.2087V28.9887C56.3016 29.263 56.3959 29.4087 56.6016 29.4087H57.5788C57.6988 29.4087 57.7845 29.3659 57.8445 29.2801C57.9045 29.1859 57.9474 28.9116 57.9645 28.4487L58.7959 28.723C58.7274 29.443 58.6159 29.8801 58.4616 30.0173C58.3074 30.1459 58.0674 30.2144 57.7502 30.2144ZM56.3016 32.203V33.1801C56.3016 33.3259 56.3959 33.403 56.5931 33.403H57.5788C57.6988 33.403 57.7931 33.3601 57.8445 33.2744C57.9131 33.1801 57.9559 32.9059 57.9816 32.443L58.7959 32.7001C58.7274 33.4287 58.6074 33.8573 58.4531 33.9944C58.2988 34.123 58.0674 34.1916 57.7502 34.1916H56.3445C55.7274 34.1916 55.4188 33.9173 55.4188 33.3773V30.4973H56.3016V31.3973C57.0902 31.3116 57.7931 31.1744 58.4102 30.9859L58.7016 31.783C57.9559 31.9801 57.1588 32.1173 56.3016 32.203ZM54.2445 26.983C54.7416 27.6601 55.1188 28.243 55.3931 28.7401L54.6559 29.263C54.5702 29.0916 54.4759 28.9116 54.3816 28.7316C53.4902 28.8687 52.4274 28.9801 51.2016 29.0487L50.9616 28.303C51.1159 28.2516 51.2531 28.183 51.3645 28.0801C51.8788 27.4801 52.2559 26.9059 52.5131 26.3744L53.3702 26.6316C53.0274 27.3001 52.6416 27.8401 52.2045 28.2601C52.7702 28.2259 53.3702 28.1659 54.0045 28.0973C53.8674 27.8744 53.7131 27.6516 53.5588 27.4201L54.2445 26.983ZM64.4788 29.863V32.8887C64.4788 33.1116 64.5816 33.2316 64.7874 33.2316H65.9788C66.0902 33.2316 66.2016 33.1716 66.3045 33.0687C66.4074 32.9573 66.4759 32.4773 66.5188 31.6201L67.3674 31.903C67.2645 32.9744 67.1359 33.6001 66.9731 33.7801C66.7845 33.9687 66.5359 34.0716 66.2102 34.0887H64.5388C63.8959 34.0887 63.5788 33.7373 63.5788 33.0516V26.4944H64.4788V29.0059C65.2502 28.783 65.9788 28.4916 66.6816 28.123L67.2131 28.8516C66.2445 29.2973 65.3359 29.6316 64.4788 29.863ZM60.0902 34.1916L59.8159 33.3601C59.9788 33.2401 60.0645 33.0601 60.0645 32.8287V26.5116H60.9645V28.7573H63.0731V29.6316H60.9645V33.1116C61.6674 32.9487 62.3702 32.7516 63.0645 32.5287L63.2959 33.3687C62.3016 33.6773 61.2302 33.9516 60.0902 34.1916ZM69.0559 29.803C68.8245 30.1116 68.5759 30.4116 68.3188 30.703L68.0188 29.743C68.7988 28.783 69.3731 27.6516 69.7502 26.3487L70.5902 26.743C70.4188 27.2916 70.2131 27.823 69.9645 28.3201V34.2687H69.0559V29.803ZM73.6502 29.4259H74.5159V34.243H73.6502V29.4259ZM71.5074 29.4516H72.3731V30.7116C72.3559 32.3744 71.9359 33.6001 71.1216 34.3716L70.4445 33.7801C71.1388 33.1459 71.4902 32.1173 71.5074 30.7116V29.4516ZM72.5874 26.4344H73.4016C73.9159 27.5316 74.8074 28.4916 76.0759 29.3144L75.5702 30.0773C74.4131 29.323 73.5559 28.3973 72.9902 27.2916C72.3474 28.5259 71.5331 29.4859 70.5388 30.163L70.0416 29.4001C71.1388 28.6459 71.9874 27.6516 72.5874 26.4344ZM80.8931 30.3687V31.2259H82.1445V30.3687H80.8931ZM80.8931 32.0573V33.0344H82.1445V32.0573H80.8931ZM80.8931 33.8916V34.2773H80.0102V29.623C79.8388 29.8459 79.6674 30.0687 79.4959 30.283L79.3588 29.8544V30.7459C79.1274 30.8487 78.8959 30.9516 78.6645 31.0459V33.3173C78.6645 33.9001 78.3559 34.2001 77.7559 34.2001H76.9845L76.7874 33.3344C77.0188 33.3687 77.2416 33.3944 77.4474 33.3944C77.6531 33.3944 77.7645 33.2916 77.7645 33.0859V31.3801C77.4559 31.483 77.1388 31.5859 76.8216 31.6716L76.5988 30.763C76.9931 30.6859 77.3788 30.5916 77.7645 30.4716V28.7401H76.7616V27.8744H77.7645V26.3916H78.6645V27.8744H79.4274V28.7401H78.6645V30.1459C78.9045 30.043 79.1274 29.9401 79.3502 29.8287L79.1959 29.3487C79.8645 28.4573 80.3274 27.4716 80.6016 26.4001L81.4759 26.5716C81.3559 26.983 81.2188 27.3773 81.0559 27.763H82.2559C82.1274 27.3687 81.9816 26.9744 81.8102 26.5973L82.6759 26.3659C82.8559 26.8716 83.0016 27.3344 83.1045 27.763H84.3816V28.6201H83.0274V29.5287H84.2102V30.3687H83.0274V31.2259H84.2102V32.0573H83.0274V33.0344H84.4759V33.8916H80.8931ZM82.1445 28.6201H80.8931V29.5287H82.1445V28.6201ZM85.4274 26.9059H87.2874V26.3916H88.1959V26.9059H90.1845V26.3916H91.0931V26.9059H92.9531V27.7201H91.0931V28.2516H90.1845V27.7201H88.1959V28.1487L89.0616 28.3116C89.0102 28.4487 88.9588 28.5859 88.9074 28.7144H92.9102V29.5287H88.5045C88.2474 29.9573 87.9559 30.3687 87.6131 30.7459V34.3373H86.7474V31.5859C86.4474 31.8344 86.1302 32.0744 85.8045 32.2973L85.2474 31.5601C86.1731 30.9601 86.9102 30.283 87.4588 29.5287H85.5731V28.7144H87.9474C88.0245 28.5516 88.0931 28.3973 88.1616 28.243H87.2874V27.7201H85.4274V26.9059ZM90.2874 31.2944C90.4759 31.1659 90.7502 30.9944 91.1102 30.7801H88.6416V29.9744H92.4045V30.6087C92.0531 30.8744 91.6502 31.1744 91.1874 31.5173V31.6544H92.9445V32.4944H91.1874V33.523C91.1874 34.0544 90.9216 34.3201 90.3988 34.3201H89.3445L89.0874 33.4544C89.4902 33.4887 89.8074 33.5144 90.0474 33.5144C90.2016 33.5144 90.2874 33.4287 90.2874 33.2744V32.4944H88.0502V31.6544H90.2874V31.2944Z" fill="#333333"/>
<path d="M20.9043 51.2856C20.9043 48.1297 23.4627 45.5713 26.6186 45.5713H198.047C201.203 45.5713 203.761 48.1297 203.761 51.2856V60.5713C203.761 63.7272 201.203 66.2856 198.047 66.2856H26.6186C23.4627 66.2856 20.9043 63.7272 20.9043 60.5713V51.2856Z" fill="#EDFDF7"/>
<path d="M26.6187 53.0719C26.6187 50.7049 28.5374 48.7861 30.9044 48.7861H49.9044C52.2713 48.7861 54.1901 50.7049 54.1901 53.0718V58.7861C54.1901 61.1531 52.2713 63.0718 49.9044 63.0718H30.9044C28.5374 63.0718 26.6187 61.1531 26.6187 58.7861V53.0719Z" fill="#1CC78D"/>
<path d="M31.1541 52.3087H36.1684V52.9173H34.0084V58.4287H33.3141V52.9173H31.1541V52.3087ZM38.8267 53.8773C39.4867 53.8773 40.0181 54.1001 40.4124 54.563C40.7896 55.0001 40.9781 55.5487 40.9781 56.2173C40.9781 56.8773 40.7896 57.4259 40.421 57.8544C40.0181 58.3173 39.4867 58.5487 38.8267 58.5487C38.1581 58.5487 37.6353 58.3173 37.241 57.8544C36.8639 57.4259 36.6753 56.8773 36.6753 56.2173C36.6753 55.5487 36.8639 55.0001 37.241 54.563C37.6353 54.1001 38.1581 53.8773 38.8267 53.8773ZM38.8267 54.4516C38.3553 54.4516 37.9867 54.6316 37.7296 54.9916C37.4896 55.3173 37.3781 55.7201 37.3781 56.2173C37.3781 56.7059 37.4896 57.1087 37.7296 57.4344C37.9867 57.7944 38.3553 57.9744 38.8267 57.9744C39.2896 57.9744 39.6581 57.7944 39.9324 57.4344C40.1639 57.1087 40.2839 56.6973 40.2839 56.2173C40.2839 55.7201 40.1639 55.3173 39.9324 54.9916C39.6581 54.6316 39.2896 54.4516 38.8267 54.4516ZM43.9862 53.8773C44.6205 53.8773 45.1262 54.1087 45.4948 54.5887C45.829 55.0173 46.0005 55.5573 46.0005 56.2259C46.0005 56.8773 45.829 57.4173 45.5033 57.8459C45.1433 58.3087 44.6548 58.5487 44.0205 58.5487C43.3862 58.5487 42.8976 58.2401 42.5548 57.623V60.1259H41.869V53.9973H42.5119V54.7259C42.829 54.1601 43.3176 53.8773 43.9862 53.8773ZM43.9005 54.443C43.4548 54.443 43.1033 54.6144 42.8633 54.9659C42.6405 55.2744 42.529 55.6859 42.529 56.183V56.2687C42.529 56.783 42.649 57.1944 42.9062 57.5116C43.1462 57.8201 43.4633 57.983 43.8748 57.983C44.3548 57.983 44.7148 57.8116 44.9633 57.4859C45.1862 57.1773 45.2976 56.7573 45.2976 56.2259C45.2976 55.703 45.1862 55.283 44.9805 54.9744C44.7319 54.6144 44.3719 54.443 43.9005 54.443ZM48.3314 52.3087H48.8799V58.4287H48.1771V53.1659C47.7914 53.5601 47.3114 53.8344 46.7371 54.0059V53.303C47.0114 53.2259 47.3028 53.1059 47.5942 52.9344C47.8856 52.7459 48.1256 52.5401 48.3314 52.3087Z" fill="white"/>
<path d="M63.8729 51.3916H64.5072V52.9344H67.5843V56.963H66.9672V56.423H64.5072V59.3459H63.8729V56.423H61.4214V56.963H60.8043V52.9344H63.8729V51.3916ZM61.4214 55.823H63.8729V53.5344H61.4214V55.823ZM64.5072 55.823H66.9672V53.5344H64.5072V55.823ZM75.9672 54.9401H74.1329V55.6259H76.1386V56.1316H74.1329V56.843H76.3872V57.3659H74.1329V58.2144H73.5329V57.3659H71.5872V56.843H73.5329V56.1316H71.8529V55.6259H73.5329V54.9401H72.0329V54.4259H73.5329V53.7401H71.6129V53.2259H73.5329V52.5487H72.0329V52.0344H73.5329V51.4087H74.1329V52.0344H75.9672V53.2259H76.5414V53.7401H75.9672V54.9401ZM74.1329 52.5487V53.2259H75.3672V52.5487H74.1329ZM74.1329 53.7401V54.4259H75.3672V53.7401H74.1329ZM73.73 58.523C74.6729 58.523 75.6414 58.5059 76.6357 58.4801L76.5329 59.0716H73.9957C72.4529 59.0716 71.3472 58.8487 70.6786 58.403C70.5672 58.3173 70.4729 58.2401 70.3872 58.1544C70.1129 58.5573 69.77 58.9087 69.3757 59.2087L68.9729 58.6859C69.3757 58.3944 69.71 58.0516 69.9843 57.6573C69.65 57.1773 69.3757 56.5687 69.17 55.8316L69.6843 55.643C69.8557 56.2516 70.0614 56.7487 70.2843 57.1259C70.5757 56.5173 70.7472 55.8059 70.7986 54.9916H69.2129V54.5116C69.71 53.8773 70.1729 53.1916 70.5843 52.4544H69.1786V51.8716H71.2786V52.3773C70.85 53.1659 70.4214 53.843 70.01 54.4259H71.3557V54.7944C71.3214 55.9259 71.09 56.8859 70.6786 57.6744C70.8157 57.8201 70.9529 57.9316 71.0986 58.0173C71.6814 58.343 72.5643 58.5059 73.73 58.523ZM78.1014 52.0773H84.5814V52.6773H78.1014V52.0773ZM78.6757 55.043H83.9986V55.643H78.6757V55.043ZM77.4672 58.2144H85.1986V58.8316H77.4672V58.2144ZM88.4472 55.9259H91.4729V58.0859H88.4472V55.9259ZM90.9157 57.563V56.4401H89.0043V57.563H90.9157ZM92.3472 52.343H87.65V53.2859H92.3472V52.343ZM87.65 53.843V54.5973H93.3672C93.3672 56.7144 93.3243 58.0259 93.2386 58.523C93.1614 58.9944 92.81 59.2344 92.1929 59.2344C91.9786 59.2344 91.61 59.2259 91.0872 59.2087L90.95 58.6859C91.4043 58.703 91.79 58.7116 92.1157 58.7116C92.4243 58.7116 92.6129 58.5744 92.6729 58.3001C92.7243 57.9573 92.75 56.9116 92.7672 55.1544H87.65C87.6329 56.7401 87.2386 58.103 86.4672 59.243L85.9872 58.8144C86.69 57.863 87.0414 56.6287 87.05 55.1201V51.7601H92.9472V53.843H87.65Z" fill="#333333"/>
<path d="M147.653 51.4259H148.262V52.9859H150.233V53.5687H148.262V55.2401H149.882V59.2601H149.29V58.8744H147.002V59.2601H146.419V55.2401H147.653V51.4259ZM147.002 58.2916H149.29V55.8144H147.002V58.2916ZM145.845 51.7687V57.1344H145.287V52.3344H143.342V57.1344H142.776V51.7687H145.845ZM144.036 52.9344H144.576V55.763C144.559 56.7144 144.405 57.4687 144.13 58.0344C143.856 58.5659 143.402 58.9773 142.776 59.2773L142.442 58.7544C143.033 58.4716 143.445 58.103 143.685 57.6401C143.907 57.1601 144.019 56.5344 144.036 55.763V52.9344ZM144.867 57.3916C145.347 57.8716 145.742 58.343 146.067 58.8144L145.622 59.2516C145.339 58.7887 144.953 58.3001 144.465 57.7773L144.867 57.3916ZM156.482 54.4173H154.802C154.733 55.8059 154.399 56.9287 153.816 57.7687L153.387 57.323C153.919 56.5687 154.202 55.523 154.245 54.1859V51.9659C155.565 51.9401 156.747 51.7859 157.81 51.4944L158.102 52.0344C157.125 52.2916 156.027 52.4459 154.819 52.4887V53.8259H158.573V54.4173H157.082V58.0259H156.482V54.4173ZM151.716 51.5459C152.282 52.0001 152.762 52.4544 153.156 52.9087L152.71 53.3459C152.367 52.9173 151.896 52.4459 151.296 51.9487L151.716 51.5459ZM156.696 59.1401C156.233 59.1401 155.727 59.1316 155.187 59.123C154.639 59.1059 154.202 59.0544 153.859 58.9687C153.525 58.8659 153.225 58.6516 152.959 58.3344C152.847 58.1887 152.736 58.1201 152.633 58.1201C152.427 58.1201 152.093 58.5144 151.622 59.303L151.159 58.883C151.613 58.163 152.016 57.7259 152.367 57.5716V54.9659H151.142V54.4001H152.942V57.6144C153.01 57.6659 153.079 57.7344 153.147 57.8116C153.353 58.0516 153.567 58.2316 153.807 58.3516C154.065 58.4716 154.45 58.5316 154.947 58.5487C155.393 58.5573 155.95 58.5659 156.61 58.5659C157.022 58.5659 157.433 58.5573 157.862 58.5573C158.282 58.5487 158.607 58.5401 158.83 58.523L158.676 59.1401H156.696ZM160.827 51.4516H161.436V53.0716H162.43V53.663H161.436V54.323C161.856 54.7516 162.276 55.2316 162.696 55.7544L162.345 56.2773C161.993 55.7373 161.693 55.3087 161.436 54.983V59.2773H160.827V55.0087C160.553 55.8144 160.202 56.5516 159.773 57.2201L159.507 56.5516C160.125 55.7116 160.562 54.743 160.827 53.663H159.782V53.0716H160.827V51.4516ZM163.356 55.3259L163.922 55.4544C163.647 56.6544 163.245 57.683 162.73 58.5573L162.199 58.2144C162.73 57.3487 163.116 56.3887 163.356 55.3259ZM166.459 55.283C166.819 56.2516 167.127 57.2887 167.385 58.3859L166.827 58.6344C166.545 57.443 166.236 56.3887 165.902 55.463L166.459 55.283ZM164.539 59.1916H163.665L163.545 58.6173C163.819 58.6344 164.076 58.6516 164.325 58.6516C164.556 58.6516 164.676 58.523 164.676 58.2744V54.6144H162.585V54.023H167.393V54.6144H165.293V58.4287C165.293 58.9344 165.036 59.1916 164.539 59.1916ZM163.039 51.9401H166.947V52.523H163.039V51.9401ZM172.502 57.4173C172.93 57.9487 173.247 58.4201 173.47 58.8144L172.982 59.1573C172.759 58.7201 172.442 58.2316 172.047 57.7001L172.502 57.4173ZM170.985 56.063V58.3687C171.293 58.283 171.602 58.1887 171.902 58.0859L172.013 58.6601C171.525 58.8059 170.942 58.9601 170.265 59.1144L170.127 58.5573C170.29 58.5144 170.376 58.4373 170.376 58.3173V53.783C172.005 53.6973 173.556 53.5087 175.013 53.2344L175.33 53.7487C174.705 53.8687 174.045 53.963 173.359 54.0487C173.41 54.5973 173.47 55.0687 173.53 55.4801H175.613V56.063H173.633C173.685 56.3373 173.745 56.5687 173.805 56.7744C173.967 57.3401 174.165 57.7859 174.396 58.103C174.619 58.3859 174.816 58.5316 174.979 58.5316C175.116 58.5144 175.245 58.1116 175.373 57.3401L175.887 57.6744C175.639 58.6773 175.356 59.183 175.039 59.183C174.765 59.183 174.473 59.0116 174.182 58.6859C173.865 58.343 173.59 57.8373 173.35 57.1859C173.247 56.8944 173.145 56.5173 173.05 56.063H170.985ZM172.759 54.1173C172.176 54.1773 171.585 54.2287 170.985 54.2716V55.4801H172.947C172.879 55.0687 172.81 54.6144 172.759 54.1173ZM172.287 51.4087C172.425 51.6487 172.562 51.9059 172.69 52.1973H175.845V52.7973H169.502V54.743C169.467 56.6116 169.176 58.1116 168.61 59.243L168.147 58.8316C168.619 57.8544 168.867 56.4916 168.885 54.743V52.1973H172.056C171.936 51.9487 171.799 51.7173 171.645 51.5116L172.287 51.4087ZM181.69 52.1887C182.427 52.1887 182.985 52.463 183.362 53.0116C183.722 53.5259 183.902 54.263 183.902 55.2059C183.902 56.183 183.705 56.9716 183.327 57.5887C182.916 58.223 182.367 58.5487 181.682 58.5487C180.542 58.5487 179.89 58.0001 179.727 56.9116H180.422C180.55 57.6059 180.97 57.9573 181.69 57.9573C182.162 57.9573 182.539 57.7173 182.822 57.2459C183.087 56.7916 183.225 56.2173 183.225 55.5316C183.225 55.4887 183.216 55.4116 183.216 55.3087H183.182C183.027 55.6173 182.805 55.8659 182.522 56.0459C182.247 56.2173 181.93 56.3116 181.57 56.3116C180.979 56.3116 180.507 56.1144 180.147 55.7287C179.796 55.3601 179.625 54.8801 179.625 54.2887C179.625 53.6801 179.813 53.183 180.207 52.7887C180.593 52.3859 181.09 52.1887 181.69 52.1887ZM181.707 52.7801C181.287 52.7801 180.953 52.9173 180.696 53.2001C180.439 53.483 180.319 53.843 180.319 54.2887C180.319 54.7173 180.439 55.0687 180.696 55.3259C180.945 55.5916 181.279 55.7287 181.707 55.7287C182.102 55.7287 182.436 55.5916 182.71 55.3173C182.967 55.043 183.105 54.6916 183.105 54.2716C183.105 53.843 182.976 53.4916 182.727 53.2173C182.47 52.9259 182.127 52.7801 181.707 52.7801ZM186.898 52.1887C187.533 52.1887 188.038 52.3516 188.398 52.6859C188.724 52.9859 188.896 53.363 188.896 53.8087C188.896 54.1344 188.818 54.4087 188.664 54.6316C188.493 54.8716 188.253 55.0516 187.936 55.163V55.1801C188.253 55.2573 188.527 55.4373 188.75 55.7116C188.99 56.003 189.11 56.3459 189.11 56.7401C189.11 57.2801 188.921 57.7173 188.544 58.043C188.15 58.3773 187.601 58.5487 186.898 58.5487C186.187 58.5487 185.638 58.3773 185.253 58.043C184.876 57.7173 184.687 57.2801 184.687 56.7401C184.687 56.3459 184.807 56.003 185.047 55.7116C185.27 55.4373 185.536 55.2573 185.861 55.1801V55.163C185.536 55.0516 185.296 54.8716 185.133 54.6316C184.978 54.4087 184.901 54.1344 184.901 53.8087C184.901 53.363 185.064 52.9859 185.398 52.6859C185.758 52.3516 186.256 52.1887 186.898 52.1887ZM186.898 52.763C186.461 52.763 186.118 52.8744 185.878 53.0973C185.664 53.2859 185.561 53.5344 185.561 53.8344C185.561 54.143 185.656 54.4001 185.844 54.5887C186.067 54.8116 186.418 54.9316 186.898 54.9316C187.37 54.9316 187.721 54.8116 187.953 54.5887C188.141 54.4001 188.236 54.143 188.236 53.8344C188.236 53.5344 188.124 53.2859 187.918 53.0973C187.67 52.8744 187.327 52.763 186.898 52.763ZM186.898 55.4801C186.401 55.4801 186.024 55.6001 185.758 55.8487C185.501 56.0716 185.381 56.3716 185.381 56.7401C185.381 57.1001 185.501 57.4001 185.758 57.623C186.016 57.8544 186.401 57.9744 186.898 57.9744C187.396 57.9744 187.773 57.8544 188.047 57.6144C188.287 57.3916 188.416 57.1001 188.416 56.7401C188.416 56.3716 188.287 56.0716 188.047 55.8487C187.773 55.6001 187.387 55.4801 186.898 55.4801ZM195.801 55.0773C196.255 55.0773 196.606 55.2401 196.855 55.583C197.069 55.8744 197.181 56.2687 197.181 56.7573C197.181 57.2373 197.069 57.6316 196.855 57.9316C196.606 58.2573 196.255 58.4287 195.801 58.4287C195.338 58.4287 194.986 58.2573 194.746 57.9316C194.524 57.623 194.421 57.2373 194.421 56.7573C194.421 56.2687 194.524 55.8744 194.746 55.583C194.986 55.2401 195.338 55.0773 195.801 55.0773ZM195.064 52.1887H195.612L192.184 58.5487H191.626L195.064 52.1887ZM191.446 52.3087C191.901 52.3087 192.252 52.4716 192.501 52.8144C192.715 53.1059 192.826 53.5001 192.826 53.9887C192.826 54.4687 192.715 54.863 192.501 55.163C192.252 55.4887 191.901 55.6601 191.446 55.6601C190.984 55.6601 190.632 55.4887 190.392 55.163C190.169 54.8544 190.066 54.4687 190.066 53.9887C190.066 53.5001 190.169 53.1059 190.392 52.8144C190.632 52.4716 190.984 52.3087 191.446 52.3087ZM195.801 55.5401C195.535 55.5401 195.346 55.6601 195.226 55.9001C195.115 56.1059 195.064 56.3887 195.064 56.7573C195.064 57.1087 195.115 57.3916 195.226 57.5973C195.346 57.8373 195.535 57.9659 195.801 57.9659C196.058 57.9659 196.246 57.8373 196.375 57.5887C196.478 57.383 196.538 57.1087 196.538 56.7573C196.538 56.3973 196.478 56.1144 196.375 55.9087C196.246 55.6601 196.058 55.5401 195.801 55.5401ZM191.446 52.7716C191.181 52.7716 190.992 52.8916 190.872 53.1316C190.761 53.3373 190.709 53.6201 190.709 53.9887C190.709 54.3401 190.761 54.623 190.872 54.8287C190.992 55.0687 191.181 55.1973 191.446 55.1973C191.704 55.1973 191.892 55.0687 192.021 54.8201C192.124 54.6144 192.184 54.3401 192.184 53.9887C192.184 53.6287 192.124 53.3459 192.012 53.1401C191.892 52.8916 191.704 52.7716 191.446 52.7716Z" fill="#167E5A"/>
<mask id="path-15-inside-3_7424_7448" fill="white">
<path d="M20.9043 74.8574H203.761V116.286H20.9043V74.8574Z"/>
</mask>
<path d="M20.9043 116.286V116.643H21.6214V116.286V115.929H20.9043V116.286ZM22.3385 116.286V116.643H23.7726V116.286V115.929H22.3385V116.286ZM24.4897 116.286V116.643H25.9239V116.286V115.929H24.4897V116.286ZM26.641 116.286V116.643H28.0752V116.286V115.929H26.641V116.286ZM28.7923 116.286V116.643H30.2264V116.286V115.929H28.7923V116.286ZM30.9435 116.286V116.643H32.3777V116.286V115.929H30.9435V116.286ZM33.0948 116.286V116.643H34.5289V116.286V115.929H33.0948V116.286ZM35.246 116.286V116.643H36.6802V116.286V115.929H35.246V116.286ZM37.3973 116.286V116.643H38.8315V116.286V115.929H37.3973V116.286ZM39.5486 116.286V116.643H40.9827V116.286V115.929H39.5486V116.286ZM41.6998 116.286V116.643H43.134V116.286V115.929H41.6998V116.286ZM43.8511 116.286V116.643H45.2852V116.286V115.929H43.8511V116.286ZM46.0023 116.286V116.643H47.4365V116.286V115.929H46.0023V116.286ZM48.1536 116.286V116.643H49.5878V116.286V115.929H48.1536V116.286ZM50.3049 116.286V116.643H51.739V116.286V115.929H50.3049V116.286ZM52.4561 116.286V116.643H53.8903V116.286V115.929H52.4561V116.286ZM54.6074 116.286V116.643H56.0416V116.286V115.929H54.6074V116.286ZM56.7586 116.286V116.643H58.1928V116.286V115.929H56.7586V116.286ZM58.9099 116.286V116.643H60.3441V116.286V115.929H58.9099V116.286ZM61.0612 116.286V116.643H62.4953V116.286V115.929H61.0612V116.286ZM63.2124 116.286V116.643H64.6466V116.286V115.929H63.2124V116.286ZM65.3637 116.286V116.643H66.7979V116.286V115.929H65.3637V116.286ZM67.5149 116.286V116.643H68.9491V116.286V115.929H67.5149V116.286ZM69.6662 116.286V116.643H71.1004V116.286V115.929H69.6662V116.286ZM71.8175 116.286V116.643H73.2516V116.286V115.929H71.8175V116.286ZM73.9687 116.286V116.643H75.4029V116.286V115.929H73.9687V116.286ZM76.12 116.286V116.643H77.5542V116.286V115.929H76.12V116.286ZM78.2712 116.286V116.643H79.7054V116.286V115.929H78.2712V116.286ZM80.4225 116.286V116.643H81.8567V116.286V115.929H80.4225V116.286ZM82.5738 116.286V116.643H84.0079V116.286V115.929H82.5738V116.286ZM84.725 116.286V116.643H86.1592V116.286V115.929H84.725V116.286ZM86.8763 116.286V116.643H88.3105V116.286V115.929H86.8763V116.286ZM89.0275 116.286V116.643H90.4617V116.286V115.929H89.0275V116.286ZM91.1788 116.286V116.643H92.613V116.286V115.929H91.1788V116.286ZM93.3301 116.286V116.643H94.7642V116.286V115.929H93.3301V116.286ZM95.4813 116.286V116.643H96.9155V116.286V115.929H95.4813V116.286ZM97.6326 116.286V116.643H99.0668V116.286V115.929H97.6326V116.286ZM99.7839 116.286V116.643H101.218V116.286V115.929H99.7839V116.286ZM101.935 116.286V116.643H103.369V116.286V115.929H101.935V116.286ZM104.086 116.286V116.643H105.521V116.286V115.929H104.086V116.286ZM106.238 116.286V116.643H107.672V116.286V115.929H106.238V116.286ZM108.389 116.286V116.643H109.823V116.286V115.929H108.389V116.286ZM110.54 116.286V116.643H111.974V116.286V115.929H110.54V116.286ZM112.691 116.286V116.643H114.126V116.286V115.929H112.691V116.286ZM114.843 116.286V116.643H116.277V116.286V115.929H114.843V116.286ZM116.994 116.286V116.643H118.428V116.286V115.929H116.994V116.286ZM119.145 116.286V116.643H120.579V116.286V115.929H119.145V116.286ZM121.296 116.286V116.643H122.731V116.286V115.929H121.296V116.286ZM123.448 116.286V116.643H124.882V116.286V115.929H123.448V116.286ZM125.599 116.286V116.643H127.033V116.286V115.929H125.599V116.286ZM127.75 116.286V116.643H129.184V116.286V115.929H127.75V116.286ZM129.901 116.286V116.643H131.336V116.286V115.929H129.901V116.286ZM132.053 116.286V116.643H133.487V116.286V115.929H132.053V116.286ZM134.204 116.286V116.643H135.638V116.286V115.929H134.204V116.286ZM136.355 116.286V116.643H137.789V116.286V115.929H136.355V116.286ZM138.507 116.286V116.643H139.941V116.286V115.929H138.507V116.286ZM140.658 116.286V116.643H142.092V116.286V115.929H140.658V116.286ZM142.809 116.286V116.643H144.243V116.286V115.929H142.809V116.286ZM144.96 116.286V116.643H146.394V116.286V115.929H144.96V116.286ZM147.112 116.286V116.643H148.546V116.286V115.929H147.112V116.286ZM149.263 116.286V116.643H150.697V116.286V115.929H149.263V116.286ZM151.414 116.286V116.643H152.848V116.286V115.929H151.414V116.286ZM153.565 116.286V116.643H155V116.286V115.929H153.565V116.286ZM155.717 116.286V116.643H157.151V116.286V115.929H155.717V116.286ZM157.868 116.286V116.643H159.302V116.286V115.929H157.868V116.286ZM160.019 116.286V116.643H161.453V116.286V115.929H160.019V116.286ZM162.17 116.286V116.643H163.605V116.286V115.929H162.17V116.286ZM164.322 116.286V116.643H165.756V116.286V115.929H164.322V116.286ZM166.473 116.286V116.643H167.907V116.286V115.929H166.473V116.286ZM168.624 116.286V116.643H170.058V116.286V115.929H168.624V116.286ZM170.775 116.286V116.643H172.21V116.286V115.929H170.775V116.286ZM172.927 116.286V116.643H174.361V116.286V115.929H172.927V116.286ZM175.078 116.286V116.643H176.512V116.286V115.929H175.078V116.286ZM177.229 116.286V116.643H178.663V116.286V115.929H177.229V116.286ZM179.38 116.286V116.643H180.815V116.286V115.929H179.38V116.286ZM181.532 116.286V116.643H182.966V116.286V115.929H181.532V116.286ZM183.683 116.286V116.643H185.117V116.286V115.929H183.683V116.286ZM185.834 116.286V116.643H187.268V116.286V115.929H185.834V116.286ZM187.986 116.286V116.643H189.42V116.286V115.929H187.986V116.286ZM190.137 116.286V116.643H191.571V116.286V115.929H190.137V116.286ZM192.288 116.286V116.643H193.722V116.286V115.929H192.288V116.286ZM194.439 116.286V116.643H195.873V116.286V115.929H194.439V116.286ZM196.591 116.286V116.643H198.025V116.286V115.929H196.591V116.286ZM198.742 116.286V116.643H200.176V116.286V115.929H198.742V116.286ZM200.893 116.286V116.643H202.327V116.286V115.929H200.893V116.286ZM203.044 116.286V116.643H203.761V116.286V115.929H203.044V116.286ZM20.9043 116.286V117H21.6214V116.286V115.572H20.9043V116.286ZM22.3385 116.286V117H23.7726V116.286V115.572H22.3385V116.286ZM24.4897 116.286V117H25.9239V116.286V115.572H24.4897V116.286ZM26.641 116.286V117H28.0752V116.286V115.572H26.641V116.286ZM28.7923 116.286V117H30.2264V116.286V115.572H28.7923V116.286ZM30.9435 116.286V117H32.3777V116.286V115.572H30.9435V116.286ZM33.0948 116.286V117H34.5289V116.286V115.572H33.0948V116.286ZM35.246 116.286V117H36.6802V116.286V115.572H35.246V116.286ZM37.3973 116.286V117H38.8315V116.286V115.572H37.3973V116.286ZM39.5486 116.286V117H40.9827V116.286V115.572H39.5486V116.286ZM41.6998 116.286V117H43.134V116.286V115.572H41.6998V116.286ZM43.8511 116.286V117H45.2852V116.286V115.572H43.8511V116.286ZM46.0023 116.286V117H47.4365V116.286V115.572H46.0023V116.286ZM48.1536 116.286V117H49.5878V116.286V115.572H48.1536V116.286ZM50.3049 116.286V117H51.739V116.286V115.572H50.3049V116.286ZM52.4561 116.286V117H53.8903V116.286V115.572H52.4561V116.286ZM54.6074 116.286V117H56.0416V116.286V115.572H54.6074V116.286ZM56.7586 116.286V117H58.1928V116.286V115.572H56.7586V116.286ZM58.9099 116.286V117H60.3441V116.286V115.572H58.9099V116.286ZM61.0612 116.286V117H62.4953V116.286V115.572H61.0612V116.286ZM63.2124 116.286V117H64.6466V116.286V115.572H63.2124V116.286ZM65.3637 116.286V117H66.7979V116.286V115.572H65.3637V116.286ZM67.5149 116.286V117H68.9491V116.286V115.572H67.5149V116.286ZM69.6662 116.286V117H71.1004V116.286V115.572H69.6662V116.286ZM71.8175 116.286V117H73.2516V116.286V115.572H71.8175V116.286ZM73.9687 116.286V117H75.4029V116.286V115.572H73.9687V116.286ZM76.12 116.286V117H77.5542V116.286V115.572H76.12V116.286ZM78.2712 116.286V117H79.7054V116.286V115.572H78.2712V116.286ZM80.4225 116.286V117H81.8567V116.286V115.572H80.4225V116.286ZM82.5738 116.286V117H84.0079V116.286V115.572H82.5738V116.286ZM84.725 116.286V117H86.1592V116.286V115.572H84.725V116.286ZM86.8763 116.286V117H88.3105V116.286V115.572H86.8763V116.286ZM89.0275 116.286V117H90.4617V116.286V115.572H89.0275V116.286ZM91.1788 116.286V117H92.613V116.286V115.572H91.1788V116.286ZM93.3301 116.286V117H94.7642V116.286V115.572H93.3301V116.286ZM95.4813 116.286V117H96.9155V116.286V115.572H95.4813V116.286ZM97.6326 116.286V117H99.0668V116.286V115.572H97.6326V116.286ZM99.7839 116.286V117H101.218V116.286V115.572H99.7839V116.286ZM101.935 116.286V117H103.369V116.286V115.572H101.935V116.286ZM104.086 116.286V117H105.521V116.286V115.572H104.086V116.286ZM106.238 116.286V117H107.672V116.286V115.572H106.238V116.286ZM108.389 116.286V117H109.823V116.286V115.572H108.389V116.286ZM110.54 116.286V117H111.974V116.286V115.572H110.54V116.286ZM112.691 116.286V117H114.126V116.286V115.572H112.691V116.286ZM114.843 116.286V117H116.277V116.286V115.572H114.843V116.286ZM116.994 116.286V117H118.428V116.286V115.572H116.994V116.286ZM119.145 116.286V117H120.579V116.286V115.572H119.145V116.286ZM121.296 116.286V117H122.731V116.286V115.572H121.296V116.286ZM123.448 116.286V117H124.882V116.286V115.572H123.448V116.286ZM125.599 116.286V117H127.033V116.286V115.572H125.599V116.286ZM127.75 116.286V117H129.184V116.286V115.572H127.75V116.286ZM129.901 116.286V117H131.336V116.286V115.572H129.901V116.286ZM132.053 116.286V117H133.487V116.286V115.572H132.053V116.286ZM134.204 116.286V117H135.638V116.286V115.572H134.204V116.286ZM136.355 116.286V117H137.789V116.286V115.572H136.355V116.286ZM138.507 116.286V117H139.941V116.286V115.572H138.507V116.286ZM140.658 116.286V117H142.092V116.286V115.572H140.658V116.286ZM142.809 116.286V117H144.243V116.286V115.572H142.809V116.286ZM144.96 116.286V117H146.394V116.286V115.572H144.96V116.286ZM147.112 116.286V117H148.546V116.286V115.572H147.112V116.286ZM149.263 116.286V117H150.697V116.286V115.572H149.263V116.286ZM151.414 116.286V117H152.848V116.286V115.572H151.414V116.286ZM153.565 116.286V117H155V116.286V115.572H153.565V116.286ZM155.717 116.286V117H157.151V116.286V115.572H155.717V116.286ZM157.868 116.286V117H159.302V116.286V115.572H157.868V116.286ZM160.019 116.286V117H161.453V116.286V115.572H160.019V116.286ZM162.17 116.286V117H163.605V116.286V115.572H162.17V116.286ZM164.322 116.286V117H165.756V116.286V115.572H164.322V116.286ZM166.473 116.286V117H167.907V116.286V115.572H166.473V116.286ZM168.624 116.286V117H170.058V116.286V115.572H168.624V116.286ZM170.775 116.286V117H172.21V116.286V115.572H170.775V116.286ZM172.927 116.286V117H174.361V116.286V115.572H172.927V116.286ZM175.078 116.286V117H176.512V116.286V115.572H175.078V116.286ZM177.229 116.286V117H178.663V116.286V115.572H177.229V116.286ZM179.38 116.286V117H180.815V116.286V115.572H179.38V116.286ZM181.532 116.286V117H182.966V116.286V115.572H181.532V116.286ZM183.683 116.286V117H185.117V116.286V115.572H183.683V116.286ZM185.834 116.286V117H187.268V116.286V115.572H185.834V116.286ZM187.986 116.286V117H189.42V116.286V115.572H187.986V116.286ZM190.137 116.286V117H191.571V116.286V115.572H190.137V116.286ZM192.288 116.286V117H193.722V116.286V115.572H192.288V116.286ZM194.439 116.286V117H195.873V116.286V115.572H194.439V116.286ZM196.591 116.286V117H198.025V116.286V115.572H196.591V116.286ZM198.742 116.286V117H200.176V116.286V115.572H198.742V116.286ZM200.893 116.286V117H202.327V116.286V115.572H200.893V116.286ZM203.044 116.286V117H203.761V116.286V115.572H203.044V116.286Z" fill="#F3F4F6" mask="url(#path-15-inside-3_7424_7448)"/>
<path d="M36.6187 101.286C36.6187 99.7079 37.8978 98.4287 39.4758 98.4287H53.7615C55.3395 98.4287 56.6187 99.7079 56.6187 101.286V116.286H36.6187V101.286Z" fill="url(#paint0_linear_7424_7448)"/>
<path d="M69.4756 86.2859C69.4756 84.7079 70.7548 83.4287 72.3327 83.4287H86.6184C88.1964 83.4287 89.4756 84.7079 89.4756 86.2859V116.286H69.4756V86.2859Z" fill="url(#paint1_linear_7424_7448)"/>
<path d="M102.333 76.2859C102.333 74.7079 103.612 73.4287 105.19 73.4287H119.476C121.054 73.4287 122.333 74.7079 122.333 76.2859V116.286H102.333V76.2859Z" fill="url(#paint2_linear_7424_7448)"/>
<path d="M135.19 87.7146C135.19 86.1366 136.469 84.8574 138.047 84.8574H152.333C153.911 84.8574 155.19 86.1366 155.19 87.7146V116.286H135.19V87.7146Z" fill="url(#paint3_linear_7424_7448)"/>
<path d="M168.047 109.857C168.047 108.279 169.327 107 170.905 107H185.19C186.768 107 188.047 108.279 188.047 109.857V116.286H168.047V109.857Z" fill="url(#paint4_linear_7424_7448)"/>
</g>
<path d="M11.333 20.5714C11.333 15.2853 15.6183 11 20.9044 11H203.762C209.048 11 213.333 15.2853 213.333 20.5714H211.333C211.333 16.3898 207.943 13 203.762 13H20.9044C16.7229 13 13.333 16.3898 13.333 20.5714H11.333ZM13.333 20.5714M212.333 116.286H12.333H212.333M11.333 116.286V20.5714C11.333 15.2853 15.6183 11 20.9044 11V13C16.7229 13 13.333 16.3898 13.333 20.5714V116.286H11.333ZM203.762 11C209.048 11 213.333 15.2853 213.333 20.5714V116.286H211.333V20.5714C211.333 16.3898 207.943 13 203.762 13V11Z" fill="#F2F4F7" mask="url(#path-3-inside-2_7424_7448)"/>
</g>
<path d="M0 0V-0.5H-0.5V0H0ZM226.667 0H227.167V-0.5H226.667V0ZM226.667 116V116.5H227.167V116H226.667ZM0 116H-0.5V116.5H0V116ZM0 0V0.5H226.667V0V-0.5H0V0ZM226.667 0H226.167V116H226.667H227.167V0H226.667ZM226.667 116V115.5H0V116V116.5H226.667V116ZM0 116H0.5V0H0H-0.5V116H0Z" fill="#EDFDF7" mask="url(#path-1-inside-1_7424_7448)"/>
<defs>
<linearGradient id="paint0_linear_7424_7448" x1="46.6187" y1="106.527" x2="46.6187" y2="116.286" gradientUnits="userSpaceOnUse">
<stop stop-color="#F3F4F6"/>
<stop offset="1" stop-color="#F3F4F6" stop-opacity="0"/>
</linearGradient>
<linearGradient id="paint1_linear_7424_7448" x1="79.4756" y1="98.329" x2="79.4756" y2="116.286" gradientUnits="userSpaceOnUse">
<stop stop-color="#F3F4F6"/>
<stop offset="1" stop-color="#F3F4F6" stop-opacity="0"/>
</linearGradient>
<linearGradient id="paint2_linear_7424_7448" x1="112.333" y1="71.5814" x2="112.333" y2="116.286" gradientUnits="userSpaceOnUse">
<stop stop-color="#1CC78D"/>
<stop offset="1" stop-color="#1CC78D" stop-opacity="0.1"/>
</linearGradient>
<linearGradient id="paint3_linear_7424_7448" x1="145.19" y1="99.1099" x2="145.19" y2="116.286" gradientUnits="userSpaceOnUse">
<stop stop-color="#F3F4F6"/>
<stop offset="1" stop-color="#F3F4F6" stop-opacity="0"/>
</linearGradient>
<linearGradient id="paint4_linear_7424_7448" x1="178.047" y1="111.211" x2="178.047" y2="116.286" gradientUnits="userSpaceOnUse">
<stop stop-color="#F3F4F6"/>
<stop offset="1" stop-color="#F3F4F6" stop-opacity="0"/>
</linearGradient>
<clipPath id="clip0_7424_7448">
<path d="M0 0H226.667V116H0V0Z" fill="white"/>
</clipPath>
<clipPath id="clip1_7424_7448">
<path d="M12.333 20.5714C12.333 15.8376 16.1706 12 20.9044 12H203.762C208.495 12 212.333 15.8376 212.333 20.5714V116.286H12.333V20.5714Z" fill="white"/>
</clipPath>
</defs>
</svg>
