<svg width="16" height="16" viewBox="0 0 16 16" fill="none" xmlns="http://www.w3.org/2000/svg">
<g clip-path="url(#clip0_1131_892)">
<path d="M7.76035 1.14282C7.9369 1.14282 8.10453 1.21174 8.23007 1.33544C8.35693 1.45859 8.42683 1.62548 8.42683 1.80333C8.42683 1.97952 8.35707 2.14607 8.2309 2.2704L3.41666 7.03086C2.69469 7.74416 2.29825 8.699 2.30117 9.7196C2.30263 10.7408 2.70405 11.6987 3.43176 12.4177C4.11103 13.0889 5.00151 13.4801 5.95779 13.5316L6.17422 13.5374C7.20344 13.5374 8.16773 13.146 8.88946 12.4359L12.6187 8.74553C13.0969 8.27293 13.3598 7.63833 13.3583 6.95947C13.3569 6.28113 13.09 5.64451 12.6067 5.16545C12.1213 4.68726 11.4754 4.42288 10.7877 4.42144C10.0944 4.42144 9.45342 4.68199 8.97644 5.15473L5.46143 8.63088C5.2837 8.80598 5.18685 9.04033 5.18818 9.29263C5.18818 9.54494 5.28738 9.78165 5.46781 9.9607C5.64643 10.138 5.88785 10.2367 6.14706 10.2381C6.40308 10.2381 6.64093 10.1418 6.81745 9.96657L9.90232 6.91759C10.0273 6.7945 10.195 6.72583 10.3712 6.72583C10.5488 6.72583 10.7164 6.79398 10.8394 6.91693C10.9663 7.04008 11.0362 7.20697 11.0362 7.38483C11.0362 7.56101 10.9664 7.72758 10.8402 7.85192L7.75535 10.9009C7.32631 11.3236 6.75532 11.556 6.14371 11.556C5.53401 11.5544 4.96201 11.3194 4.53105 10.8932C4.0998 10.4667 3.86134 9.89875 3.85975 9.29447C3.85815 8.68821 4.09376 8.12007 4.52353 7.69505L8.03839 4.22053C8.40856 3.85498 8.84206 3.57197 9.32568 3.37946C9.71327 3.22596 10.1169 3.13557 10.5298 3.1097L10.7894 3.10193C11.829 3.10349 12.8059 3.50478 13.5416 4.23108C14.2743 4.95619 14.6806 5.92386 14.6854 6.95429C14.6869 7.45333 14.5923 7.94052 14.4045 8.40561C14.2118 8.88276 13.9253 9.31116 13.5537 9.67969L9.82461 13.3684C9.33354 13.8549 8.75659 14.2316 8.11201 14.4872C7.57407 14.7022 7.00828 14.824 6.42516 14.8511L6.16006 14.8569C5.48319 14.8538 4.82614 14.7265 4.20892 14.478C3.56292 14.2177 2.98461 13.8382 2.49376 13.3519C1.99967 12.864 1.61692 12.2931 1.35505 11.6546C1.10178 11.0414 0.972783 10.3913 0.971151 9.7231C0.969681 9.05743 1.09517 8.40735 1.34428 7.79149C1.60485 7.15239 1.9862 6.58146 2.47709 6.0967L7.29147 1.33458C7.41642 1.21149 7.58414 1.14282 7.76035 1.14282Z" fill="#999999"/>
</g>
<defs>
<clipPath id="clip0_1131_892">
<rect width="16" height="16" fill="white"/>
</clipPath>
</defs>
</svg>
