<svg width="227" height="116" viewBox="0 0 227 116" fill="none" xmlns="http://www.w3.org/2000/svg">
<g clip-path="url(#clip0_7424_7477)">
<mask id="path-1-inside-1_7424_7477" fill="white">
<path d="M0 0H226.667V116H0V0Z"/>
</mask>
<path d="M0 0H226.667V116H0V0Z" fill="#E6F9FF"/>
<g clip-path="url(#clip1_7424_7477)">
<path d="M13.6665 20C13.6665 15.5817 17.2482 12 21.6665 12H204.667C209.637 12 213.667 16.0294 213.667 21V116.286H13.6665V20Z" fill="white"/>
<g clip-path="url(#clip2_7424_7477)">
<path d="M30.8088 35.6908C33.4387 35.6908 35.5707 33.5588 35.5707 30.9289C35.5707 28.299 33.4387 26.167 30.8088 26.167C28.1789 26.167 26.0469 28.299 26.0469 30.9289C26.0469 33.5588 28.1789 35.6908 30.8088 35.6908Z" stroke="#2EB8E6" stroke-width="0.952381" stroke-linejoin="round"/>
<path d="M29.3804 30.4531H32.2375" stroke="#2EB8E6" stroke-width="0.952381" stroke-linecap="round" stroke-linejoin="round"/>
<path d="M29.3804 31.8818H32.2375" stroke="#2EB8E6" stroke-width="0.952381" stroke-linecap="round" stroke-linejoin="round"/>
<path d="M30.8105 30.4531V33.3103" stroke="#2EB8E6" stroke-width="0.952381" stroke-linecap="round" stroke-linejoin="round"/>
<path d="M32.2375 28.7861L30.8089 30.2147L29.3804 28.7861" stroke="#2EB8E6" stroke-width="0.952381" stroke-linecap="round" stroke-linejoin="round"/>
</g>
<path d="M47.3947 26.743V27.6173H41.2575V29.983C41.2232 31.783 40.9318 33.2316 40.3661 34.3201L39.6632 33.6944C40.1004 32.803 40.3318 31.5687 40.3489 29.983V26.743H47.3947ZM47.1204 29.2801C47.1032 31.6459 46.9832 33.0601 46.7518 33.5316C46.5118 33.9944 46.1089 34.2344 45.5347 34.2344C45.2518 34.2344 44.9089 34.2173 44.5147 34.1916L44.2747 33.3601C44.7032 33.3773 45.0461 33.3944 45.3204 33.4116C45.7061 33.3944 45.9461 33.2144 46.0404 32.8544C46.1432 32.503 46.2032 31.5773 46.2204 30.0859H44.5061C44.3861 30.9944 44.1718 31.7659 43.8547 32.383C43.4089 33.223 42.6975 33.8659 41.7032 34.3116L41.2061 33.523C42.1661 33.043 42.8089 32.4516 43.1432 31.7487C43.3489 31.2687 43.5032 30.7201 43.5889 30.0859H41.7118V29.2801H43.6747L43.7004 28.783V27.9259H44.6004V28.783L44.5832 29.2801H47.1204ZM49.1347 27.4287H51.8604V26.4001H52.7604V27.4287H55.4261V30.6773H52.7175C52.6318 31.3801 52.4347 31.9716 52.1261 32.4601C53.2747 33.0173 54.6118 33.3259 56.1375 33.3944L55.9061 34.2944C54.2432 34.2087 52.7775 33.823 51.5261 33.1544C50.9089 33.6773 50.0518 34.0801 48.9461 34.3544L48.4318 33.5487C49.3661 33.3259 50.1118 33.0259 50.6604 32.6316C50.1375 32.2716 49.6575 31.8601 49.2204 31.3973L49.9489 30.8916C50.3604 31.3201 50.8232 31.6887 51.3204 32.0144C51.5689 31.6544 51.7318 31.2087 51.8089 30.6773H49.1347V27.4287ZM54.5432 29.8201V28.2859H52.7604V29.8201H54.5432ZM51.8604 29.8201V28.2859H50.0089V29.8201H51.8604ZM57.8775 28.003H56.9604V27.1287H59.6861V28.003H58.7861V31.5087C59.1118 31.3973 59.4118 31.2859 59.7032 31.1744V32.0659C58.9489 32.3744 58.0918 32.6659 57.1147 32.9316L56.8489 32.0487C57.2089 31.963 57.5518 31.8687 57.8775 31.783V28.003ZM59.9261 26.6573H64.7604V27.5316H62.7804C62.7461 27.7544 62.7032 27.9773 62.6518 28.183H64.4432V32.3744H63.5689V29.0059H61.0918V32.3744H60.2261V28.183H61.7689C61.8204 27.9687 61.8632 27.7544 61.8975 27.5316H59.9261V26.6573ZM63.1661 32.2973C63.8347 32.7773 64.3918 33.2573 64.8547 33.7287L64.2118 34.3716C63.8261 33.9087 63.2775 33.403 62.5661 32.8716L63.1661 32.2973ZM61.8632 29.3916H62.7547V30.9001C62.7032 31.8344 62.4461 32.5887 61.9832 33.1544C61.5289 33.6687 60.7918 34.0716 59.7632 34.3544L59.2747 33.5916C60.2689 33.3173 60.9461 32.983 61.2975 32.5887C61.6318 32.1601 61.8204 31.5944 61.8632 30.9001V29.3916ZM72.4147 26.7173V34.3201H71.5147V33.823H67.2632V34.3373H66.3547V26.7173H72.4147ZM67.2632 32.9573H71.5147V31.6201H67.2632V32.9573ZM67.2632 30.8059H71.5147V29.563H67.2632V30.8059ZM67.2632 28.7401H71.5147V27.5744H67.2632V28.7401ZM80.0432 30.8316L80.2747 31.6544C79.5547 32.203 78.6632 32.683 77.5918 33.1116L77.2232 32.263C78.3118 31.8687 79.2547 31.3887 80.0432 30.8316ZM78.4747 29.1687C79.0232 29.5373 79.4861 29.9059 79.8632 30.2659L79.2375 30.8916C78.9289 30.5316 78.4832 30.1373 77.9089 29.7259L78.4747 29.1687ZM78.0632 26.3144L78.9632 26.4259C78.8775 26.8373 78.7661 27.2316 78.6461 27.6087H81.6632C81.6632 30.643 81.6204 32.5116 81.5432 33.223C81.4575 33.9259 81.0461 34.2773 80.3175 34.2773C80.0604 34.2773 79.6147 34.2601 78.9975 34.2259L78.7747 33.3773C79.3061 33.403 79.7689 33.4201 80.1632 33.4201C80.4718 33.4201 80.6518 33.2059 80.7032 32.7944C80.7461 32.383 80.7718 30.943 80.7889 28.4744H78.2947C78.0032 29.0744 77.6432 29.623 77.2318 30.103L76.6318 29.323C77.3347 28.5001 77.8147 27.4973 78.0632 26.3144ZM74.0261 28.5687H74.8747V26.4259H75.7747V28.5687H76.5632V29.443H75.7747V31.963C76.1347 31.8601 76.4947 31.7401 76.8547 31.6116V32.5544C76.0147 32.8544 75.1061 33.1116 74.1461 33.3173L73.9061 32.3659C74.2318 32.3144 74.5575 32.2544 74.8747 32.1859V29.443H74.0261V28.5687ZM83.5318 29.803C83.3004 30.1116 83.0518 30.4116 82.7947 30.703L82.4947 29.743C83.2747 28.783 83.8489 27.6516 84.2261 26.3487L85.0661 26.743C84.8947 27.2916 84.6889 27.823 84.4404 28.3201V34.2687H83.5318V29.803ZM88.1261 29.4259H88.9918V34.243H88.1261V29.4259ZM85.9832 29.4516H86.8489V30.7116C86.8318 32.3744 86.4118 33.6001 85.5975 34.3716L84.9204 33.7801C85.6147 33.1459 85.9661 32.1173 85.9832 30.7116V29.4516ZM87.0632 26.4344H87.8775C88.3918 27.5316 89.2832 28.4916 90.5518 29.3144L90.0461 30.0773C88.8889 29.323 88.0318 28.3973 87.4661 27.2916C86.8232 28.5259 86.0089 29.4859 85.0147 30.163L84.5175 29.4001C85.6147 28.6459 86.4632 27.6516 87.0632 26.4344Z" fill="#333333"/>
<path d="M30.3581 49.6626C31.5924 49.6626 32.6038 49.954 33.3581 50.554C34.0952 51.154 34.4724 51.9769 34.4724 53.0397C34.4724 54.3769 33.7866 55.2683 32.4324 55.714C33.1524 55.9369 33.7181 56.2626 34.0952 56.7083C34.5066 57.1711 34.7124 57.7711 34.7124 58.4911C34.7124 59.6226 34.3181 60.5483 33.5295 61.2683C32.7066 62.0054 31.6266 62.3826 30.2895 62.3826C29.0209 62.3826 27.9924 62.0569 27.2209 61.4054C26.3638 60.6854 25.8838 59.6226 25.7809 58.2511H27.8209C27.8552 59.0397 28.0952 59.6569 28.5752 60.0854C29.0038 60.4797 29.5695 60.6854 30.2724 60.6854C31.0438 60.6854 31.6609 60.4626 32.1066 60.034C32.5009 59.6397 32.7066 59.1597 32.7066 58.5769C32.7066 57.874 32.4838 57.3597 32.0724 57.034C31.6609 56.6911 31.0609 56.5369 30.2724 56.5369H29.4152V55.0283H30.2724C30.9924 55.0283 31.5409 54.874 31.9181 54.5654C32.2781 54.2569 32.4666 53.794 32.4666 53.194C32.4666 52.594 32.2952 52.1483 31.9695 51.8397C31.6095 51.5311 31.0781 51.3769 30.3752 51.3769C29.6552 51.3769 29.1066 51.5483 28.7124 51.9083C28.3009 52.2683 28.0609 52.8169 27.9924 53.554H26.0209C26.1238 52.3197 26.5695 51.3597 27.3924 50.674C28.1638 49.9883 29.1581 49.6626 30.3581 49.6626ZM37.7399 59.554C38.2028 59.554 38.5971 59.7426 38.9057 60.1197C39.1971 60.4969 39.3514 60.994 39.3514 61.594C39.3514 62.5026 39.0771 63.2911 38.5628 63.9769C38.0314 64.6454 37.3114 65.1083 36.4199 65.3654V64.234C36.8828 64.0626 37.2771 63.7883 37.6028 63.4111C37.8942 62.9997 38.0485 62.6054 38.0485 62.194C37.9457 62.2283 37.8085 62.2626 37.6199 62.2626C37.2428 62.2626 36.9342 62.1254 36.6771 61.8683C36.4199 61.6111 36.2999 61.2854 36.2999 60.9083C36.2999 60.4969 36.4371 60.1711 36.7114 59.9311C36.9685 59.674 37.3114 59.554 37.7399 59.554ZM45.4266 49.6626C46.6095 49.6626 47.5866 50.0054 48.3581 50.6911C49.1124 51.3769 49.4895 52.2511 49.4895 53.3483C49.4895 54.4111 49.0781 55.3711 48.2895 56.2454C47.8095 56.7597 46.9524 57.4111 45.7524 58.2169C44.5009 59.0397 43.7466 59.7597 43.4724 60.3769H49.5066V62.1426H40.9695C40.9695 60.8911 41.3638 59.8111 42.1866 58.8854C42.6324 58.3711 43.5752 57.6169 44.9981 56.6397C45.7866 56.0911 46.3352 55.6283 46.6781 55.2683C47.2095 54.6683 47.4838 54.0169 47.4838 53.3311C47.4838 52.6626 47.2952 52.1654 46.9524 51.8397C46.5924 51.514 46.0609 51.3597 45.3581 51.3597C44.6038 51.3597 44.0381 51.6169 43.6609 52.1311C43.2838 52.6111 43.0781 53.3483 43.0438 54.3083H41.0381C41.0552 52.9369 41.4495 51.8397 42.2381 50.9997C43.0438 50.1083 44.1066 49.6626 45.4266 49.6626ZM51.9514 49.9026H59.4085V51.6683H53.5628L53.2199 55.0283H53.2714C53.6485 54.6511 54.0771 54.3769 54.5742 54.2054C55.0199 54.034 55.5171 53.9483 56.0657 53.9483C57.2142 53.9483 58.1571 54.3254 58.8771 55.0797C59.5971 55.834 59.9742 56.8797 59.9742 58.1997C59.9742 59.4683 59.4942 60.4969 58.5342 61.3026C57.6428 62.0226 56.5971 62.3826 55.3799 62.3826C54.2657 62.3826 53.3057 62.074 52.5171 61.474C51.6257 60.8054 51.1457 59.8969 51.0599 58.7654H53.0314C53.1171 59.434 53.3742 59.9311 53.8199 60.2569C54.1971 60.5311 54.7285 60.6854 55.3971 60.6854C56.1171 60.6854 56.7342 60.4626 57.2314 60.0169C57.7114 59.5711 57.9685 58.9711 57.9685 58.2169C57.9685 57.394 57.7457 56.7426 57.3342 56.2797C56.9228 55.7997 56.3057 55.5769 55.5171 55.5769C54.9857 55.5769 54.5228 55.6626 54.1457 55.8511C53.7171 56.0569 53.3914 56.3654 53.1514 56.794H51.2828L51.9514 49.9026ZM65.7961 49.6626C67.219 49.6626 68.3332 50.2454 69.139 51.4454C69.8932 52.5769 70.2704 54.1026 70.2704 56.0226C70.2704 57.9426 69.8932 59.4683 69.139 60.5997C68.3332 61.7826 67.219 62.3826 65.7961 62.3826C64.3561 62.3826 63.2418 61.7826 62.4532 60.5997C61.699 59.4683 61.3218 57.9426 61.3218 56.0226C61.3218 54.1026 61.699 52.5769 62.4532 51.4454C63.2418 50.2454 64.3561 49.6626 65.7961 49.6626ZM65.7961 51.3597C64.819 51.3597 64.1332 51.8911 63.739 52.9883C63.4647 53.7254 63.3275 54.7369 63.3275 56.0226C63.3275 57.2911 63.4647 58.3026 63.739 59.0569C64.1332 60.1369 64.819 60.6854 65.7961 60.6854C66.7561 60.6854 67.4418 60.1369 67.8532 59.0569C68.1275 58.3026 68.2647 57.2911 68.2647 56.0226C68.2647 54.7369 68.1275 53.7254 67.8532 52.9883C67.4418 51.8911 66.7561 51.3597 65.7961 51.3597Z" fill="#333333"/>
<path d="M75.2379 55.6197H81.1607V56.2197H75.2379V55.6197ZM74.5779 58.1397H81.9064V58.7397H79.5407V61.9369C79.5407 62.1769 79.6607 62.3054 79.9179 62.3054H80.8693C81.0579 62.3054 81.1864 62.2369 81.255 62.1083C81.3579 61.954 81.4179 61.4911 81.4521 60.7197L82.0179 60.8997C81.9579 61.834 81.8464 62.3997 81.675 62.5969C81.5293 62.7683 81.2979 62.8626 80.9893 62.8626H79.7464C79.2064 62.8626 78.9407 62.5969 78.9407 62.0654V58.7397H77.3979V58.8683C77.3721 59.9826 77.1407 60.8826 76.7121 61.5597C76.2836 62.1854 75.5979 62.674 74.6464 63.0254L74.3121 62.5026C75.2379 62.1597 75.8807 61.714 76.2493 61.1483C76.5921 60.5654 76.7807 59.8026 76.7979 58.8683V58.7397H74.5779V58.1397ZM85.8836 55.114H86.4921L83.4579 62.9997H82.8407L85.8836 55.114ZM94.3521 54.9083C94.575 54.9083 94.7636 54.9683 94.9179 55.1054C95.0636 55.2254 95.1407 55.3969 95.1407 55.6026C95.1407 55.774 95.0721 55.9369 94.9521 56.0911C94.8579 56.194 94.7207 56.314 94.5407 56.434C94.4121 56.5197 94.3007 56.5969 94.2064 56.6826C94.1121 56.7597 94.0264 56.8454 93.9579 56.9483H95.1493V57.2826H93.495C93.495 57.0254 93.5979 56.8026 93.795 56.6054C93.855 56.5283 94.0264 56.3911 94.3093 56.2026C94.455 56.0911 94.5579 56.0054 94.6264 55.9369C94.7121 55.834 94.7636 55.7226 94.7636 55.6197C94.7636 55.4997 94.7207 55.4054 94.6521 55.3369C94.5836 55.2683 94.4807 55.234 94.3436 55.234C94.1979 55.234 94.0864 55.2769 94.0093 55.3711C93.9236 55.4654 93.8807 55.6026 93.8807 55.7911H93.5036C93.5036 55.534 93.5807 55.3283 93.7436 55.1569C93.8979 54.9854 94.1036 54.9083 94.3521 54.9083ZM89.6121 57.5911C90.2979 57.5911 90.7607 57.8654 91.0093 58.4311C91.1807 58.1397 91.3864 57.9254 91.6179 57.7969C91.8321 57.6597 92.0979 57.5911 92.4064 57.5911C92.8693 57.5911 93.2379 57.7369 93.5207 58.0283C93.8036 58.3283 93.9493 58.7311 93.9493 59.2369V62.1426H93.2636V59.3483C93.2636 58.954 93.1779 58.6626 93.015 58.474C92.8436 58.2683 92.5607 58.174 92.1836 58.174C91.8921 58.174 91.6521 58.2769 91.455 58.4997C91.2493 58.7226 91.155 59.0054 91.155 59.3654V62.1426H90.4693V59.3483C90.4693 58.5597 90.1264 58.174 89.4493 58.174C89.1321 58.174 88.875 58.294 88.6693 58.5511C88.4636 58.7911 88.3607 59.0911 88.3607 59.4426V62.1426H87.675V57.7111H88.3607V58.3026C88.695 57.8226 89.115 57.5911 89.6121 57.5911Z" fill="#999999"/>
<path d="M98.8096 57.1422C98.8096 54.7752 100.728 52.8564 103.095 52.8564H136.095C138.462 52.8564 140.381 54.7752 140.381 57.1422V62.8564C140.381 65.2234 138.462 67.1422 136.095 67.1422H103.095C100.728 67.1422 98.8096 65.2234 98.8096 62.8564V57.1422Z" fill="#E6F9FF"/>
<path d="M108.629 55.3162H109.384V62.0276L110.515 61.0419L110.935 61.4362L109.006 63.5105L107.078 61.4362L107.498 61.0419L108.629 62.0276V55.3162ZM116.446 56.379H117.364V60.3905H118.272V61.1876H117.364V62.499H116.412V61.1876H113.455V60.2362L116.446 56.379ZM116.386 57.6476L114.269 60.3905H116.412V57.6476H116.386ZM119.606 61.2047C119.795 61.2047 119.949 61.2647 120.086 61.4019C120.215 61.5305 120.283 61.6933 120.283 61.8819C120.283 62.0705 120.215 62.2247 120.086 62.3619C119.949 62.4819 119.795 62.5505 119.606 62.5505C119.417 62.5505 119.255 62.4819 119.135 62.3619C118.997 62.2247 118.937 62.0705 118.937 61.8819C118.937 61.6933 118.997 61.5305 119.135 61.4019C119.255 61.2647 119.417 61.2047 119.606 61.2047ZM123.458 56.259C124.049 56.259 124.538 56.4305 124.924 56.7733C125.301 57.1162 125.489 57.5533 125.489 58.1019C125.489 58.6333 125.284 59.1133 124.889 59.5505C124.649 59.8076 124.221 60.1333 123.621 60.5362C122.995 60.9476 122.618 61.3076 122.481 61.6162H125.498V62.499H121.229C121.229 61.8733 121.426 61.3333 121.838 60.8705C122.061 60.6133 122.532 60.2362 123.244 59.7476C123.638 59.4733 123.912 59.2419 124.084 59.0619C124.349 58.7619 124.486 58.4362 124.486 58.0933C124.486 57.759 124.392 57.5105 124.221 57.3476C124.041 57.1847 123.775 57.1076 123.424 57.1076C123.046 57.1076 122.764 57.2362 122.575 57.4933C122.386 57.7333 122.284 58.1019 122.266 58.5819H121.264C121.272 57.8962 121.469 57.3476 121.864 56.9276C122.266 56.4819 122.798 56.259 123.458 56.259ZM132.42 59.1476C132.9 59.1476 133.269 59.3105 133.526 59.6533C133.749 59.9447 133.869 60.339 133.869 60.8276C133.869 61.3076 133.749 61.7019 133.526 62.0019C133.269 62.3276 132.9 62.499 132.42 62.499C131.94 62.499 131.563 62.3276 131.306 62.0019C131.066 61.6933 130.955 61.3076 130.955 60.8276C130.955 60.339 131.066 59.9447 131.306 59.6533C131.563 59.3105 131.94 59.1476 132.42 59.1476ZM131.546 56.259H132.292L128.855 62.619H128.109L131.546 56.259ZM127.997 56.379C128.477 56.379 128.846 56.5419 129.103 56.8847C129.326 57.1762 129.446 57.5705 129.446 58.059C129.446 58.539 129.326 58.9333 129.103 59.2333C128.846 59.559 128.477 59.7305 127.997 59.7305C127.517 59.7305 127.14 59.559 126.883 59.2333C126.643 58.9247 126.532 58.539 126.532 58.059C126.532 57.5705 126.643 57.1762 126.883 56.8847C127.14 56.5419 127.517 56.379 127.997 56.379ZM132.42 59.7733C132.206 59.7733 132.052 59.8847 131.966 60.1076C131.897 60.279 131.863 60.519 131.863 60.8276C131.863 61.1276 131.897 61.3676 131.966 61.539C132.052 61.7619 132.206 61.8733 132.42 61.8733C132.626 61.8733 132.772 61.7533 132.866 61.5219C132.926 61.3505 132.96 61.119 132.96 60.8276C132.96 60.519 132.926 60.2876 132.857 60.1162C132.772 59.8847 132.626 59.7733 132.42 59.7733ZM127.997 57.0047C127.783 57.0047 127.629 57.1162 127.543 57.339C127.475 57.5105 127.44 57.7505 127.44 58.059C127.44 58.359 127.475 58.599 127.543 58.7705C127.629 58.9933 127.783 59.1047 127.997 59.1047C128.203 59.1047 128.349 58.9847 128.443 58.7533C128.503 58.5819 128.537 58.3505 128.537 58.059C128.537 57.7505 128.503 57.519 128.435 57.3476C128.349 57.1162 128.203 57.0047 127.997 57.0047Z" fill="#2EB8E6"/>
<path d="M43.242 94.1362L30.4522 100.928L30.4522 130.928L200.809 130.928L200.809 50.2139L194.832 58.9339C175.07 87.7668 138.587 99.9787 105.125 88.9612C84.5608 82.1905 62.2188 84.0589 43.242 94.1362Z" fill="url(#paint0_linear_7424_7477)" fill-opacity="0.3"/>
<path d="M30.4522 100.928L43.242 94.1362C62.2188 84.0589 84.5608 82.1905 105.125 88.9612C138.587 99.9787 175.07 87.7668 194.832 58.9339L200.809 50.2139" stroke="#30C4F6" stroke-width="1.07143" stroke-linecap="round"/>
<path d="M162.952 113.071V44.8564" stroke="#CBCED3" stroke-width="0.714286" stroke-dasharray="1.43 1.43"/>
<circle cx="162.595" cy="85.2141" r="4.10714" fill="white" stroke="#29A5CF" stroke-width="1.07143"/>
</g>
</g>
<path d="M0 0V-0.5H-0.5V0H0ZM226.667 0H227.167V-0.5H226.667V0ZM226.667 116V116.5H227.167V116H226.667ZM0 116H-0.5V116.5H0V116ZM0 0V0.5H226.667V0V-0.5H0V0ZM226.667 0H226.167V116H226.667H227.167V0H226.667ZM226.667 116V115.5H0V116V116.5H226.667V116ZM0 116H0.5V0H0H-0.5V116H0Z" fill="#E6F9FF" mask="url(#path-1-inside-1_7424_7477)"/>
<defs>
<linearGradient id="paint0_linear_7424_7477" x1="114.738" y1="82.3569" x2="116.161" y2="115.944" gradientUnits="userSpaceOnUse">
<stop stop-color="#6BDAFF"/>
<stop offset="1" stop-color="#6BDAFF" stop-opacity="0"/>
</linearGradient>
<clipPath id="clip0_7424_7477">
<path d="M0 0H226.667V116H0V0Z" fill="white"/>
</clipPath>
<clipPath id="clip1_7424_7477">
<path d="M13.6665 20C13.6665 15.5817 17.2482 12 21.6665 12H204.667C209.637 12 213.667 16.0294 213.667 21V116.286H13.6665V20Z" fill="white"/>
</clipPath>
<clipPath id="clip2_7424_7477">
<rect width="11.4286" height="11.4286" fill="white" transform="translate(25.0947 25.2148)"/>
</clipPath>
</defs>
</svg>
