<svg width="16" height="16" viewBox="0 0 16 16" fill="none" xmlns="http://www.w3.org/2000/svg">
<g clip-path="url(#clip0_1131_867)">
<path d="M14.919 6.25064C14.919 9.19478 12.5323 11.5815 9.58818 11.5815C8.68785 11.5815 7.83962 11.3583 7.09584 10.9642L3.95419 14.1058C3.50464 14.5554 2.77577 14.5554 2.32622 14.1058L1.73301 13.5126C1.28346 13.0631 1.28346 12.3342 1.73301 11.8846L4.87465 8.74299C4.48057 7.9992 4.25734 7.15098 4.25734 6.25064C4.25734 3.3065 6.64405 0.9198 9.58818 0.9198C10.4885 0.9198 11.3367 1.14301 12.0805 1.53711L8.69971 4.91793L10.9209 7.13912L14.3017 3.7583C14.6958 4.50208 14.919 5.35031 14.919 6.25064Z" stroke="#41464C" stroke-width="1.2" stroke-linecap="round" stroke-linejoin="round"/>
</g>
<defs>
<clipPath id="clip0_1131_867">
<rect width="16" height="16" fill="white"/>
</clipPath>
</defs>
</svg>
