<svg width="16" height="16" viewBox="0 0 16 16" fill="none" xmlns="http://www.w3.org/2000/svg">
<g clip-path="url(#clip0_1131_888)">
<circle cx="7.99995" cy="7.99995" r="2.2" transform="rotate(-180 7.99995 7.99995)" stroke="#41464C" stroke-width="1.2"/>
<path fill-rule="evenodd" clip-rule="evenodd" d="M8.60008 14.6536C8.2288 14.8679 7.77136 14.8679 7.40008 14.6536L2.5379 11.8464C2.16662 11.6321 1.9379 11.2359 1.9379 10.8072L1.9379 5.19282C1.9379 4.7641 2.16662 4.36795 2.5379 4.15359L7.40008 1.34641C7.77136 1.13205 8.2288 1.13205 8.60008 1.34641L13.4623 4.15359C13.8335 4.36795 14.0623 4.7641 14.0623 5.19282L14.0623 10.8072C14.0623 11.2359 13.8335 11.6321 13.4623 11.8464L8.60008 14.6536Z" stroke="#41464C" stroke-width="1.2"/>
</g>
<defs>
<clipPath id="clip0_1131_888">
<rect width="16" height="16" fill="white"/>
</clipPath>
</defs>
</svg>
